<svg xmlns="http://www.w3.org/2000/svg">
<defs>
<font id="UTMFrenchVanilla" horiz-adv-x="1914" >
  <font-face 
    font-family="UTM French Vanilla"
    font-weight="400"
    font-stretch="normal"
    units-per-em="2048"
    panose-1="2 4 6 3 5 5 6 2 2 4"
    ascent="1638"
    descent="-410"
    x-height="905.001"
    cap-height="1483"
    bbox="-491.082 -453 4942 2045"
    underline-thickness="109"
    underline-position="-143"
    unicode-range="U+0020-U+2026"
  />
<missing-glyph horiz-adv-x="5040" 
d="M3351 2045h10c24.667 -6.66699 37 -24 37 -52c0 -8 -10.667 -27 -32 -57h-28c0 16 9.33301 34 28 54l2 10c-3.33301 8.66699 -6.66602 13.667 -10 15h-9c-5.33301 0 -8.66602 -6.33301 -10 -19h-30c4 32.667 18 49 42 49zM2019 2016l29.001 -31
c0 -10.667 -13.333 -20.667 -40 -30h-19l-59 12l-11 -12l-28 25c7.33301 19.333 21.666 29 42.999 29h11l42 -11h2c6.66699 0 16.667 6 30 18zM468.001 1980h142v-60h-94v-75h89v-59h-89v-129l-5 -5h-49v323zM1155 1980h43l6 -5v-78h30v-52h-30v-188l-6 -5h-49v193h-25v52
h25v78zM1621 1980h41.999l4 -5v-94h3c15.333 16 33.333 24 54 24h2c38.667 0 66.334 -23.667 83.001 -71l2 -39v-143h-52v115c0 53.333 -14 80 -42 80h-7c-28.667 0 -43 -28.667 -43 -86v-109h-51v323zM2200 1980l49 -0.000976562l5 -5v-222c6.66699 -34 21.667 -51 45 -51
c29.333 4.66699 44 24.334 44 59.001v214l5 5h49v-216c0 -56.667 -22 -94 -66 -112c-10 -5.33301 -21.667 -8 -35 -8c-31.333 0 -58.666 18.333 -82 55c-9.33301 16 -14 35 -14 57v224zM2435 1980h159v-60h-56v-268h-53v268h-55v55zM2621 1980l71 0.000976562
c4.66699 -2.66699 32.334 -86.334 83 -251.001h2l80 251h73v-328h-54v242h-2l-74 -242h-44c-2.66699 0 -22 60.667 -58 182l-19 60h-3v-242h-55v328zM3760 1980l52 -0.000976562v-328h-45l-5 5v11l3 2l-3 14c-19.333 -26.667 -45.333 -40 -78 -40
c-44.667 0 -78 30.333 -100 91l-5 39v3c0 62.667 30.667 104.334 92 125.001l23 3c23.333 0 44.333 -10.667 63 -32h3v107zM2057 1928l36 0.00195312l4 -6v-49h-45v-221h-48v23c-15.333 -20.667 -35 -31 -59 -31c-59.333 9.33301 -89 41.666 -89 96.999v156h51v-104

<glyph glyph-name=".notdef" horiz-adv-x="5040" 
d="M3351 2045h10c24.667 -6.66699 37 -24 37 -52c0 -8 -10.667 -27 -32 -57h-28c0 16 9.33301 34 28 54l2 10c-3.33301 8.66699 -6.66602 13.667 -10 15h-9c-5.33301 0 -8.66602 -6.33301 -10 -19h-30c4 32.667 18 49 42 49zM2019 2016l29.001 -31
c0 -10.667 -13.333 -20.667 -40 -30h-19l-59 12l-11 -12l-28 25c7.33301 19.333 21.666 29 42.999 29h11l42 -11h2c6.66699 0 16.667 6 30 18zM468.001 1980h142v-60h-94v-75h89v-59h-89v-129l-5 -5h-49v323zM1155 1980h43l6 -5v-78h30v-52h-30v-188l-6 -5h-49v193h-25v52
h25v78zM1621 1980h41.999l4 -5v-94h3c15.333 16 33.333 24 54 24h2c38.667 0 66.334 -23.667 83.001 -71l2 -39v-143h-52v115c0 53.333 -14 80 -42 80h-7c-28.667 0 -43 -28.667 -43 -86v-109h-51v323zM2200 1980l49 -0.000976562l5 -5v-222c6.66699 -34 21.667 -51 45 -51
c29.333 4.66699 44 24.334 44 59.001v214l5 5h49v-216c0 -56.667 -22 -94 -66 -112c-10 -5.33301 -21.667 -8 -35 -8c-31.333 0 -58.666 18.333 -82 55c-9.33301 16 -14 35 -14 57v224zM2435 1980h159v-60h-56v-268h-53v268h-55v55zM2621 1980l71 0.000976562
c4.66699 -2.66699 32.334 -86.334 83 -251.001h2l80 251h73v-328h-54v242h-2l-74 -242h-44c-2.66699 0 -22 60.667 -58 182l-19 60h-3v-242h-55v328zM3760 1980l52 -0.000976562v-328h-45l-5 5v11l3 2l-3 14c-19.333 -26.667 -45.333 -40 -78 -40
c-44.667 0 -78 30.333 -100 91l-5 39v3c0 62.667 30.667 104.334 92 125.001l23 3c23.333 0 44.333 -10.667 63 -32h3v107zM2057 1928l36 0.00195312l4 -6v-49h-45v-221h-48v23c-15.333 -20.667 -35 -31 -59 -31c-59.333 9.33301 -89 41.666 -89 96.999v156h51v-104
c0 -52.667 8.66699 -81.334 26 -86.001l18 -5h6c17.333 0 30.333 12 39 36l3 26v133h53v25zM3476 1928v-55h-31v-221h-47v25h-2c-10 -22 -29 -33 -57 -33c-45.333 0 -74 26 -86 78l-3 29v146h52v-120c0 -33.333 6.33301 -56 19 -68l21 -7h9c28 0 42 23 42 69v126h27
c2.66699 0 4 9.33301 4 28l3 3h49zM758 1905c45.333 0 79.667 -25.667 103 -77c6 -12 10 -30 12 -54c0 -58.667 -30 -101 -90 -127l-32 -3c-42 0 -75.667 24.333 -101 73c-8 14.667 -12 32 -12 52v10c0 62.667 33.667 104.667 101 126h19zM1011 1905h3
c49.333 0 77 -33.667 83 -101v-152h-51v119c0 50.667 -14 76 -42 76h-5c-29.333 0 -44 -25.333 -44 -76v-119h-52v245h46v-21c20 19.333 40.667 29 62 29zM1466 1905l7 -0.000976562c48 0 83 -29.667 105 -89h-60c-10.667 20.667 -24.667 31 -42 31h-17
c-35.333 -9.33301 -53 -29.666 -53 -60.999l-3 -15c8 -46 28.333 -69 61 -69h9c14.667 0 30.334 9 47.001 27h40l2 3h3l2 -3l2 3l3 -3l2 3l2 -7c-22 -54 -58.667 -81 -110 -81c-50.667 0 -87.334 31.333 -110.001 94l-4 36v3c0 56.667 25.667 96.667 77 120
c10 5.33301 22.333 8 37 8zM3141 1905h1.99902c32.667 0 56 -20 70 -60v-14h-52c0 10.667 -5.33301 16 -16 16h-4c-9.33301 0 -15.666 -4.33301 -18.999 -13v-13c0 -6 22.667 -17.667 68 -35c20 -12.667 30 -32.334 30 -59.001c0 -38.667 -20.333 -65.334 -61 -80.001
l-23 -3c-50.667 8 -76 35.667 -76 83h54c0 -13.333 9 -21.666 27 -24.999h4c12.667 0 20.667 7.66699 24 23c0 14.667 -22.667 29.334 -68 44.001c-22.667 18 -34 37.667 -34 59c0 44 24.667 69.667 74 77zM4203 1905c36.666 0 62.333 -21 77 -63
c4.66602 -12 7 -33.667 7 -65v-125h-52v112c0 55.333 -13.334 83 -40 83h-11c-22 0 -35.334 -18 -40 -54v-141h-52v5h-2l2 2v238h47v-21c16.666 19.333 38 29 64 29zM4432 1905h5c26.666 0 49.666 -13.333 69 -40v18l-3 3l3 11h47v-208c0 -64.667 -28.334 -108.667 -85 -132
l-33 -4h-7c-46.666 0 -81.333 26.667 -104 80h59c16 -14.667 31 -22.334 45 -23.001h13c14.666 0 29 7.33301 43 22c10 8.66699 17.334 26 22 52h-3c-21.334 -26.667 -45.667 -40 -73 -40c-38 0 -70 23.333 -96 70c-6.66602 12 -11.333 33 -14 63
c0 58.667 29 100.334 87 125.001zM3851 1897l53 -0.000976562v-136c4 -39.333 17.333 -59 40 -59h7c30.667 0 46 31 46 93v102h51v-245h-47l-3 10h3l-3 3v5l3 2v3h-4c0 -15.333 -19 -25.666 -57 -30.999h-3c-39.333 0 -67.333 25 -84 75l-2 85v93zM690 1771
c6.66699 -46 27.6689 -69 63.002 -69h7c39.333 9.33301 59 31 59 65v15c-8.66699 43.333 -28.334 65 -59.001 65h-5c-38.667 0 -60.334 -25.333 -65.001 -76zM3630 1774c8.66699 -48 29 -72 61 -72h5c38.667 0 60.667 25 66 75c0 32.667 -17 56 -51 70h-22
c-24.667 0 -43.334 -19 -56 -57zM4374 1774c5.33398 -48 27 -71.999 65 -71.999h5c39.334 8 59 32 59 72c0 40.667 -19.666 65 -59 73h-14c-37.334 -10.667 -56 -31.334 -56 -62.001v-11zM3928 1620h52v-57h-52v57zM1054 1402c28.667 -7.33301 43 -23.667 43 -49v-4
c0 -11.333 -10.667 -31.333 -32 -60h-28c0 16.667 10.333 35.667 31 57v7c0 8 -2.33301 13 -7 15h-12c-6.66699 -2.66699 -10 -9 -10 -19h-28v6c0 21.333 11 36 33 44zM3349 1339c61.333 0 107.333 -33.001 138 -99.001h-60c-24.667 28 -51.334 42 -80 42
c-36.667 0 -65.667 -22.667 -87 -68c-6.66699 -14.667 -10 -30.334 -10 -47.001c0 -52 27 -88.667 81 -110l18 -1c24 0 49 13 75 39h61c-29.333 -64.667 -75.333 -97 -138 -97c-62 0 -109 37.333 -141 112c-6.66699 20.667 -10 41.334 -10 62.001
c0 64.667 30 115.334 90 152.001c19.333 10 40.333 15 63 15zM3664 1339c38 0 72.333 -15.666 103 -46.999c30.667 -34 46 -72.333 46 -115v-20c0 -59.333 -30.333 -108 -91 -146c-22 -8.66699 -43 -13 -63 -13c-59.333 0 -105.333 33.667 -138 101
c-8.66699 22 -13 42 -13 60v18c0 65.333 32.667 115.666 98 150.999c19.333 7.33301 38.666 11 58 11zM2261 1337h2l47 -11h3c7.33301 0 16 3.66699 26 11l18 -36c-12 -12.667 -23.667 -19 -35 -19h-3l-54 10l-20 -7l-20 36c12 10.667 24 16 36 16zM716.002 1334h19
c78.667 0 121.667 -8.66699 129 -26c16.667 -17.333 25 -38 25 -62c-6.66699 -38 -16.667 -57 -30 -57v-6c31.333 -15.333 47 -37.333 47 -66v-18c0 -42 -23 -71.333 -69 -88l-54 -5h-67v328zM2550 1334h53v-217c4 -40.667 19 -61 45 -61c19.333 0 34 13 44 39l3 30v203l4 6
h45l5 -6v-171c0 -78.667 -13.333 -123 -40 -133c-16 -17.333 -37.333 -26 -64 -26c-36.667 0 -67 25.333 -91 76l-4 54v206zM2805 1334h59c2.66699 0 43.334 -79 122 -237h4v237h50l4 -6v-322h-58c-19.333 32 -61 111.333 -125 238h-3v-238h-53v328zM3101 1334h54v-328h-54
v328zM3859 1334l8 0.000976562c103.333 0 161.333 -13.333 174 -40c15.333 -7.33301 31 -32.333 47 -75l4 -36v-11l3 -2c0 -62.667 -27.333 -112.334 -82 -149.001c-23.333 -10 -56.333 -15 -99 -15h-55v328zM4141 1334h153v-60h-103v-75h101v-57h-101v-74l4 -5h99v-57h-157
v322zM3563 1175v-10c0 -50.667 26.333 -86.667 79 -108l19 -1c45.333 0 77.333 28.667 96 86l3 20v15c0 40.667 -20 72 -60 94c-8 5.33301 -21 9 -39 11c-44 0 -76 -27.667 -96 -83zM770.002 1274v-67h9c36 0 54 9.33301 54 28l3 14c-7.33301 16.667 -17 25 -29 25h-37z
M3912 1274v-206.001l2 -3v-2c69.333 0 110 25.333 122 76l2 15v29c0 22.667 -10.667 45.334 -32 68.001c-16.667 15.333 -42.667 23 -78 23h-16zM1041 1259h5c25.333 0 49 -13.333 71 -40v32h49v-245h-49v32c-24 -26.667 -50.667 -40 -80 -40c-50 0 -83.667 32.333 -101 97
l-5 36c0 59.333 28.333 101 85 125zM1314 1259h3c49.333 0 77 -34 83 -102v-151h-51v128c0 44.667 -14 67 -42 67h-10c-22.667 0 -35.667 -20.667 -39 -62v-133h-52v245h47v-21c18.667 19.333 39 29 61 29zM1543 1259h5c30 0 53.667 -13.333 71 -40v32h47v-219
c0 -63.333 -34.667 -105.333 -104 -126h-16c-49.333 0 -85.333 27.333 -108 82h59c17.333 -16.667 32 -25 44 -25h14c34.667 0 56 25.667 64 77c-22 -28 -47.333 -42 -76 -42c-40 0 -73.667 27 -101 81l-7 44v16c0 52.667 28.333 91.667 85 117zM1912 1259l2 0.000976562
c28.667 0 49 -12.333 61 -37h2c21.333 24.667 44.333 37 69 37h4c38 0 64.333 -18.333 79 -55c5.33301 -16.667 8 -31.667 8 -45v-153h-52v138c0 29.333 -7.66699 47.666 -23 54.999l-12 2h-15c-21.333 0 -33.333 -21.667 -36 -65v-130h-52v136c0 39.333 -14.333 59 -43 59
h-8c-21.333 0 -33.333 -19 -36 -57v-138h-54v245h50v-21h2c4 16 22 25.667 54 29zM2282 1259c31.333 0 56.333 -14 75 -42v34h47v-245h-47v32c-24 -26.667 -50 -40 -78 -40c-49.333 0 -83.333 30.667 -102 92l-6 41c0 60 28.333 101.667 85 125zM985.002 1117
c0 -32 20.333 -52.333 61 -61h4c30 0 50.667 15.333 62 46l3 15v22c-8 41.333 -27 62 -57 62h-14c-27.333 0 -47 -19 -59 -57v-27zM1487 1128c0 -32 14.332 -54.667 42.999 -68l18 -4h5c31.333 0 52.333 19 63 57v23c-7.33301 43.333 -26.666 65 -57.999 65h-12
c-33.333 0 -53 -24.333 -59 -73zM2225 1131v-14.001c10 -40.667 29 -61 57 -61h14c38.667 8 58 29.333 58 64v11c0 30 -12.333 51.667 -37 65l-18 5h-10c-42.667 -5.33301 -64 -28.666 -64 -69.999zM770.001 1150v-82c0 -3.33301 2.33301 -5 7 -5c51.333 0 77 15 77 45
c0 22.667 -15.667 36.667 -47 42h-37zM2966 752.999l24 -28l-51 -55c-12 8 -21 16.667 -27 26zM1524 726.999l85 -54c0 -10 -7 -24 -21 -42l-87 54c12 27.333 19.667 41.333 23 42zM2850 692.999h38l55 -60h-54l-21 26l-23 -26h-54c36 40 55.667 60 59 60zM3422 692.999h40
l56 -60h-54l-24 26h-1c0 -3.33301 -6.33301 -12 -19 -26h-54zM622.001 684.999l52 0.00195312c5.33301 -2.66699 21 -48.334 47 -137.001l34 -110c6 5.33301 17.333 38.666 34 99.999l48 147h54v-2l-112 -326h-44zM1159 685.001h51v-54h-51v54zM1354 685.001h46l6 -5v-323
h-52v328zM2317 685.001h45l4 -5v-78h31v-52h-31v-193h-53v193h-26v52h26v78zM2425 685.001h52v-98h2c15.333 15.333 33.333 23 54 23h3c38 0 65 -23.667 81 -71l3 -38v-144h-52v115c0 54 -13 81 -39 81h-10c-28 0 -42 -29 -42 -87v-109h-52v328zM2664 685.001h52v-54h-52v54
zM3028 685.001h44l6 -5v-78h29v-52h-29v-193h-54v193h-27v52h27v78zM3234 685.001h52v-328h-52v328zM3957 685.001h52v-328h-52v328zM4316 685.001h51v-54h-51v54zM1555 610.001h5c55.333 0 92 -34 110 -102l3 -23v-11c0 -55.333 -28.333 -95.333 -85 -120l-35 -5
c-50.667 0 -87.667 32.333 -111 97l-4 32c0 64.667 31 108 93 130zM1811 610.001h4c35.333 0 61.333 -20 78 -60c4.66699 -16.667 7 -43.667 7 -81v-112h-54v146c-4.66699 33.333 -17 50 -37 50h-10c-25.333 0 -39.333 -19 -42 -57v-139h-54v245h49v-21
c17.333 19.333 37 29 59 29zM2046 610.001h4.00098c30 0 51 -13 63 -39h3v31h49v-206c0 -68 -29.667 -113 -89 -135l-28 -3h-5c-48.667 0 -84 27 -106 81h52l37 -20l15 -3h14c33.333 0 53.666 24 60.999 72c-22 -26 -46.333 -39 -73 -39c-41.333 0 -74 25.333 -98 76
c-7.33301 15.333 -11.333 35.333 -12 60c0 56.667 28.667 97.667 86 123zM2866 610.001l2 -0.000976562c54.667 0 91.667 -34.667 111 -104l2 -25l-2 -27h-172c10 -30 25 -45 45 -45l14 -3c19.333 0 35.666 7.33301 49 22h57v-3c-23.333 -50.667 -59.333 -76 -108 -76
c-51.333 0 -88.333 32.333 -111 97l-1 28v8c0 32.667 10.667 62.334 32 89.001c22.667 26 50 39 82 39zM3429 610h5c27.333 0 50.666 -13 70 -39h2v31h47v-245h-47v31h-2c-23.333 -26 -49 -39 -77 -39c-47.333 0 -81 29.667 -101 89l-5 36v14c0 57.333 28 97.333 84 120z
M3711 610l7 -0.000976562c58.667 0 94.334 -42.667 107 -128l-2 -1v-15c0 -43.333 -22 -78.666 -66 -105.999c-14 -7.33301 -29.333 -11 -46 -11c-22.667 0 -44 10.667 -64 32v-99l-5 -5h-49v325h49v-28c20.667 24 43.667 36 69 36zM4151 609.999
c29.334 0 54.334 -13 75 -39v31h49v-245h-49v31c-23.334 -26 -49 -39 -77 -39c-61.333 0 -97.333 44 -108 132c0 56 24.333 96.333 73 121c10 5.33301 22.334 8 37 8zM922.002 601.999h50v-136c2 -40 16 -60 42 -60h5c29.333 0 44 29 44 87v109h52v-245h-47v24h-5
c0 -15.333 -18.667 -26 -56 -32h-3c-36.667 0 -64 22.667 -82 68c-2.66699 23.333 -4 56.333 -4 99v81zM1159 601.999h51v-245h-51v245zM2664 601.999h52v-245h-52v245zM4316 601.999h51v-245h-51v245zM1492 487.999v-15.999c8.66699 -44 28.334 -66 59.001 -66h4
c39.333 0 61.333 25.333 66 76c-8.66699 47.333 -28.334 71 -59.001 71h-11c-39.333 -10.667 -59 -32.334 -59 -65.001zM1987 472c10 -44 29.667 -66 59 -66h11c32 0 51.667 25 59 75v1c-8.66699 47.333 -28.334 71 -59 71h-14c-26 0 -44.667 -19 -56 -57v-24zM2805 506h122
v2c-10.667 30 -30.334 45 -59 45h-7c-23.333 0 -42 -15.667 -56 -47zM3373 474c8.66699 -45.333 29 -68 61 -68h5c34.667 0 56.334 21 65 63v12c-6.66699 48 -25.667 72 -57 72h-16c-37.333 -9.33301 -56 -30.333 -56 -63zM3642 478c8 -48 28.333 -72.001 61 -72.001h3
c33.333 0 55 20 65 60v22c0 28.667 -16.333 50.334 -49 65.001h-22c-31.333 0 -50.666 -24 -58 -72v-3zM4095 471.999c6.66602 -44 28.666 -66 66 -66c28.666 0 49 16 61 48l2 15v16c0 36 -17.334 58.667 -52 68h-18c-28 0 -47.666 -20 -59 -60v-21zM3416 320.999h51v-52
h-51v52zM4137 320.999h51v-52h-51v52zM2733 132.999h4c23.333 0 37.666 -16.667 43 -50v-2c0 -10.667 -8 -24.334 -24 -41.001l-10 -17h-28c0 16.667 9.33301 35.334 28 56.001l3 2v2c-2 12.667 -5 19 -9 19h-10c-5.33301 0 -8.33301 -6.33301 -9 -19h-30
c4 33.333 18 50 42 50zM1546 115.999l52 -60l-26 -19l-52 52zM352.002 78.999h4c50 -32 78.333 -52 85 -60l-20 -37c-58.667 32.667 -88 52 -88 58zM3490 78.999l86 -58l-18 -39c-6.66699 0 -37 18.333 -91 55c10 24 17.667 38 23 42zM4578 75.999l19 -42l-91 -52l-20 39
l92 58v-3zM1204 52.999h51v-19l5 -5h14v-36h-14l-5 -5v-279h-46v31c-22.667 -26.667 -49.667 -40 -81 -40c-48 0 -82 35 -102 105l-3 26c0 68 33.667 111.667 101 131h14c22 0 44 -11 66 -33v59l-6 5h-43v36h49v24zM1480 44.999h40l56 -61h-53l-23 27l-23 -27h-53z
M2641 44.999h33c8 0 29 -20.333 63 -61h-54l-23 27c-12.667 -14 -19 -23 -19 -27h-58v4zM49.002 36.999h160v-60h-56v-268h-50l-4 5v245l2 3v2l-2 2l2 3l-2 2l2 3l-2 3h-54v54zM699.002 36.999h47v-73l2 -2l-2 -3v-3l2 -2l-2 -3v-3l2 -2v-2l-2 -3l2 -3h3
c11.333 16 28.333 24 51 24h3c35.333 0 61 -19.333 77 -58c4.66699 -11.333 7 -25.333 7 -42v-153h-52v127c0 45.333 -13.333 68 -40 68h-8c-28.667 0 -43 -28.667 -43 -86v-109h-52v322zM1297 36.999h47l5 -6v-49h-52v55zM1987 36.999h52v-198l70 115h62l-78 -118l90 -125
v-2h-70c-6.66699 14.667 -31.334 53 -74 115v-115h-52v328zM2271 36.999v-98.999c16 16 33.667 24 53 24c38 0 64.667 -18.667 80 -56c6.66699 -12.667 10 -38.334 10 -77.001v-120h-54v133c0 41.333 -13.667 62 -41 62h-11c-20.667 0 -33 -18.333 -37 -55v-140h-53v314
l-1 3v3l1 2l-1 3l1 3h53zM2458 37h51v-55h-51v55zM3148 37h51v-108c18 22 40.667 33 68 33h3c50 0 85 -31.333 105 -94l5 -37c0 -50 -21.333 -90 -64 -120c-20 -7.33301 -36.333 -11 -49 -11c-27.333 0 -51.333 13.333 -72 40v-31h-47v328zM4275 37h52v-99h2
c15.334 16 33.334 24 54 24h3c40 0 67.334 -24.667 82 -74l2 -41v-138h-52v111c0 54.667 -10.666 82 -32 82l-10 2h-12c-24.666 0 -37 -26.667 -37 -80v-115h-52v328zM329.002 -38h3v-58h-5c-28 0 -42 -19 -42 -57v-138h-53v245h47v-21c12 19.333 28.667 29 50 29z
M564.002 -38c47.333 0 75.999 -29 85.999 -87v-166h-51v136c-4 39.333 -17.667 59 -41 59h-6c-30 0 -45 -28 -45 -84v-111h-52v245h50v-21c16.667 19.333 36.334 29 59.001 29zM1504 -38c48 0 83 -31.333 105 -94l5 -39c-1.33301 -16 -3.66602 -24 -6.99902 -24h-169
c11.333 -31.333 32 -47 62 -47c16 0 32 7 48 21h57c-22 -52.667 -58 -79 -108 -79c-54.667 0 -92.334 35 -113.001 105v37c0 54 29.667 93 89 117zM2657 -38h5c51.333 0 87 -32.333 107 -97l3 -26v-21l-3 -13h-170c12 -31.333 29.667 -47 53 -47h12c14 0 28 7 42 21h59
c-22.667 -52.667 -57.667 -79 -105 -79c-56 0 -94.333 34 -115 102l-2 29c0 62 30.333 104.667 91 128zM2915 -38h3.99902c36 0 62 -20 78 -60c4.66699 -16.667 7 -44 7 -82v-111h-54v138c0 32 -11.667 51 -35 57h-11c-25.333 0 -39.666 -19 -42.999 -57v-138h-54v245h50
v-21c16.667 19.333 36 29 58 29zM3508 -38h6c26.667 0 50 -13.333 70 -40h2v32h47v-245h-47v31h-2c-22.667 -26.667 -48.667 -40 -78 -40c-47.333 0 -81 30 -101 90l-4 37v12c0 54.667 25.667 93.667 77 117c7.33301 4 17.333 6 30 6zM3781 -38h4
c41.333 0 68.666 -26 82 -78l3 -84v-91h-54v138c0 32 -12.667 51 -38 57h-9c-25.333 0 -39.333 -17.333 -42 -52v-143h-54v245h49v-21c17.333 19.333 37 29 59 29zM4133 -38h1c49.334 0 84 -31 104 -93l4 -40c0 -58.667 -28 -100.667 -84 -126l-25 -3
c-27.333 0 -50 11.333 -68 34v-106h-52v326h47v-29c20 24.667 44.334 37 73 37zM4714 -38h5c22.666 0 43.666 -12.333 63 -37c18 24.667 41 37 69 37h6c37.334 0 63.667 -22 79 -66l6 -51v-136h-52v122c0 48.667 -13 73 -39 73h-7c-23.334 0 -37 -16.667 -41 -50v-140l-5 -5
h-48v140c0 28 -10.334 46.333 -31 55h-17c-26.666 0 -40 -25.667 -40 -77v-118h-51v245h47v-21c14.666 19.333 33.333 29 56 29zM359 -46h49l5 -6v-234l-5 -5h-49v245zM1297 -46h52v-245h-52v245zM1649 -46h52v-136c2.66699 -40 17 -60 43 -60h4c29.333 0 44 27 44 81v115
h52v-245h-47v24h-5c-8 -22 -27.667 -33 -59 -33c-34.667 0 -61 21 -79 63c-3.33301 8 -5 19.333 -5 34v157zM2458 -46h51v-245h-51v245zM4515 -46h51v-245h-51v245zM1077 -169c0 -35.333 16.999 -59.666 50.999 -72.999h12c36 0 58 22 66 66v10
c0 35.333 -18 58.666 -54 69.999h-17c-25.333 0 -44.666 -19 -57.999 -57v-16zM1438 -143h122.001c-12 31.333 -29.667 47 -53 47h-7c-28.667 0 -49.334 -14.667 -62.001 -44v-3zM2599 -143h122c-14 31.333 -32 47 -54 47h-7c-30.667 0 -51 -15.667 -61 -47zM3196 -158v-11
c6.66699 -48.667 27 -73 61 -73h5c42.667 5.33301 64 29 64 71v5c0 30 -12.667 51.667 -38 65l-18 5h-14c-40 -9.33301 -60 -30 -60 -62zM3452 -173c9.33301 -46 30 -69 62 -69h11c27.333 0 47 20 59 60v13c-5.33301 48.667 -24 73 -56 73h-17
c-31.333 0 -51 -24.333 -59 -73v-4zM4062 -158v-22c0 -31.333 19.667 -52 59 -62h9c33.334 0 53.667 25.333 61 76c-8.66602 46.667 -28 70 -58 70h-15c-37.333 -11.333 -56 -32 -56 -62z" />
    <glyph glyph-name="space" unicode=" " horiz-adv-x="358" 
 />
    <glyph glyph-name="exclam" unicode="!" horiz-adv-x="487" 
d="M864 1294c-4 -36.667 -23.334 -85.668 -58.001 -147.001l-135 -250c-6.66699 -9.33301 -17.667 -29 -33 -59l-84 -160c-77.333 -150 -136 -273.667 -176 -371l-6 -14l-39 10l6 14c48 119.333 91.667 241 131 365l43 141c6 16.667 14.333 45.334 25 86.001l78 273
c39.333 144.667 95.333 217 168 217c62.667 0 89.334 -35 80.001 -105zM381.999 114.999c-5.33301 -41.333 -21.332 -76.666 -47.999 -105.999s-56.334 -44 -89.001 -44c-30 0 -52.833 10.667 -68.5 32s-21.5 48.333 -17.5 81c4 39.333 19.667 73.666 47 102.999
s57.333 44 90 44c30 0 53 -10.167 69 -30.5s21.667 -46.833 17 -79.5z" />
    <glyph glyph-name="quotedbl" unicode="&#x22;" horiz-adv-x="563" 
d="M893 1264c0 -60 -27.333 -131.999 -82 -215.999s-122.334 -159 -203.001 -225l-25 29c128.667 113.333 210 223.333 244 330c-20.667 -26 -46 -39 -76 -39c-27.333 0 -49.833 10.167 -67.5 30.5s-26.5 46.166 -26.5 77.499c0 40 12.333 75 37 105s54 45 88 45
c32.667 0 59.334 -12.667 80.001 -38s31 -58.333 31 -99zM622 1264c0 -60 -27.334 -132 -82.001 -216s-122 -159 -202 -225l-25 29c128.667 113.333 210 223.333 244 330c-20.667 -26 -46 -39 -76 -39c-61.333 0 -92 36 -92 108c0 40 12.333 75 37 105s53.334 45 86.001 45
c73.333 0 110 -45.667 110 -137z" />
    <glyph glyph-name="numbersign" unicode="#" horiz-adv-x="786" 
d="M1181 1143l-39 -80h-211l-90 -189h213l-35 -77h-213l-127 -267h-49l127 267h-238l-125 -267h-51l127 267h-219l35 77h219l90 189h-219l39 80h219l119 243h49l-117 -243h236l118 243h50l-119 -243h211zM882 1063h-236l-90 -189h236z" />
    <glyph glyph-name="dollar" unicode="$" horiz-adv-x="1021" 
d="M1349 1339l-193 -516.003c-4 -8 -9.33301 -12 -16 -12c-13.333 0 -18 6.66699 -14 20c14.667 48 23.334 92 26.001 132c12.667 136 -14 232.667 -80 290l-182 -485c18 -9.33301 44 -23.666 78 -42.999c121.333 -75.333 176.666 -179.666 165.999 -312.999
c-9.33301 -110.667 -59.166 -207 -149.499 -289s-192.166 -123 -305.499 -123c-20 0 -39.667 0.666992 -59 2l-10 2l-95 -254h-47l99 262c-42.667 11.333 -77 25 -103 41l-112 -303h-48l121 328l-67 69c-24.667 24.667 -45.334 37 -62.001 37c-27.333 0 -54 -20.333 -80 -61
c-4 -6.66699 -23.667 -43.667 -59 -111c-4 -9.33301 -10 -14 -18 -14c-16.667 0 -21.667 9 -15 27l236 639c4 8 10 12 18 12c15.333 0 21 -7.66699 17 -23c-22 -86 -35 -148.667 -39 -188c-1.33301 -18 -2 -35.667 -2 -53c0 -117.333 31.333 -211 94 -281l203 553
c-135.333 74 -197 178.333 -185 313c8.66699 104 52.167 191.5 130.5 262.5s170.833 106.5 277.5 106.5h28l70 180h45l-72 -186c37.333 -8 72.333 -20.333 105 -37l86 223h45l-92 -248c1.33301 -1.33301 22.333 -19 63 -53c22 -17.333 37.667 -26 47 -26
c22 0 44.667 16.333 68 49c4 6.66699 19.667 35.334 47 86.001c5.33301 6.66699 11.666 10 18.999 10c16 0 21.333 -8.33301 16 -25zM1036 1282c-24.667 18 -59 32.333 -103 43l-176 -481l8 -6l88 -50zM888 1331l-14.001 -0.000976562
c-79.333 0 -146.666 -22.833 -201.999 -68.5s-86.333 -104.167 -93 -175.5c-6.66699 -91.333 39 -165.666 137 -222.999zM998.999 318.996c9.33301 112 -48.667 200.333 -174 265l-201 -543c20.667 -2.66699 39.667 -4 57 -4c83.333 0 155.333 27 216 81s94.667 121 102 201
zM785.999 605.996l-10 7.99902l-23 13l-64 35l-208 -564l6 -6c27.333 -17.333 58 -31.666 92 -42.999z" />
    <glyph glyph-name="percent" unicode="%" horiz-adv-x="1615" 
d="M1614 506c-10 -134 -62.334 -255.166 -157.001 -363.499s-196 -162.5 -304 -162.5c-60 0 -109.833 29.667 -149.5 89s-56.167 129.333 -49.5 210c10 133.333 62.333 253.666 157 360.999s195.334 161 302.001 161c68.667 0 121 -28 157 -84s50.667 -126.333 44 -211z
M1270 1366l-596 -1366h-53l593 1366h56zM968.999 1104c-10 -134 -62.333 -255.166 -157 -363.499s-196 -162.5 -304 -162.5c-60 0 -109.833 29.667 -149.5 89s-56.167 129.333 -49.5 210c10 133.333 62.333 253.666 157 360.999s195.334 161 302.001 161
c68 0 120.167 -28 156.5 -84s51.166 -126.333 44.499 -211zM1497 625.002c8 99.333 -22 149 -90 149c-53.333 0 -108.666 -46.333 -165.999 -139c-43.333 -72.667 -81.833 -155 -115.5 -247s-53.167 -170 -58.5 -234c-8 -97.333 23.333 -146 94 -146
c57.333 0 114 45 170 135c97.333 156 152.666 316.667 165.999 482zM851.999 1223c8 99.333 -22.002 148.999 -90.002 148.999c-53.333 0 -108.666 -46.333 -165.999 -139c-44 -72.667 -82.667 -155 -116 -247s-52.666 -170 -57.999 -234c-8 -97.333 23.333 -146 94 -146
c57.333 0 114 45 170 135c96.667 154.667 152 315.334 166 482.001z" />
    <glyph glyph-name="ampersand" unicode="&#x26;" horiz-adv-x="1245" 
d="M1515 721c-5.33301 -39.333 -21.6689 -73.502 -49.002 -102.502s-57.333 -43.5 -90 -43.5c-26 0 -46.833 9 -62.5 27s-21.5 40.667 -17.5 68c6.66699 57.333 37.334 92 92.001 104c20.667 4 32.334 13.667 35.001 29c2.66699 26 -16.666 39 -57.999 39
c-48.667 0 -98.334 -29 -149.001 -87s-115.667 -145.667 -195 -263c-35.333 -53.333 -92 -132 -170 -236l-12 -14c10.667 -134 66 -201 166 -201c79.333 0 156.333 45.667 231 137c58.667 71.333 104.334 136.333 137.001 195l31 -15l-8 -12
c-157.333 -254 -309 -381 -455 -381c-100.667 0 -174.334 50.667 -221.001 152c-108 -101.333 -216.333 -152 -325 -152c-80.667 0 -147.334 28.667 -200.001 86s-79 128.333 -79 213c0 228 188.333 418.667 565 572l15 6l2 14c20 168 69 300.5 147 397.5
s171 145.5 279 145.5c64 0 114 -19.167 150 -57.5s50 -87.5 42 -147.5c-10.667 -94 -81.667 -176 -213 -246c-75.333 -40.667 -155 -74.667 -239 -102c-2 -18 -5.66699 -53.667 -11 -107c-5.33301 -65.333 -11.333 -154.666 -18 -267.999c-4 -68 -4 -128 0 -180
c16 20.667 38.333 51.334 67 92.001l185 268c32.667 48 66 89.667 100 125c66.667 68.667 132.334 103 197.001 103c44.667 0 79 -14.333 103 -43s33.333 -67 28 -115zM1218 1200c6.66699 48 -0.165039 87.667 -20.498 119s-49.833 47 -88.5 47
c-122.667 0 -202.334 -152.333 -239.001 -457l-2 -22l16 6c61.333 22 109.666 41.667 144.999 59c113.333 57.333 176.333 140 189 248zM699.998 151.998c-22 58.667 -34.334 127.335 -37.001 206.002c0 19.333 0.333008 50.5 1 93.5s6.33398 125.833 17.001 248.5
c2.66699 33.333 4.66699 56.666 6 69.999l2 27c-219.333 -72.667 -344 -230.334 -374 -473.001c-2.66699 -18 -4 -36 -4 -54c0 -68 16 -123.5 48 -166.5s74.667 -64.5 128 -64.5c73.333 0 144.333 37.667 213 113z" />
    <glyph glyph-name="quotesingle" unicode="'" horiz-adv-x="309" 
d="M431 1264c0 -60 -27.334 -132 -82.001 -216s-122 -159 -202 -225l-25 29c128.667 113.333 210 223.333 244 330c-20.667 -26 -46 -39 -76 -39c-61.333 0 -92 36 -92 108c0 40 12.333 75 37 105s53.334 45 86.001 45c73.333 0 110 -45.667 110 -137z" />
    <glyph glyph-name="parenleft" unicode="(" horiz-adv-x="503" 
d="M1167 1571l-13.999 -33.002h-15c-83.333 0 -172 -45 -266 -135c-68 -65.333 -132.667 -157.666 -194 -276.999c-71.333 -138.667 -140.333 -288.667 -207 -450c-15.333 -38.667 -40 -104.334 -74 -197.001c-87.333 -233.333 -131 -393.666 -131 -480.999
c0 -127.333 53.333 -191 160 -191h20l-16 -34h-17c-78.667 0 -143.334 37.5 -194.001 112.5s-76 170.5 -76 286.5c0 140.667 36.333 298.334 109 473.001c61.333 151.333 139 294 233 428c108 153.333 221.667 275 341 365s227 135 323 135
c2.66699 0 8.66699 -0.666992 18 -2z" />
    <glyph glyph-name="parenright" unicode=")" horiz-adv-x="585" 
d="M535 293c-109.333 -153.333 -223.333 -274.999 -342 -364.999s-226 -135 -322 -135h-18l14 35h15c82 0 170 45 264 135c68 64 132.667 156.333 194 277c82 159.333 151.667 309.333 209 450l74 195c87.333 232 131 393 131 483c0 127.333 -53.333 191 -160 191
c-8 0 -14.667 -1 -20 -3l16 37h15c80 0 145.333 -37.5 196 -112.5s76 -170.5 76 -286.5c0 -140.667 -36.333 -298.334 -109 -473.001c-61.333 -151.333 -139 -294 -233 -428z" />
    <glyph glyph-name="asterisk" unicode="*" horiz-adv-x="651" 
d="M630 1069c-2.66699 -38 -27.6689 -56.999 -75.002 -56.999c-10 0 -24.5 1.33301 -43.5 4s-33.167 4 -42.5 4c-18 0 -38.667 -2 -62 -6c-14.667 -1.33301 -29.667 -7.66602 -45 -18.999c-1.33301 -6.66699 6.33398 -15.334 23.001 -26.001
c22.667 -27.333 52.667 -48.666 90 -63.999c50 -22 74.333 -48 73 -78c-1.33301 -35.333 -21.666 -53 -60.999 -53c-30 0 -53.333 26.667 -70 80c-12 39.333 -28.333 69.333 -49 90s-32.334 31 -35.001 31c-4 0 -10 -13 -18 -39c-5.33301 -12 -10 -32.667 -14 -62
c1.33301 -18.667 2 -46.334 2 -83.001c-6 -49.333 -26.667 -74 -62 -74c-36.667 0 -53.667 19 -51 57c0 18 13.667 42.667 41 74c44 49.333 66.667 93.666 68 132.999c0 2.66699 -0.666992 4 -2 4c-8.66699 2.66699 -21.667 1.33398 -39 -3.99902
c-37.333 -8 -72.666 -25 -105.999 -51s-59.666 -39 -78.999 -39c-36.667 0 -54.334 19 -53.001 57c1.33301 38.667 26 58 74 58c10.667 0 25.667 -1.5 45 -4.5s33.666 -4.5 42.999 -4.5c16 0 35.667 2.33301 59 7c16.667 1.33301 32.334 6.66602 47.001 15.999
c0 9.33301 -7.33301 19 -22 29c-19.333 18.667 -33 31.334 -41 38.001c-14 10 -31 18.333 -51 25c-50.667 20.667 -74.667 46.667 -72 78c1.33301 35.333 21 53 59 53c31.333 0 55.333 -26.667 72 -80c12 -39.333 27.667 -69.333 47 -90s31 -31 35 -31
c6.66699 0 14.167 14 22.5 42s12.5 47.667 12.5 59c0 9.33301 -0.666992 23.666 -2 42.999c-1.33301 20.667 -1.33301 35.667 0 45c1.33301 46 21.666 69 60.999 69c35.333 0 52.333 -19 51 -57c-1.33301 -19.333 -15 -43.333 -41 -72s-44.333 -58 -55 -88
c-4 -12 -8 -28.333 -12 -49c0 -2.66699 2 -4 6 -4c5.33301 0 16.333 2 33 6c39.333 10 75.333 27.5 108 52.5s58.667 37.5 78 37.5c36.667 0 54.334 -19 53.001 -57z" />
    <glyph glyph-name="plus" unicode="+" horiz-adv-x="1011" 
d="M806 561h-270v-266h-62v266h-270v62h270v266h62v-266h270v-62z" />
    <glyph glyph-name="comma" unicode="," horiz-adv-x="270" 
d="M209 106c0 -60 -27.335 -132.333 -82.002 -217s-122.667 -159.667 -204 -225l-25 31c126.667 110.667 208 220.667 244 330c-19.333 -27.333 -44.666 -41 -75.999 -41c-27.333 0 -49.5 10.167 -66.5 30.5s-25.5 46.833 -25.5 79.5c0 40 12.333 74.667 37 104
s53.334 44 86.001 44c34 0 61.167 -12.667 81.5 -38s30.5 -58 30.5 -98z" />
    <glyph glyph-name="hyphen" unicode="-" horiz-adv-x="548" 
d="M548 653l-36 -131h-451l37 131h450z" />
    <glyph glyph-name="hyphen" unicode="&#x2010;" horiz-adv-x="548" 
d="M548 653l-36 -131h-451l37 131h450z" />
    <glyph glyph-name="period" unicode="." horiz-adv-x="260" 
d="M199 133c0 -40.667 -11.5 -75.666 -34.5 -104.999s-51.167 -44 -84.5 -44c-30 0 -54.167 10.5 -72.5 31.5s-27.5 47.833 -27.5 80.5c0 40 12 74.667 36 104s52.333 44 85 44c28.667 0 52.167 -10.333 70.5 -31s27.5 -47.334 27.5 -80.001z" />
    <glyph glyph-name="slash" unicode="/" horiz-adv-x="919" 
d="M899 1583l-778 -1802h-70l778 1802h70z" />
    <glyph glyph-name="zero" unicode="0" horiz-adv-x="872" 
d="M796 129c-110.667 -109.333 -217.667 -163.999 -321 -163.999c-86 0 -156 40.333 -210 121s-81 184.334 -81 311.001c0 143.333 32.667 289.666 98 438.999c61.333 140.667 144 266 248 376c117.333 124.667 242.333 187 375 187c73.333 0 133.333 -42.333 180 -127
c42.667 -80.667 64 -182.334 64 -305.001c0 -143.333 -33.167 -293.5 -99.5 -450.5s-150.833 -286.167 -253.5 -387.5zM1001 1204c0 106.667 -34.001 160 -102.001 160c-61.333 0 -125.666 -36.333 -192.999 -109c-70.667 -76 -133.334 -183.667 -188.001 -323
c-120 -308.667 -180 -549.667 -180 -723c0 -138 47 -207 141 -207c114.667 0 230.334 151.833 347.001 455.5s175 552.5 175 746.5z" />
    <glyph glyph-name="one" unicode="1" horiz-adv-x="727" 
d="M992 1405l-499 -1370h204c11.333 0 17 -5.66699 17 -17c0 -12 -7.66699 -18 -23 -18h-598c-8 -0 -12 5.33301 -12 16c0 12.667 9 19 27 19h200l402 1098c-100 -67.333 -219 -101 -357 -101c-8 0 -12 5.66699 -12 17c0 13.333 7 20 21 20c112 2.66699 208.667 28 290 76
c106.667 60 188 146.667 244 260h96z" />
    <glyph glyph-name="two" unicode="2" horiz-adv-x="946" 
d="M1179 1018c-5.33301 -74 -27.6611 -140.332 -66.9941 -198.999c-52 -74.667 -160 -157.334 -324 -248.001l-195 -108c-76 -44 -144 -90.5 -204 -139.5s-109.333 -100.833 -148 -155.5c49.333 5.33301 121.666 8 216.999 8h80c38.667 -1.33301 77.667 -2 117 -2h70
c64 0 106.167 6.5 126.5 19.5s40.166 44.833 59.499 95.5l68 180h47c-2.66699 -5.33301 -4.83398 -10 -6.50098 -14s-21.5 -57.333 -59.5 -160l-68 -186l-45 -136l-20 9c-36.667 16 -155.334 24 -356.001 24c-178 0 -299.667 -6.66699 -365 -20
c-9.33301 -2.66699 -24.333 -7.66699 -45 -15c26 75.333 75 155.333 147 240c20.667 23.333 48 51.333 82 84c60 56 167.333 134.333 322 235c66.667 42.667 118 79 154 109c137.333 116 213 260.667 227 434c6.66699 87.333 -10.5 156.333 -51.5 207s-99.5 76 -175.5 76
c-74 0 -140.667 -23.667 -200 -71s-91.666 -102.333 -96.999 -165c-3.33301 -40.667 11.667 -61 45 -61h4l37 4h8c31.333 0 56.5 -9.83301 75.5 -29.5s27.167 -45.5 24.5 -77.5c-2.66699 -32.667 -17.334 -60.167 -44.001 -82.5s-58.334 -33.5 -95.001 -33.5
c-46.667 0 -83.334 18 -110.001 54s-38 83.333 -34 142c8.66699 104 52.5 190.5 131.5 259.5s174.5 103.5 286.5 103.5c116 0 210.5 -36.5 283.5 -109.5s105.5 -163.5 97.5 -271.5z" />
    <glyph glyph-name="three" unicode="3" horiz-adv-x="892" 
d="M1149 1067c-8.66699 -92.667 -51.1592 -170.499 -127.492 -233.499s-173.833 -99.167 -292.5 -108.5c48 -10.667 85.667 -24.334 113 -41.001c46 -28.667 82.333 -69 109 -121s38 -103.667 34 -155c-8 -116.667 -66.333 -219.667 -175 -309s-229.334 -134 -362.001 -134
c-104.667 0 -189.834 27.333 -255.501 82s-95.834 123.667 -90.501 207c5.33301 54.667 25.166 101.167 59.499 139.5s73.166 57.5 116.499 57.5c34.667 0 61.834 -10.667 81.501 -32s28.167 -47.666 25.5 -78.999c-2.66699 -32.667 -16 -60.667 -40 -84
s-52.333 -35 -85 -35h-27c-31.333 0 -48.333 -15.667 -51 -47c-2.66699 -42 20.833 -79.833 70.5 -113.5s106.834 -50.5 171.501 -50.5c88.667 0 161 29.333 217 88c42 45.333 79.167 106.5 111.5 183.5s51.166 150.5 56.499 220.5c10.667 139.333 -67.333 209 -234 209
c-31.333 0 -53.666 -1.33301 -66.999 -4l-43 -9c-14 -2.66699 -28.333 -4 -43 -4c-38.667 0 -56.667 13 -54 39c3.33301 31.333 25.333 47 66 47c9.33301 0 23 -2 41 -6c65.333 -14.667 117.333 -22 156 -22c87.333 0 157.666 24.333 210.999 73
c81.333 74 126.333 169 135 285c13.333 166.667 -54.334 250 -203.001 250c-56 0 -106.833 -14.333 -152.5 -43s-69.834 -60.667 -72.501 -96c-1.33301 -16.667 7.33398 -28.334 26.001 -35.001l27 -8c49.333 -15.333 71.666 -48.333 66.999 -99
c-2.66699 -30 -15.834 -54.833 -39.501 -74.5s-51.834 -29.5 -84.501 -29.5c-40 0 -72.333 14.333 -97 43s-34.667 64 -30 106c5.33301 74 45.5 138.333 120.5 193s159.5 82 253.5 82c106.667 0 194.5 -32.167 263.5 -96.5s100.167 -142.833 93.5 -235.5z" />
    <glyph glyph-name="four" unicode="4" horiz-adv-x="870" 
d="M1126 1386l-345.999 -952h235l-28 -76h-236l-117 -323h220c9.33301 0 14 -5 14 -15c0 -13.333 -7.66699 -20 -23 -20h-622c-8 0 -12 4.66699 -12 14c0 14 7.33301 21 22 21h221l119 323h-512l12 39c57.333 28.667 152.333 110.667 285 246
c152.667 154 279 289.333 379 406l190 231c19.333 22 46.666 57.333 81.999 106h117zM854.001 1126c-28.667 -36.667 -61.833 -76.167 -99.5 -118.5l-212.5 -231.5c-128 -135.333 -238.333 -246 -331 -332l-11 -10h400z" />
    <glyph glyph-name="five" unicode="5" horiz-adv-x="759" 
d="M1107 1405c-23.333 -87.333 -70.167 -157.667 -140.5 -211s-151.833 -80 -244.5 -80c-86 0 -156.333 18.333 -211 55c-21.333 -86 -45 -163 -71 -231c-19.333 -54.667 -33.666 -92.334 -42.999 -113.001c-15.333 -32.667 -32.666 -64.667 -51.999 -96
c26 35.333 50 63.333 72 84c68 64 149.333 96 244 96c94 0 171.667 -34.5 233 -103.5s88.666 -152.5 81.999 -250.5c-12 -154 -80.167 -290.833 -204.5 -410.5s-260.166 -179.5 -407.499 -179.5c-83.333 0 -152.666 29 -207.999 87s-80.333 127.333 -75 208
c4 52 21 94.667 51 128s66.333 50 109 50c32.667 0 58.5 -10.167 77.5 -30.5s27.167 -46.166 24.5 -77.499s-15.834 -58.333 -39.501 -81s-51.5 -34 -83.5 -34h-26c-28.667 0 -44.334 -13 -47.001 -39c-2.66699 -43.333 18.833 -82.5 64.5 -117.5s99.167 -52.5 160.5 -52.5
c109.333 0 198 52.667 266 158c42.667 66.667 80.334 147.5 113.001 242.5s51.667 182.833 57 263.5c11.333 134.667 -46.667 202 -174 202c-64 0 -127 -25.833 -189 -77.5s-104.667 -113.834 -128 -186.501c-10 -28.667 -25.667 -43 -47 -43c-23.333 0 -34.333 11 -33 33
c1.33301 9.33301 6.66602 20.333 15.999 33l17 22c22.667 34.667 50.667 89.334 84 164.001c38 90 73 190 105 300s50 193 54 249l15 8c95.333 -57.333 195.666 -86 300.999 -86c108 0 200.667 39 278 117z" />
    <glyph glyph-name="six" unicode="6" horiz-adv-x="901" 
d="M1187 1145c-4 -42.667 -20.666 -79.3311 -49.999 -109.998s-63.333 -46 -102 -46c-32.667 0 -58.834 10.667 -78.501 32s-28.167 47 -25.5 77c4 47.333 28.667 80.666 74 99.999l28 12c26 11.333 39.667 28.666 41 51.999c2.66699 27.333 -10 50.833 -38 70.5
s-61 29.5 -99 29.5c-108 0 -203 -65.667 -285 -197c-90 -146 -159.333 -318.667 -208 -518c86 160 195 240 327 240c82 0 148 -32.5 198 -97.5s71.333 -145.833 64 -242.5c-12 -152 -74 -287 -186 -405s-233.667 -177 -365 -177c-84 0 -151 34.167 -201 102.5
s-75 159.833 -75 274.5c0 118.667 25.333 249.667 76 393c49.333 135.333 110.666 255 183.999 359c144.667 203.333 301 305 469 305c74 0 135.833 -25.333 185.5 -76s71.834 -110 66.501 -178zM878.001 647.003c9.33301 130 -33.668 195 -129.001 195
c-91.333 0 -177.666 -63.167 -258.999 -189.5s-129 -270.833 -143 -433.5c-5.33301 -66.667 4 -119.5 28 -158.5s59.667 -58.5 107 -58.5c76.667 0 147.667 49.333 213 148c108 158 169 323.667 183 497z" />
    <glyph glyph-name="seven" unicode="7" horiz-adv-x="704" 
d="M1154 1393c-40.667 -86 -87.6689 -169 -141.002 -249s-125 -179.333 -215 -298l-131 -170c-110.667 -144.667 -181 -299 -211 -463l-10 -61c-22 -124.667 -71.333 -187 -148 -187c-68 0 -99.333 39 -94 117c12.667 144.667 149.334 358.334 410.001 641.001l147 160
c94.667 102 170 198 226 288c-27.333 -5.33301 -74.666 -8 -141.999 -8h-338c-68 0 -115 -33.333 -141 -100l-59 -156h-45c38 93.333 93 243.666 165 450.999l7 18c4 -1.33301 11 -3.33301 21 -6s112 -4 306 -4h293c32.667 0 66 9 100 27z" />
    <glyph glyph-name="eight" unicode="8" horiz-adv-x="894" 
d="M1192 1094c-14 -169.333 -141.668 -290.335 -383.001 -363.002c139.333 -90 204 -200 194 -330c-9.33301 -113.333 -66.833 -214.333 -172.5 -303s-222.834 -133 -351.501 -133c-116 0 -209.5 32.833 -280.5 98.5s-102.5 148.167 -94.5 247.5c14 176 144.333 305 391 387
c-100.667 76.667 -147.667 164.334 -141 263.001c9.33301 118.667 62.833 221.334 160.5 308.001s208.834 130 333.501 130c104.667 0 189.834 -29 255.501 -87s95.167 -130.667 88.5 -218zM1057 1110c5.33301 75.333 -13.166 136.501 -55.499 183.501
s-99.833 70.5 -172.5 70.5c-80.667 0 -152 -27.333 -214 -82s-96.333 -120.334 -103 -197.001c-2.66699 -43.333 4.66602 -83.333 21.999 -120c14 -30 38.667 -61 74 -93l154 -110l12 -8h2c2.66699 1.33301 8.66699 4 18 8c68.667 24.667 128.167 70.667 178.5 138
s78.5 137.333 84.5 210zM848 288.999c10.667 143.333 -92.667 270.999 -310 382.999l-6 4c-174.667 -54.667 -270 -185 -286 -391c-7.33301 -88.667 11.167 -157.667 55.5 -207s110.5 -74 198.5 -74c91.333 0 170.333 27.333 237 82s103.667 122.334 111 203.001z" />
    <glyph glyph-name="nine" unicode="9" horiz-adv-x="827" 
d="M843 272c-144.667 -204.667 -300.999 -307.002 -468.999 -307.002c-73.333 0 -135 25.667 -185 77s-72.333 111 -67 179c4 42.667 20.667 79.334 50 110.001s63.333 46 102 46c31.333 0 56.833 -10.667 76.5 -32s28.167 -47.666 25.5 -78.999
c-2.66699 -42 -27.334 -74.667 -74.001 -98l-26 -14c-26 -11.333 -39.667 -28 -41 -50c-2.66699 -27.333 9.66602 -51.166 36.999 -71.499s60.666 -30.5 99.999 -30.5c108 0 202.333 65.667 283 197c90 143.333 160.333 316 211 518c-86 -158.667 -195.333 -238 -328 -238
c-82 0 -147.833 32.5 -197.5 97.5s-71.167 145.833 -64.5 242.5c12 150 74 284.167 186 402.5s233.667 177.5 365 177.5c84.667 0 151.834 -33.833 201.501 -101.5s74.5 -158.834 74.5 -273.501c0 -120 -25.333 -251 -76 -393c-47.333 -134 -108.666 -253.667 -183.999 -359
zM962.001 1147c5.33301 66.667 -4.00098 119.501 -28.001 158.501s-59.667 58.5 -107 58.5c-76.667 0 -147.667 -49 -213 -147c-108 -158.667 -169 -325.334 -183 -500.001c-9.33301 -130 33.667 -195 129 -195c92 0 178.833 63.5 260.5 190.5
s128.834 271.833 141.501 434.5z" />
    <glyph glyph-name="colon" unicode=":" horiz-adv-x="462" 
d="M402 825c0 -40.667 -12 -75.667 -36 -105s-52.333 -44 -85 -44c-28.667 0 -52.167 10.167 -70.5 30.5s-27.5 47.5 -27.5 81.5c0 38.667 11.833 72.667 35.5 102s51.5 44 83.5 44c28.667 0 52.5 -10.333 71.5 -31s28.5 -46.667 28.5 -78zM199 121
c0 -41.333 -11.5 -76.666 -34.5 -105.999s-51.167 -44 -84.5 -44c-30 0 -54.167 10.667 -72.5 32s-27.5 48.333 -27.5 81c0 39.333 12 73.666 36 102.999s52.333 44 85 44c28.667 0 52.167 -10.167 70.5 -30.5s27.5 -46.833 27.5 -79.5z" />
    <glyph glyph-name="semicolon" unicode=";" horiz-adv-x="458" 
d="M398 825c0 -40.667 -12 -75.667 -36 -105s-52.333 -44 -85 -44c-28.667 0 -52.167 10.167 -70.5 30.5s-27.5 47.5 -27.5 81.5c0 38.667 11.833 72.667 35.5 102s51.167 44 82.5 44c28.667 0 52.667 -10.333 72 -31s29 -46.667 29 -78zM207 94
c0 -60 -27.334 -132.332 -82.001 -216.999s-122 -159.667 -202 -225l-25 31c128.667 113.333 210 223 244 329c-20.667 -27.333 -46 -41 -76 -41c-61.333 0 -92 37 -92 111c0 39.333 11.833 73.666 35.5 102.999s52.834 44 87.501 44c32.667 0 59.167 -12.5 79.5 -37.5
s30.5 -57.5 30.5 -97.5z" />
    <glyph glyph-name="less" unicode="&#x3c;" horiz-adv-x="493" 
d="M442 922c-6.66699 -12.667 -16.999 -30 -30.999 -52l-84 -125c-34 -46 -69.333 -88.333 -106 -127c46.667 -84 82 -177.333 106 -280c8.66699 -32.667 13 -55.334 13 -68.001c0 -10.667 -6.33301 -16 -19 -16c-10.667 0 -21.334 15 -32.001 45
c-54.667 151.333 -134 257 -238 317c61.333 34.667 124.666 83.334 189.999 146.001l170 170c8.66699 6.66699 16.334 10 23.001 10c12 0 14.667 -6.66699 8 -20z" />
    <glyph glyph-name="equal" unicode="=" horiz-adv-x="1011" 
d="M806 616h-602v62h602v-62zM806 489h-602v62h602v-62z" />
    <glyph glyph-name="greater" unicode="&#x3e;" horiz-adv-x="466" 
d="M416 606c-117.333 -56 -220.001 -158.332 -308.001 -306.999c-17.333 -28.667 -31.666 -43 -42.999 -43c-12 1.33301 -16.667 6.66602 -14 15.999c2.66699 14 11.667 37.333 27 70c46 101.333 102 192.666 168 273.999c-42.667 59.333 -88 147 -136 263
c-9.33301 21.333 -16 39 -20 53c1.33301 5.33301 5.33301 11.333 12 18c10 0 19.667 -8 29 -24c26 -45.333 65 -98.666 117 -159.999c61.333 -72.667 117.333 -126 168 -160z" />
    <glyph glyph-name="question" unicode="?" horiz-adv-x="829" 
d="M548 756l-159.997 -93.998c-102 -62 -157.667 -131.667 -167 -209c-8.66699 -66 14.333 -99 69 -99c41.333 0 81.666 25 120.999 75s69.333 112.333 90 187c2.66699 11.333 9.66699 17 21 17c13.333 0 18 -8.33301 14 -25c-20.667 -87.333 -54.834 -158 -102.501 -212
s-98.167 -81 -151.5 -81c-38 0 -67 13 -87 39s-27.333 61 -22 105c8.66699 68 51 139 127 213l74 71c172 165.333 267 319.666 285 462.999c12 98.667 -20.667 148 -98 148c-37.333 0 -75 -11 -113 -33c-65.333 -35.333 -121 -84.5 -167 -147.5s-72.333 -125.833 -79 -188.5
c-8 -68 14.667 -102 68 -102c52 0 101.833 32.333 149.5 97s81.167 145.667 100.5 243c2.66699 10.667 8.66699 16 18 16c13.333 0 18.666 -7.33301 15.999 -22c-22.667 -110.667 -61 -200.167 -115 -268.5s-113 -102.5 -177 -102.5c-82 0 -117 46.333 -105 139
c14 109.333 72.667 210.333 176 303c82 74 170 111 264 111c70 0 126.167 -22.5 168.5 -67.5s63.5 -103.167 63.5 -174.5c0 -156.667 -93.667 -290.334 -281 -401.001zM255.003 115.002c-5.33301 -41.333 -21.665 -76.666 -48.998 -105.999s-57.333 -44 -90 -44
c-28.667 0 -50.834 10.667 -66.501 32s-21.5 48.333 -17.5 81c4 39.333 19.667 73.666 47 102.999s56.666 44 87.999 44c30 0 53.333 -10.167 70 -30.5s22.667 -46.833 18 -79.5z" />
    <glyph glyph-name="at" unicode="@" horiz-adv-x="1624" 
d="M1085 309c-49.333 0 -86.665 17.502 -111.998 52.502s-35 83.167 -29 144.5c-92 -132.667 -185.667 -199 -281 -199c-46.667 0 -87 15.667 -121 47c-46 45.333 -65 114.333 -57 207c8 97.333 55.667 200.333 143 309c97.333 120.667 195.666 181 294.999 181
c86 0 131.667 -49.333 137 -148l19 49c1.33301 2.66699 9.33301 28 24 76h131l-184 -530c-6.66699 -22 -10 -42.667 -10 -62c0 -52 27.333 -78 82 -78c87.333 1.33301 163 50 227 146c57.333 86 90.666 184.333 99.999 295c12.667 133.333 -31.666 254 -132.999 362
c-110.667 120 -258 180 -442 180c-187.333 0 -343 -60.667 -467 -182c-132.667 -130.667 -199 -306 -199 -526c0 -164 48.667 -301.333 146 -412c106 -122.667 250 -183.334 432 -182.001c164 1.33301 309.333 32.666 436 93.999l10 -31
c-148.667 -80 -298.667 -120.667 -450 -122c-246 -3.33301 -433 69.667 -561 219c-102.667 120 -154 264.667 -154 434c0 207.333 77.5 387.166 232.5 539.499s348.5 228.5 580.5 228.5c177.333 0 325.166 -51.5 443.499 -154.5s177.5 -233.833 177.5 -392.5
c0 -132.667 -35.667 -252 -107 -358c-80.667 -123.333 -183.667 -185.666 -309 -186.999zM1036 862.002c6.66699 86 -23.332 129 -89.999 129c-60.667 0 -126.334 -39.667 -197.001 -119c-79.333 -90 -124.333 -194.333 -135 -313c-5.33301 -62.667 2.5 -109.667 23.5 -141
s50.5 -47 88.5 -47c63.333 0 128 52.5 194 157.5s104.667 216.167 116 333.5z" />
    <glyph glyph-name="A" unicode="A" 
d="M2222 1395c-280 -234 -464.333 -686.668 -553 -1358h160c16 0 24 -6.33301 24 -19c0 -12 -7.33301 -18 -22 -18h-537c-12 0 -18 5.33301 -18 16c0 14 8.66699 21 26 21h168c40 220 92.667 420 158 600h-277c-214 -483.333 -492.333 -725 -835 -725
c-134 0 -245 43 -333 129s-132 196.667 -132 332c0 152.667 61.5 289.834 184.5 411.501s261.5 182.5 415.5 182.5c110.667 0 199.167 -31.833 265.5 -95.5s99.5 -147.167 99.5 -250.5c0 -136.667 -50.667 -257.667 -152 -363c-95.333 -98 -197.666 -147 -306.999 -147
c-78 0 -143.333 22.5 -196 67.5s-79 102.167 -79 171.5c0 31.333 9.66699 69 29 113c23.333 52 48.666 78 75.999 78c17.333 0 26 -7.66699 26 -23c0 -8 -4 -14 -12 -18c-53.333 -34 -80 -84 -80 -150c0 -58.667 23 -107.5 69 -146.5s101 -58.5 165 -58.5
c103.333 0 199.166 47.833 287.499 143.5s132.5 205.5 132.5 329.5c0 100 -33 178.667 -99 236c-60 50.667 -134.333 76 -223 76c-138 0 -264.333 -56 -379 -168c-118.667 -113.333 -178 -243 -178 -389c0 -127.333 42.333 -231.333 127 -312
c79.333 -74.667 176.333 -112 291 -112c319.333 0 579.333 224 780 672c95.333 212.667 178 368 248 466c128 187.333 261 281 399 281c80.667 0 123.667 -15 129.001 -45c42.667 31.333 85.667 58 129 80c12.667 5.33301 21 6 25 2c2.66699 -2.66699 2 -6 -2 -10z
M2042 1298c-6 3.33301 -20.334 10.332 -43.001 20.999c-16.667 6.66699 -36 10 -58 10c-189.333 0 -379.666 -217 -570.999 -651h274c108 282.667 240.667 489.334 398 620.001z" />
    <glyph glyph-name="B" unicode="B" horiz-adv-x="1662" 
d="M1704 1096c-4 -112 -60.668 -199.33 -170.001 -261.997c-83.333 -48 -182.333 -76.667 -297 -86c95.333 -14 176.666 -50.333 243.999 -109c76 -66.667 112 -148.667 108 -246c-5.33301 -124 -70 -223 -194 -297c-108 -64 -234.333 -96 -379 -96h-619
c-12 0 -18 5.33301 -18 16c0 12.667 6.66699 19 20 19h189l469 1278h184l-201 -553c176.667 1.33301 315.167 32.666 415.5 93.999s152.5 144.666 156.5 249.999c10.667 226.667 -165.666 340 -528.999 340c-266 0 -498 -80 -696 -240c-186 -150 -282.333 -318 -289 -504
c-4 -88.667 17.833 -161.334 65.5 -218.001s116.167 -90.334 205.5 -101.001c18.667 -2.66699 28 -11 28 -25c0 -12 -8 -18 -24 -18c-78 2.66699 -148.333 31.334 -211 86.001c-78 68 -115 160 -111 276c9.33301 212 116.5 394.833 321.5 548.5s443.833 230.5 716.5 230.5
c190 0 341.333 -34.5 454 -103.5s166.334 -162.167 161.001 -279.5zM1477 410.003c4 99.333 -26.8311 177 -92.498 233s-153.834 84 -264.501 84h-92l-252 -692h193c327.333 0 496.666 125 507.999 375z" />
    <glyph glyph-name="C" unicode="C" horiz-adv-x="1153" 
d="M1263 1358c-38 -97.333 -93.9961 -254.999 -167.996 -472.999c-2.66699 -12.667 -8.66699 -19 -18 -19c-14.667 0 -18.667 9.66699 -12 29c16 60 24 118.667 24 176c0 86 -18.333 156.667 -55 212s-89.334 83 -158.001 83c-130.667 0 -265 -118.667 -403 -356
c-134 -232 -205.667 -458.667 -215 -680c-5.33301 -109.333 17.667 -192 69 -248c46.667 -53.333 113.667 -80 201 -80c138 0 256 56 354 168c97.333 108 149.333 237.667 156 389c2.66699 83.333 -16.5 152.333 -57.5 207s-97.5 82 -169.5 82
c-102.667 0 -190.834 -42 -264.501 -126s-112.5 -182 -116.5 -294c-2.66699 -64 13.333 -117.167 48 -159.5s76.667 -63.5 126 -63.5c76.667 0 140.667 28 192 84c46.667 50.667 78.334 115.334 95.001 194.001c2.66699 12.667 10 19 22 19c14 0 19.667 -7 17 -21
c-15.333 -83.333 -51 -154.333 -107 -213c-62.667 -64 -136.334 -96 -221.001 -96c-60 0 -110.833 24.167 -152.5 72.5s-61.167 110.166 -58.5 185.499c5.33301 121.333 49.333 227.166 132 317.499s180 135.5 292 135.5c78 0 141.833 -30.167 191.5 -90.5
s72.5 -138.166 68.5 -233.499c-6.66699 -158 -60.667 -295.333 -162 -412c-104.667 -121.333 -233.667 -182 -387 -182c-118.667 0 -220.334 47.167 -305.001 141.5s-124.334 213.833 -119.001 358.5c10 211.333 100.667 420.166 272 626.499s340 309.5 506 309.5
c48 0 91 -13 129 -39c19.333 -12.667 44 -36.667 74 -72c23.333 -26 41 -39 53 -39c24.667 0 44.667 13 60 39c8 12.667 19.667 40 35 82c4 9.33301 10 14 18 14c10.667 0 16 -5.33301 16 -16c0 -4 -0.666992 -8 -2 -12z" />
    <glyph glyph-name="D" unicode="D" horiz-adv-x="1744" 
d="M1724 795c-14.667 -244.667 -103.331 -440.002 -265.998 -586.002c-155.333 -139.333 -346.333 -209 -573 -209h-529c-12 0 -18 5.33301 -18 16c0 12.667 8 19 24 19h195l463 1284h186l-467 -1284h160c191.333 0 349 66 473 198c138 144 213.667 347 227 609
c12.667 194 -32.5 345.833 -135.5 455.5s-255.5 164.5 -457.5 164.5c-251.333 0 -465 -72.333 -641 -217c-169.333 -138 -258.333 -301.667 -267 -491c-4 -113.333 15.833 -207.666 59.5 -282.999s110.5 -123.666 200.5 -144.999c11.333 -2.66699 17 -9.66699 17 -21
c0 -16 -7.66699 -23.333 -23 -22c-92.667 13.333 -167.334 63.333 -224.001 150s-82.334 193.667 -77.001 321c10 195.333 101 366 273 512c186.667 156.667 416 235 688 235c218 0 393.333 -63.333 526 -190c136.667 -131.333 198.667 -303.333 186 -516z" />
    <glyph glyph-name="E" unicode="E" horiz-adv-x="1271" 
d="M1298 1413c-32.667 -70.667 -86.3311 -204.332 -160.998 -400.999c-4.66699 -10 -11 -15 -19 -15c-12 0 -16 7.66699 -12 23c14.667 49.333 22 95 22 137c0 80.667 -23.833 143.5 -71.5 188.5s-109.167 67.5 -184.5 67.5c-102 0 -182.333 -43 -241 -129
c-53.333 -79.333 -80 -178.333 -80 -297c0 -72 19 -119 57 -141c50.667 12 100.667 18 150 18c70.667 0 106 -13.667 106 -41c0 -28.667 -34.667 -43 -104 -43c-40 0 -90.667 8.33301 -152 25c-84.667 -27.333 -157.667 -77.333 -219 -150
c-69.333 -83.333 -106.333 -177.333 -111 -282c-5.33301 -118.667 24.5 -213.167 89.5 -283.5s159.5 -105.5 283.5 -105.5c143.333 0 271.666 52.333 384.999 157c109.333 101.333 164 211.333 164 330c0 71.333 -21 128.666 -63 171.999
c-46.667 45.333 -111.667 68 -195 68c-109.333 0 -205.666 -43.667 -288.999 -131c-73.333 -78 -110 -154 -110 -228c0 -66.667 20.333 -118.334 61 -155.001c35.333 -31.333 81.666 -47 138.999 -47c100 0 186.667 52.333 260 157c4.66699 6.66699 10.334 10 17.001 10
c13.333 0 20 -6 20 -18c0 -4 -0.666992 -7.33301 -2 -10c-76 -114.667 -175 -172 -297 -172c-70.667 0 -127.5 20.833 -170.5 62.5s-64.5 97.167 -64.5 166.5c0 100 45.667 191.167 137 273.5s192.333 123.5 303 123.5c84.667 0 154.334 -24.167 209.001 -72.5
s82 -112.833 82 -193.5c0 -128 -54 -246 -162 -354c-117.333 -117.333 -258.666 -176 -423.999 -176c-166.667 0 -300.334 35.333 -401.001 106c-108 78 -156.667 183.333 -146 316c10 125.333 71.667 234.333 185 327c86 70 177.333 116 274 138
c-34 18.667 -63.333 48.667 -88 90c-28.667 44.667 -43 94.334 -43 149.001c0 104 42 191.833 126 263.5s190 107.5 318 107.5c59.333 0 119.666 -15.667 180.999 -47s100.666 -47 117.999 -47c34.667 0 65 25.667 91 77c5.33301 11.333 12.666 17 21.999 17
c16.667 0 20 -10.333 10 -31zM821.003 821.002c0 11.333 -21.668 17 -65.001 17c-36 0 -68.333 -4.33301 -97 -13c20.667 -8 54.334 -12.667 101.001 -14c40.667 -1.33301 61 2 61 10z" />
    <glyph glyph-name="F" unicode="F" horiz-adv-x="1761" 
d="M2150 1366c-56 -91.333 -184.334 -137 -385.001 -137c-90 0 -177.333 6.66699 -262 20l-178 -497c132.667 0 230 19 292 57s116.333 113 163 225c2.66699 10 9.33398 14.333 20.001 13c11.333 -3.33301 14.666 -10.333 9.99902 -21
c-61.333 -160 -141.666 -386 -240.999 -678c-4 -12 -11 -18 -21 -18c-12 0 -16 6.66699 -12 20c26 90 39 159.667 39 209c0 102.667 -65.667 154 -197 154h-65l-248 -678h192c10 0 15 -5.66699 15 -17c0 -12 -7 -18 -21 -18h-551c-12 -0 -18 5.33301 -18 16
c0 12.667 8.33301 19 25 19h172l460 1253l-223 58c-113.333 24 -224.666 36 -333.999 36c-176 0 -324.667 -54.333 -446 -163c-113.333 -100 -176.333 -217 -189 -351c-10.667 -116 21.5 -211.833 96.5 -287.5s169.167 -113.5 282.5 -113.5
c135.333 0 250.666 41 345.999 123c92 79.333 143.333 177 154 293c8 83.333 -12.5 153 -61.5 209s-118.5 84 -208.5 84c-101.333 0 -187.333 -35 -258 -105c-58.667 -58.667 -91.667 -121.334 -99 -188.001c-1.33301 -20.667 1.66699 -40.667 9 -60
c5.33301 -18.667 -3.66699 -28 -27 -28c-9.33301 0 -16.333 5.33301 -21 16c-6.66699 19.333 -9.33398 41.333 -8.00098 66c8.66699 84.667 51 160.334 127 227.001c80.667 72 173 108 277 108c98 0 176.333 -31.333 235 -94s84 -141 76 -235
c-12 -127.333 -69 -234.666 -171 -321.999s-226.667 -131 -374 -131c-121.333 0 -222.333 37.667 -303 113c-88.667 83.333 -127 191.666 -115 324.999c14 158.667 88.5 291.167 223.5 397.5s296.167 159.5 483.5 159.5c122.667 0 292.667 -24.833 510 -74.5
s371 -74.5 461 -74.5c110.667 0 190.334 8 239.001 24c37.333 14 69.666 40 97 78c6.66699 11.333 13.334 17 20 17c20.667 0 24.667 -9.66699 12 -29z" />
    <glyph glyph-name="G" unicode="G" horiz-adv-x="1470" 
d="M1537 674c10 0 14.998 -5.66602 14.998 -16.999c0 -12 -7 -18 -21 -18h-135c-112 -297.333 -190.667 -514.333 -236 -651c-5.33301 -14 -12 -21 -20 -21c-9.33301 0 -14 6.33301 -14 19c-8.66699 122.667 -17 202.334 -25 239.001c-84.667 -174.667 -204 -262 -358 -262
c-98.667 0 -179 46.5 -241 139.5s-90.333 209.833 -85 350.5c4 73.333 18.333 143.666 43 210.999c-65.333 22.667 -116.833 60.334 -154.5 113.001s-55.167 113 -52.5 181c9.33301 210.667 124 365 344 463c23.333 11.333 35 6.66602 35 -14.001
c0 -9.33301 -7 -17.666 -21 -24.999c-78.667 -40.667 -136.667 -78 -174 -112c-90 -83.333 -137.667 -187.333 -143 -312c-5.33301 -126.667 53.334 -213.334 176.001 -260.001c70 182 185.333 345.333 346 490c153.333 139.333 288 209 404 209
c60 0 106.333 -18.5 139 -55.5s46.334 -88.833 41.001 -155.5c-8 -120 -81 -236.667 -219 -350c-154.667 -127.333 -335 -194.333 -541 -201c-22 -60 -38.333 -110 -49 -150c-23.333 -87.333 -36.333 -165 -39 -233c-4 -76.667 11 -137.834 45 -183.501
s83.333 -68.5 148 -68.5c159.333 -0 282 117.333 368 352l105 287h-150c-10.667 0 -16 5.33301 -16 16c0 12.667 7.33301 19 22 19h463zM1359 1186c9.33301 118.667 -37.667 178 -141 178c-94.667 0 -197 -72.333 -307 -217c-100 -131.333 -186.333 -289.666 -259 -474.999
c183.333 6.66699 347.333 66.667 492 180c134 105.333 205.667 216.666 215 333.999z" />
    <glyph glyph-name="H" unicode="H" horiz-adv-x="1990" 
d="M2276 1366c14 0 21 -5.33301 21 -16c0 -12.667 -7.66699 -19 -23 -19h-161l-476 -1296h195c12 0 18 -5.66699 18 -17c0 -12 -7.33301 -18 -22 -18h-553c-12 -0 -18 5.33301 -18 16c0 12.667 6.66699 19 20 19h176l256 702h-518l-258 -702h174
c10.667 0 16 -5.66699 16 -17c0 -12 -6.66699 -18 -20 -18h-545c-12 -0 -18 5.33301 -18 16c0 12.667 7.33301 19 22 19h187l475 1296h-467c-196.667 0 -359.334 -54 -488.001 -162c-121.333 -102 -179.333 -222.667 -174 -362c4 -94 36.833 -171.167 98.5 -231.5
s138.834 -90.5 231.501 -90.5c140.667 0 258 48.667 352 146c88.667 91.333 130.334 195.666 125.001 312.999c-2.66699 61.333 -23.167 112.833 -61.5 154.5s-88.833 62.5 -151.5 62.5c-122.667 0 -219 -47 -289 -141c-60 -79.333 -88 -166 -84 -260
c2 -22 10.333 -48.667 25 -80c10.667 -22 5.33398 -33 -15.999 -33c-12.667 0 -22.334 7 -29.001 21c-13.333 27.333 -21 58 -23 92c-4 113.333 34.667 215 116 305s181.333 135 300 135c74 0 134.833 -23.833 182.5 -71.5s72.834 -109.167 75.501 -184.5
c5.33301 -125.333 -40.334 -238 -137.001 -338c-104 -108 -232.333 -162 -385 -162c-109.333 0 -197.833 34.833 -265.5 104.5s-104.167 155.834 -109.5 258.501c-6.66699 156.667 57.666 289 192.999 397s304 162 506 162h821c13.333 0 20 -5.33301 20 -16
c0 -12.667 -7.33301 -19 -22 -19h-158l-205 -559h518l205 559h-174c-12 0 -18 5.66699 -18 17c0 12 8.66699 18 26 18h514z" />
    <glyph glyph-name="I" unicode="I" horiz-adv-x="1411" 
d="M1706 1452c-76.667 -49.333 -139.664 -121.005 -188.997 -215.005c-36.667 -72.667 -72 -173.667 -106 -303l-92 -371c-58.667 -222.667 -162.667 -390 -312 -502c-132 -99.333 -289.667 -149 -473 -149c-136 0 -250.5 40.667 -343.5 122s-139.5 188 -139.5 320
c0 150.667 47.833 277.167 143.5 379.5s215.834 153.5 360.501 153.5c106.667 0 196.167 -32.5 268.5 -97.5s108.5 -147.833 108.5 -248.5c0 -122 -35.833 -221.167 -107.5 -297.5s-160.834 -114.5 -267.501 -114.5c-76.667 0 -139.834 24.5 -189.501 73.5
s-74.5 107.167 -74.5 174.5c0 64 22.5 122 67.5 174s95.5 78 151.5 78c14.667 0 22 -6.33301 22 -19c0 -12 -5.33301 -18 -16 -18c-45.333 0 -86.333 -20 -123 -60c-40.667 -43.333 -61 -95.666 -61 -156.999c0 -57.333 21.5 -106.5 64.5 -147.5s95.833 -61.5 158.5 -61.5
c96.667 0 176.5 35.167 239.5 105.5s94.5 158.833 94.5 265.5c0 96.667 -33.167 173.667 -99.5 231s-146.5 86 -240.5 86c-124.667 0 -232.334 -48.167 -323.001 -144.5s-136 -214.166 -136 -353.499c0 -128 46.333 -229.667 139 -305c84.667 -68 187 -102 307 -102
c145.333 0 266.333 51.667 363 155c72 78 132.667 188.667 182 332l84 312c35.333 126.667 72.333 227.667 111 303c64 122.667 148.667 221 254 295c-46.667 -23.333 -168.334 -66.166 -365.001 -128.499s-295 -145.166 -295 -248.499c0 -82 40.333 -123 121 -123
c34 0 60.667 10.167 80 30.5s31 30.5 35 30.5c12 0 18 -6 18 -18c0 -20.667 -18.333 -40 -55 -58c-30 -14.667 -57.333 -22 -82 -22c-45.333 0 -82.333 14.333 -111 43s-43 67.667 -43 117c0 74.667 37.667 137.334 113 188.001c56 38 146.667 75.667 272 113
c229.333 68 384.333 137 465 207c5.33301 4 11 6 17 6c10.667 0 16 -5 16 -15c0 -6.66699 -4 -12 -12 -16z" />
    <glyph glyph-name="J" unicode="J" horiz-adv-x="1411" 
d="M1710 1331l-134.999 0.00292969l-328 -903c-143.333 -397.333 -393 -596 -749 -596c-134 0 -243.333 43.333 -328 130s-127 199 -127 337c0 150 55.333 284.833 166 404.5s239.667 179.5 387 179.5c106.667 0 194.5 -31.833 263.5 -95.5s103.5 -145.834 103.5 -246.501
c0 -130 -40.333 -237.333 -121 -322s-177.667 -127 -291 -127c-78 0 -143.333 24.667 -196 74s-79 106.666 -79 171.999c0 78 22.667 134 68 168c8 5.33301 16.333 8 25 8c16 0 24 -8.33301 24 -25c0 -6.66699 -3.33301 -12.667 -10 -18c-44 -38 -66 -83 -66 -135
c0 -57.333 23 -106.166 69 -146.499s101 -60.5 165 -60.5c105.333 0 193.5 39.667 264.5 119s106.5 175.666 106.5 288.999c0 95.333 -31.5 171 -94.5 227s-141.5 84 -235.5 84c-130 0 -246.833 -56.333 -350.5 -169s-155.5 -238.667 -155.5 -378
c0 -132.667 41 -238.334 123 -317.001c78 -75.333 174.333 -113 289 -113c142 0 256.667 45 344 135c69.333 72.667 134.666 193 195.999 361l355 964h-209c-11.333 0 -17 5.66699 -17 17c0 12 6.33301 18 19 18h524c14 0 21 -5.33301 21 -16c0 -12.667 -7 -19 -21 -19z" />
    <glyph glyph-name="K" unicode="K" horiz-adv-x="1990" 
d="M2277 1366c14 0 21 -5.33301 21 -16c0 -12.667 -8.33301 -19 -25 -19c-58.667 0 -110.834 -13.333 -156.5 -40c-45.667 -26.667 -127.167 -88.334 -244.5 -185.001l-340 -281l202 -790h152c15.333 0 23 -5.66699 23 -17c0 -12 -7.66699 -18 -23 -18h-489
c-11.333 0 -17 5.33301 -17 16c0 12.667 7 19 21 19h147l-168 659l-180 -145l-188 -514h163c10 0 15 -5 15 -15c0 -13.333 -7.66699 -20 -23 -20h-530c-10 0 -15 5.33301 -15 16c0 12.667 7.66699 19 23 19h182l473 1296h-491c-196.667 0 -359.334 -54 -488.001 -162
c-121.333 -102 -179.333 -222.667 -174 -362c4 -94 36.833 -171.167 98.5 -231.5s138.834 -90.5 231.501 -90.5c140.667 0 258 48.667 352 146c88.667 91.333 130.334 195.666 125.001 312.999c-2.66699 61.333 -23.167 112.833 -61.5 154.5s-88.833 62.5 -151.5 62.5
c-122.667 0 -219 -47 -289 -141c-60 -79.333 -88 -166 -84 -260c2 -22 10.333 -48.667 25 -80c10.667 -22 5.33398 -33 -15.999 -33c-12.667 0 -22.334 7 -29.001 21c-13.333 27.333 -21 58 -23 92c-4 113.333 34.667 215 116 305s181.333 135 300 135
c74 0 134.833 -23.833 182.5 -71.5s72.834 -109.167 75.501 -184.5c5.33301 -125.333 -40.334 -238 -137.001 -338c-104 -108 -232.333 -162 -385 -162c-109.333 0 -197.833 34.833 -265.5 104.5s-104.167 155.834 -109.5 258.501c-6.66699 156.667 57.666 289 192.999 397
s304 162 506 162h837c12.667 0 19 -5.33301 19 -16c0 -12.667 -9 -19 -27 -19h-145l-263 -715l617 510c56 46.667 84 90.334 84 131.001c0 49.333 -43 74 -129 74c-14 0 -21 5.66699 -21 17c0 12 8.33301 18 25 18h479z" />
    <glyph glyph-name="L" unicode="L" horiz-adv-x="1298" 
d="M1370 1276c-5.33301 -131.333 -84.666 -252.334 -237.999 -363.001c-122.667 -90 -237.334 -143 -344.001 -159l-260 -719h192c240.667 0 426 167.333 556 502c4 12 10.667 18 20 18c15.333 0 20 -8.33301 14 -25l-188 -530h-1004c-10.667 0 -16 4.66699 -16 14
c0 14 8.33301 21 25 21h213l264 719c-84.667 0 -160.667 22.333 -228 67c-90 58.667 -132.333 144 -127 256c4.66699 106.667 54 197.667 148 273c78 62.667 173 106.334 285 131.001c22.667 4 34 -1.66699 34 -17c0 -12 -7.33301 -19.333 -22 -22
c-106.667 -22 -194.667 -60.333 -264 -115c-87.333 -66.667 -133.333 -150 -138 -250c-4 -96.667 32.333 -171 109 -223c61.333 -40.667 133.666 -61 216.999 -61c172 436.667 370 655 594 655c110.667 0 163.334 -57.333 158.001 -172zM1333 1276
c4 88.667 -32.332 132.999 -108.999 132.999c-147.333 0 -288 -204 -422 -612c119.333 24.667 232.666 81.334 339.999 170.001c122 99.333 185.667 202.333 191 309z" />
    <glyph glyph-name="M" unicode="M" horiz-adv-x="2383" 
d="M2675 1366c10.667 0 16.0029 -5.33398 16.0029 -16.001c0 -12.667 -6.66699 -19 -20 -19h-154l-471 -1296h188c11.333 0 17 -5.66699 17 -17c0 -12 -7 -18 -21 -18h-538c-11.333 0 -17 5.33301 -17 16c0 12.667 7.66699 19 23 19h162l464 1276l-874 -1342
c-6.66699 -10.667 -14.334 -15.334 -23.001 -14.001c-8 2.66699 -11.333 8.66699 -10 18l137 1327c-126.667 -431.333 -262.334 -756 -407.001 -974c-184.667 -276 -399.667 -414 -645 -414c-136.667 0 -247.334 40 -332.001 120s-124.334 187.333 -119.001 322
c6.66699 154.667 69.667 297.334 189 428.001c125.333 136.667 266.666 205 423.999 205c104.667 0 188.834 -31 252.501 -93s93.5 -144.333 89.5 -247c-7.33301 -129.333 -59.833 -246 -157.5 -350s-202.167 -156 -313.5 -156c-79.333 0 -142.333 21.167 -189 63.5
s-67.667 96.5 -63 162.5c2.66699 77.333 27 133.333 73 168c8.66699 5.33301 17 8 25 8c16 0 24 -7.66699 24 -23c0 -8 -4 -14.667 -12 -20c-44.667 -38.667 -68.334 -83.667 -71.001 -135c-2 -56 16.833 -101.167 56.5 -135.5s92.5 -51.5 158.5 -51.5
c103.333 0 199 48.833 287 146.5s134.333 203.834 139 318.501c5.33301 96.667 -20.667 172.334 -78 227.001s-133.333 82 -228 82c-136 0 -262.167 -63.833 -378.5 -191.5s-177.833 -262.5 -184.5 -404.5c-5.33301 -129.333 33.667 -231 117 -305
c76.667 -66.667 174.334 -100 293.001 -100c221.333 0 417.333 122.667 588 368c134.667 195.333 261.667 483 381 863c9.33301 30 14 54.333 14 73c0 33.333 -15 54.666 -45 63.999c-23.333 8 -67 12 -131 12c-10 0 -15 5 -15 15c0 13.333 6.33301 20 19 20h424
c-15.333 -125.333 -51.666 -473.333 -108.999 -1044l684 1044h361z" />
    <glyph glyph-name="N" unicode="N" horiz-adv-x="2117" 
d="M2511 1366c10.667 0 16.002 -4.66504 16.002 -13.998c0 -14 -7.33301 -21 -22 -21c-82 0 -145 -21.667 -189 -65c-32.667 -31.333 -68.667 -94.333 -108 -189l-447 -1089c-2.66699 -12.667 -9.33398 -19 -20.001 -19c-8.66699 0 -14.334 6.33301 -17.001 19l-215 1050
c-268.667 -750.667 -610.667 -1126 -1026 -1126c-126.667 0 -230.334 35.833 -311.001 107.5s-121 168.167 -121 289.5c0 166.667 63.5 318 190.5 454s273.833 204 440.5 204c106.667 0 189.334 -31.5 248.001 -94.5s83.667 -145.5 75 -247.5
c-12 -130 -66.5 -243.167 -163.5 -339.5s-202.167 -144.5 -315.5 -144.5c-79.333 0 -141.166 21.5 -185.499 64.5s-63.166 96.833 -56.499 161.5c7.33301 77.333 34.666 133.333 81.999 168c8.66699 5.33301 17 8 25 8c14.667 0 22 -7 22 -21c0 -8 -4 -15.333 -12 -22
c-46 -37.333 -72 -82.333 -78 -135c-4 -56 13.167 -101.167 51.5 -135.5s90.166 -51.5 155.499 -51.5c104 0 199.667 45.5 287 136.5s136.333 193.167 147 306.5c8.66699 96.667 -14 172.667 -68 228s-127.333 83 -220 83c-144.667 0 -274.5 -59.833 -389.5 -179.5
s-178.5 -251.834 -190.5 -396.501c-10.667 -128 24.333 -229.667 105 -305c72 -66.667 167.333 -100 286 -100c414 0 749.333 391 1006 1173l-15 70c-9.33301 56 -35 94.333 -77 115c-31.333 14.667 -80 22 -146 22c-10.667 0 -16 5.66699 -16 17c0 12 8.66699 18 26 18h373
l209 -1067l322 791c22.667 57.333 34 103.666 34 138.999c0 42 -17 70.667 -51 86c-24.667 10.667 -64.334 16 -119 16c-12 0 -18 5.66699 -18 17c0 12 7 18 21 18h475z" />
    <glyph glyph-name="O" unicode="O" horiz-adv-x="1169" 
d="M450 -35c-100.667 0 -183.835 37.5 -249.502 112.5s-98.5 179.5 -98.5 313.5c0 110.667 40 248.334 120 413.001s176.667 303.667 290 417c126.667 128 247.334 192 362.001 192c50.667 0 75.334 -9.66699 74.001 -29c-1.33301 -10.667 -7 -16 -17 -16l-11 8
c-7.33301 5.33301 -18.666 8 -33.999 8c-62.667 0 -137.667 -42.333 -225 -127c-95.333 -94 -178 -214.667 -248 -362c-80.667 -173.333 -129.667 -361.666 -147 -564.999c-2.66699 -20.667 -4 -41.334 -4 -62.001c0 -88.667 19 -157 57 -205c34 -43.333 79.667 -65 137 -65
c173.333 0 339.333 120 498 360c140.667 213.333 219 419.666 235 618.999c3.33301 24.667 5 48.667 5 72c0 184 -59 276 -177 276c-118.667 0 -247.167 -104.833 -385.5 -314.5s-216.5 -412.167 -234.5 -607.5c-6.66699 -81.333 5 -144.666 35 -189.999
c24.667 -36.667 56 -55 94 -55c52 0 97 21.667 135 65c4 5.33301 9.33301 8 16 8c11.333 0 17 -5.33301 17 -16c0 -23.333 -23.333 -45 -70 -65c-38 -16.667 -70.667 -25 -98 -25c-112 0 -168 81.333 -168 244c0 103.333 30.667 233 92 389c67.333 164 148 300.333 242 409
c109.333 127.333 218.666 191 327.999 191c68 0 121.833 -27.333 161.5 -82s59.5 -135.334 59.5 -242.001c0 -129.333 -36.333 -277.333 -109 -444c-74.667 -174.667 -169.667 -318 -285 -430c-128 -130 -260.333 -195 -397 -195z" />
    <glyph glyph-name="P" unicode="P" horiz-adv-x="1615" 
d="M1685 983c-12.667 -150 -89.334 -266.674 -230.001 -350.007c-117.333 -71.333 -255 -107.666 -413 -108.999c-37.333 0 -87.333 2 -150 6l-184 -495h207c12 0 18 -5.66699 18 -17c0 -12 -8.33301 -18 -25 -18h-577c-10.667 0 -16 4.66699 -16 14c0 14 7.33301 21 22 21
h186l465 1278h183l-265 -748c49.333 -2.66699 91.666 -4 126.999 -4c150.667 -1.33301 278.334 31.334 383.001 98.001c119.333 76.667 185 186 197 328c10.667 124.667 -31.666 225.834 -126.999 303.501s-225 116.5 -389 116.5c-272 0 -505.667 -80 -701 -240
c-181.333 -147.333 -280.333 -315.666 -297 -504.999c-8 -88 10.5 -160.667 55.5 -218s111.833 -90.666 200.5 -99.999c18 -2.66699 27 -11 27 -25c0 -12 -8 -18 -24 -18c-78 2.66699 -147 31.334 -207 86.001c-76.667 68 -109.667 159.667 -99 275
c19.333 214 131.833 397.5 337.5 550.5s443.5 229.5 713.5 229.5c172 0 314 -41.667 426 -125c116 -87.333 168 -198.666 156 -333.999z" />
    <glyph glyph-name="Q" unicode="Q" horiz-adv-x="1323" 
d="M1622 -135c-124 -118.667 -261.671 -177.998 -413.004 -177.998c-145.333 0 -298.333 49.667 -459 149c-83.333 52 -134.666 82 -153.999 90c-72 34 -147 51 -225 51c-152.667 0 -264 -72.333 -334 -217c-5.33301 -10.667 -12.666 -16 -21.999 -16
c-16.667 0 -20.334 10.333 -11.001 31c24.667 52 60.334 97.667 107.001 137c79.333 66.667 177 102 293 106c-110.667 72.667 -166 197 -166 373c0 118.667 41 259.667 123 423s181 301 297 413c125.333 124 242.666 186 351.999 186c50.667 0 75.334 -9.66699 74.001 -29
c-1.33301 -10.667 -7 -16 -17 -16l-11 8c-7.33301 5.33301 -18.666 8 -33.999 8c-62.667 0 -137.667 -42.333 -225 -127c-95.333 -94 -178 -214.667 -248 -362c-80.667 -173.333 -129.667 -361.666 -147 -564.999c-2.66699 -20.667 -4 -41.334 -4 -62.001
c0 -88.667 19 -157 57 -205c34 -43.333 79.667 -65 137 -65c173.333 0 339.333 120 498 360c140.667 213.333 219 419.666 235 618.999c2.66699 24.667 4 48.667 4 72c0 184 -58.667 276 -176 276c-118.667 0 -247.334 -104.833 -386.001 -314.5
s-216.667 -412.167 -234 -607.5c-7.33301 -81.333 4.33398 -144.666 35.001 -189.999c24 -36.667 55.333 -55 94 -55c52 0 97 21.667 135 65c5.33301 6.66699 11.333 10 18 10c11.333 0 17 -4.66699 17 -14c0 -5.33301 -2 -11.333 -6 -18c-36 -49.333 -90.667 -74 -164 -74
c-112 0 -168 80.667 -168 242c0 103.333 30.667 233 92 389c66.667 164 147.334 300.333 242.001 409c108.667 127.333 217.667 191 327 191c68.667 0 122.667 -27.333 162 -82s59 -135.334 59 -242.001c0 -203.333 -71.667 -419 -215 -647
c-154 -248.667 -324.667 -387.334 -512 -416.001c32 -13.333 69 -32.333 111 -57c127.333 -78 199 -121 215 -129c75.333 -35.333 154 -53 236 -53c146 0 275.667 54.667 389 164c4 4 8 6 12 6c12 0 18 -6.33301 18 -19c0 -6.66699 -2.66699 -12.667 -8 -18z" />
    <glyph glyph-name="R" unicode="R" horiz-adv-x="1589" 
d="M2182 -276c-24.667 -36 -62.665 -67.6689 -113.998 -95.002c-70 -38 -146.667 -57 -230 -57c-293.333 0 -475 182.333 -545 547c-28.667 146 -53.667 241.667 -75 287c-57.333 114.667 -153 180 -287 196l-207 -567h199c10.667 0 16 -5.66699 16 -17
c0 -12 -8 -18 -24 -18h-568c-12 0 -18 4.66699 -18 14c0 14 7.33301 21 22 21h189l469 1278h180l-242 -670c168 -5.33301 310.667 21.334 428 80.001c140.667 70.667 217.334 177 230.001 319c9.33301 110.667 -30.667 199.167 -120 265.5s-218 99.5 -386 99.5
c-277.333 0 -513.666 -81.333 -708.999 -244c-178.667 -147.333 -276.334 -314.333 -293.001 -501c-6.66699 -88 12.5 -160.667 57.5 -218s111.833 -90.666 200.5 -99.999c18 -2.66699 27 -11 27 -25c0 -12 -8 -18 -24 -18c-78 2.66699 -147 31.334 -207 86.001
c-76.667 68 -109.667 159.667 -99 275c18 210 129.667 392.5 335 547.5s444.666 232.5 717.999 232.5c177.333 0 320 -37.167 428 -111.5s157.333 -170.5 148 -288.5c-14 -144.667 -99.333 -256.334 -256 -335.001c-124.667 -63.333 -257.334 -95.666 -398.001 -96.999
c204.667 -46 351.667 -249.333 441 -610c31.333 -128.667 72.666 -224.334 123.999 -287.001c63.333 -72 146 -108 248 -108c127.333 0 232 47.667 314 143c6.66699 8 14.667 12 24 12c20.667 0 22 -12 4 -36z" />
    <glyph glyph-name="S" unicode="S" horiz-adv-x="1378" 
d="M1550 1366c-82 -184 -149.66 -354.671 -202.993 -512.004c-2.66699 -6.66699 -8.33398 -10 -17.001 -10c-9.33301 0 -14 5.33301 -14 16c0 4 0.666992 8.66699 2 14c20.667 67.333 31 132.333 31 195c0 196.667 -95 295 -285 295c-79.333 0 -146.5 -26.333 -201.5 -79
s-85.5 -113 -91.5 -181c-8 -91.333 35.667 -170.666 131 -237.999l269 -170c95.333 -77.333 138.333 -175.666 129 -294.999c-16.667 -178.667 -102 -322 -256 -430c-142 -99.333 -311.333 -149 -508 -149c-135.333 0 -250 36 -344 108
c-106.667 80.667 -154 188.667 -142 324c8.66699 96.667 56.667 181.334 144 254.001c95.333 78 210.666 117 345.999 117c134 0 242.667 -35 326 -105c78.667 -68 114 -149.333 106 -244c-8 -87.333 -44.833 -157.5 -110.5 -210.5s-143.5 -79.5 -233.5 -79.5
c-144.667 0 -245 48.333 -301 145c-6.66699 10.667 -10 20.334 -10 29.001c0 16 7.33301 24 22 24c11.333 0 19.666 -6 24.999 -18c39.333 -95.333 128 -143 266 -143c83.333 0 152.666 24.167 207.999 72.5s86.333 108.5 93 180.5c6.66699 78 -22 147.667 -86 209
c-74 71.333 -177 107 -309 107c-136.667 0 -248 -41.667 -334 -125c-66.667 -66.667 -103.667 -138.334 -111 -215.001c-10.667 -116 26.666 -210.833 111.999 -284.5s197.666 -110.5 336.999 -110.5c170.667 0 314.667 42.333 432 127
c110.667 80 171.334 176.667 182.001 290c10 116.667 -32.333 211 -127 283l-264 164c-94 72 -135.667 168.333 -125 289c8 100.667 50.333 189.334 127 266.001c83.333 82 183.666 123 300.999 123c68.667 0 127.334 -12.333 176.001 -37c26 -14 57.667 -37.333 95 -70
c28.667 -26 51 -39 67 -39c36.667 0 73.667 39 111 117c5.33301 12.667 12.666 19 21.999 19c15.333 0 19.666 -7.66699 12.999 -23z" />
    <glyph glyph-name="T" unicode="T" horiz-adv-x="1349" 
d="M2079 1389c-27.333 -54.667 -77.999 -97 -151.999 -127c-68 -28.667 -146 -43 -234 -43c-84 0 -157 8.66699 -219 26l-436 -1210h195c8 0 12 -5 12 -15c0 -13.333 -7 -20 -21 -20h-573c-10.667 0 -16 4.66699 -16 14c0 14 8 21 24 21h191l465 1265
c-110.667 49.333 -171.667 75.333 -183 78c-102 36 -213 54 -333 54c-165.333 0 -314.333 -52.667 -447 -158c-143.333 -113.333 -215 -250.666 -215 -411.999c0 -102 35.167 -185.167 105.5 -249.5s156.833 -96.5 259.5 -96.5c133.333 0 252 42.333 356 127
c110.667 91.333 166 202.666 166 333.999c0 72 -23.167 131.667 -69.5 179s-109.833 71 -190.5 71c-102.667 0 -190 -35.667 -262 -107c-63.333 -58.667 -99 -121.334 -107 -188.001c-2.66699 -20.667 -1.33398 -40.667 3.99902 -60c5.33301 -18.667 -2.66699 -28 -24 -28
c-26 0 -35 27.333 -27 82c10.667 84.667 55.667 160.334 135 227.001c83.333 72.667 177.666 109 282.999 109c88.667 0 160.667 -26.333 216 -79s83 -120.667 83 -204c0 -142 -60 -263 -180 -363c-113.333 -94 -242.666 -141 -387.999 -141c-110 0 -202.667 32.667 -278 98
c-83.333 71.333 -125 165 -125 281c0 20.667 1.33301 42 4 64c22 158 102.667 290.333 242 397s302.333 160 489 160c126 0 243.333 -18.667 352 -56l250 -102c93.333 -35.333 182.333 -53 267 -53c184 0 299.333 46.333 346 139c5.33301 10.667 12.666 16 22 16
c19.333 0 23.666 -10 13 -30z" />
    <glyph glyph-name="U" unicode="U" horiz-adv-x="2181" 
d="M2509 1366c13.333 0 20 -4.66797 20 -14.001c0 -14 -6.66699 -21 -20 -21c-76.667 0 -135.334 -16.333 -176 -49c-45.333 -35.333 -85.666 -101.666 -121 -198.999l-281 -774c-38 -103.333 -82.333 -180.333 -133 -231c-79.333 -75.333 -188.666 -113 -327.999 -113
c-118.667 0 -209.334 24.667 -272.001 74c-58.667 44.667 -88 106.667 -88 186c0 44 9 90.667 27 140l352 966h-485c-196.667 0 -357.334 -54 -482.001 -162c-117.333 -102 -169.666 -222.667 -156.999 -362c8 -94 43.667 -171.167 107 -231.5s142.333 -90.5 237 -90.5
c138.667 0 253.334 48.667 344.001 146c86 91.333 123.333 195.666 112 312.999c-5.33301 61.333 -28.166 112.833 -68.499 154.5s-91.833 62.5 -154.5 62.5c-122.667 0 -217 -47 -283 -141c-56 -79.333 -79.667 -166 -71 -260c1.33301 -16.667 6.66602 -35.5 15.999 -56.5
s14 -33.5 14 -37.5c0 -12.667 -6 -19 -18 -19s-21.667 7 -29 21c-14.667 27.333 -23.334 58 -26.001 92c-10 113.333 23.667 215 101 305s175.333 135 294 135c74 0 135.833 -23.833 185.5 -71.5s77.834 -109.167 84.501 -184.5c11.333 -125.333 -29.667 -238 -123 -338
c-98 -108 -224 -162 -378 -162c-108 0 -197.833 34.833 -269.5 104.5s-111.834 155.834 -120.501 258.501c-13.333 156.667 45.167 289 175.5 397s296.5 162 498.5 162h858c10 0 15 -5.33301 15 -16c0 -12.667 -7 -19 -21 -19h-172l-375 -1022
c-18.667 -52 -28 -97.667 -28 -137c0 -109.333 74.333 -164 223 -164c120 0 214.333 33.667 283 101c47.333 46 88 118.333 122 217l277 770c19.333 53.333 29 95 29 125c0 73.333 -64.333 110 -193 110c-12 0 -18 5.66699 -18 17c0 12 8.66699 18 26 18h490z" />
    <glyph glyph-name="V" unicode="V" horiz-adv-x="1679" 
d="M2240 1366c15.333 0 23.001 -5.33203 23.001 -15.999c0 -12.667 -8.33301 -19 -25 -19c-146 0 -280.333 -84.667 -403 -254l-807 -1118h-74l207 1372h-352c-196.667 0 -359.334 -54 -488.001 -162c-121.333 -102 -179.333 -222.667 -174 -362
c4 -94 36.833 -171.167 98.5 -231.5s138.834 -90.5 231.501 -90.5c140.667 0 258 48.667 352 146c88.667 91.333 130.334 195.666 125.001 312.999c-2.66699 61.333 -23.167 112.833 -61.5 154.5s-88.833 62.5 -151.5 62.5c-122.667 0 -219 -47 -289 -141
c-60 -79.333 -88 -166 -84 -260c2 -22 10.333 -48.667 25 -80c10.667 -22 5.33398 -33 -15.999 -33c-12.667 0 -22.334 7 -29.001 21c-13.333 27.333 -21 58 -23 92c-4 113.333 34.667 215 116 305s181.333 135 300 135c74 0 134.833 -23.833 182.5 -71.5
s72.834 -109.167 75.501 -184.5c5.33301 -125.333 -40.334 -238 -137.001 -338c-104 -108 -232.333 -162 -385 -162c-109.333 0 -198.666 35.667 -267.999 107c-66 66.667 -101.667 152 -107 256c-6.66699 156.667 57.666 289 192.999 397s304 162 506 162h755
c12.667 0 19 -4.66699 19 -14c0 -14 -8.33301 -21 -25 -21h-205l-174 -1112l627 871c32.667 44.667 51 86 55 124c5.33301 36 -9.33398 64.5 -44.001 85.5s-83.334 31.5 -146.001 31.5c-11.333 0 -17 5.66699 -17 17c0 12 8.33301 18 25 18h569z" />
    <glyph glyph-name="W" unicode="W" horiz-adv-x="2525" 
d="M3037 1366c13.333 0 20 -5.33301 20 -16c0 -12.667 -7.33301 -19 -22 -19c-153.333 0 -279.666 -88.667 -378.999 -266l-621 -1104h-55c12 134 21.5 300.667 28.5 500s17.833 390.333 32.5 573l-573 -1073h-66c18 42.667 44 118.334 78 227.001
c78 248.667 117 487.667 117 717c0 209.333 -35.333 358.333 -106 447c-67.333 84.667 -175.333 127 -324 127c-204.667 0 -378.667 -85.333 -522 -256c-134 -158.667 -198.333 -331.334 -193 -518.001c2.66699 -108 38.834 -195.833 108.501 -263.5
s150.834 -101.5 243.501 -101.5c157.333 0 288.666 69 393.999 207c96.667 125.333 143 267.333 139 426c-2.66699 82 -25.167 146.833 -67.5 194.5s-92.833 71.5 -151.5 71.5c-118.667 0 -222.334 -55.333 -311.001 -166c-83.333 -105.333 -123.666 -219.333 -120.999 -342
c2.66699 -80.667 34.667 -133.334 96 -158.001c6.66699 -2.66699 10 -8 10 -16c0 -14.667 -7.33301 -20 -22 -16c-82 16 -123.667 85 -125 207c-1.33301 125.333 43 242 133 350c95.333 116 208.666 174 339.999 174c79.333 0 142.666 -28 189.999 -84
c44 -53.333 67.333 -121.666 70 -204.999c4 -185.333 -48.667 -344.333 -158 -477c-110.667 -136.667 -249.334 -205 -416.001 -205c-106 0 -196 35 -270 105c-79.333 76 -121 177 -125 303c-5.33301 204.667 67.834 389.834 219.501 555.501s332.5 248.5 542.5 248.5
c187.333 0 333.333 -57.333 438 -172c100 -108.667 150 -255.334 150 -440.001c0 -178.667 -15 -307.667 -45 -387l475 885c4 9.33301 10 14 18 14c10 0 15 -6 15 -18l-76 -1155l453 807c47.333 87.333 71 147.333 71 180c-2.66699 69.333 -69.667 104 -201 104h-10
c-12 0 -18 5.66699 -18 17c0 12 7.33301 18 22 18h574z" />
    <glyph glyph-name="X" unicode="X" horiz-adv-x="1650" 
d="M2200 1366c9.33301 0 13.9961 -4.66992 13.9961 -14.0029c0 -14 -7.66699 -21 -23 -21c-128 0 -271.333 -76.333 -430 -229l-362 -352l53 -715h184c10 0 15 -4 15 -12c0 -15.333 -8.33301 -23 -25 -23h-551c-9.33301 0 -14 4 -14 12c0 15.333 8.66699 23 26 23h179
l-43 598l-396 -375c-64 -58.667 -96 -107.667 -96 -147c0 -50.667 51.333 -76 154 -76c9.33301 0 14 -4 14 -12c0 -15.333 -9 -23 -27 -23h-528c-8 0 -12 4.66699 -12 14c0 14 7.33301 21 22 21c120.667 0 263.334 77 428.001 231l439 410l-17 246
c-9.33301 146 -29 252.333 -59 319c-45.333 96.667 -122.666 145 -231.999 145c-132 0 -258.167 -50.167 -378.5 -150.5s-196.166 -221.5 -227.499 -363.5c-8 -31.333 -12 -62.666 -12 -93.999c0 -91.333 29 -166.666 87 -225.999s130.667 -89 218 -89
c114.667 0 220.834 43 318.501 129s146.5 185 146.5 297c0 65.333 -19.833 118.833 -59.5 160.5s-90.167 62.5 -151.5 62.5c-87.333 0 -163 -32.667 -227 -98c-53.333 -52 -87 -108.667 -101 -170c-6.66699 -31.333 -6.66699 -56.666 0 -75.999c10 -26 15 -41.667 15 -47
c0 -15.333 -8.33301 -23 -25 -23c-12 0 -20 5.66699 -24 17c-14 40.667 -16.333 83.667 -7 129c16.667 76 60.834 145.167 132.501 207.5s152.5 93.5 242.5 93.5c72.667 0 131.167 -24 175.5 -72s66.5 -108 66.5 -180c0 -24.667 -2.66699 -49.334 -8 -74.001
c-24.667 -108 -85.5 -200.167 -182.5 -276.5s-203.5 -114.5 -319.5 -114.5c-98.667 0 -179.334 33.833 -242.001 101.5s-94 149.834 -94 246.501c0 168 72.333 319 217 453s302.334 201 473.001 201c165.333 0 283.333 -50.667 354 -152c48 -71.333 75.333 -175 82 -311
c1.33301 -26 5.66602 -83.333 12.999 -172l321 311c61.333 58.667 92 107.667 92 147c0 52 -52.333 78 -157 78c-11.333 0 -17 5 -17 15c0 13.333 9.66699 20 29 20h537z" />
    <glyph glyph-name="Y" unicode="Y" horiz-adv-x="1792" 
d="M2304 1366c13.333 0 20.002 -5.33203 20.002 -15.999c0 -12.667 -10 -19 -30 -19c-84.667 0 -149.334 -13.667 -194 -41c-44.667 -27.333 -102.334 -88 -173.001 -182l-375 -496l-209 -577h248c10.667 0 16 -5.66699 16 -17c0 -12 -7.33301 -18 -22 -18h-612
c-10 0 -15 5.33301 -15 16c0 12.667 7 19 21 19h190l135 362c71.333 203.333 107 367.333 107 492c0 364.667 -128.333 547 -385 547c-194 0 -358 -67.667 -492 -203c-124 -127.333 -186 -269.333 -186 -426c0 -113.333 38.333 -204 115 -272
c66.667 -59.333 145 -89 235 -89c126 0 234 43.5 324 130.5s135 195.167 135 324.5c0 84.667 -28 153 -84 205c-50.667 48 -112 72 -184 72c-112 0 -204.333 -45.333 -277 -136c-64 -80 -96 -171.333 -96 -274c0 -45.333 11.667 -78.666 35 -99.999
c2.66699 -2.66699 4 -6.33398 4 -11.001c0 -9.33301 -5.66699 -14 -17 -14c-17.333 0 -32.333 18.333 -45 55c-8 27.333 -12 52.666 -12 75.999c-1.33301 112 36.5 211.667 113.5 299s173.833 131 290.5 131c91.333 0 165.666 -28.333 222.999 -85s86 -129.334 86 -218.001
c0 -132.667 -45.667 -246 -137 -340c-96 -99.333 -216.333 -149 -361 -149c-99.333 0 -186.666 32.667 -261.999 98c-84.667 74 -127 172.333 -127 295c0 182.667 71.333 339.167 214 469.5s311.667 195.5 507 195.5c177.333 0 313.666 -61.333 408.999 -184
c86.667 -113.333 130 -265 130 -455c0 -43.333 -3.66699 -93 -11 -149l316 416c36.667 48.667 55 88.334 55 119.001c0 76 -63.333 114 -190 114c-11.333 0 -17 5.66699 -17 17c0 12 8.33301 18 25 18h559z" />
    <glyph glyph-name="Z" unicode="Z" horiz-adv-x="1566" 
d="M1960 1298c-71.333 -52.667 -166.332 -79.001 -284.999 -79.001c-22 0 -40.333 2 -55 6l-957 -1190h125c190 0 341 43.667 453 131c121.333 95.333 215.333 236.666 282 423.999c4 12 11 18 21 18c13.333 0 18 -7.33301 14 -22
c-4 -11.333 -67.333 -206.666 -190 -585.999h-944l1017 1264c-267.333 73.333 -459.666 110 -576.999 110c-136.667 0 -249.334 -36 -338.001 -108c-83.333 -68.667 -125 -150 -125 -244c0 -76.667 28.667 -138.667 86 -186c53.333 -45.333 119.666 -68 198.999 -68
c90 0 166.667 25.333 230 76s95 110.667 95 180c0 39.333 -19.667 65.333 -59 78c-8 2.66699 -12 7.33398 -12 14.001c0 15.333 8.66699 21.666 26 18.999c20.667 -3.33301 40.167 -14.5 58.5 -33.5s27.5 -43.5 27.5 -73.5c0 -83.333 -34.833 -153.666 -104.5 -210.999
s-158.167 -86 -265.5 -86c-83.333 0 -155 23.333 -215 70c-72.667 53.333 -109 127.666 -109 222.999c0 94 41.667 178.667 125 254c98 88.667 227 133 387 133c113.333 0 268.333 -24.167 465 -72.5s342 -72.5 436 -72.5c66.667 0 122.667 18.333 168 55
c4 2.66699 8 4 12 4c10 0 15 -4.66699 15 -14c0 -5.33301 -2 -9.66602 -6 -12.999z" />
    <glyph glyph-name="bracketleft" unicode="[" horiz-adv-x="550" 
d="M1150 1542l-14 -33h-211l-615 -1640h269l-13 -35h-444l639 1708h389z" />
    <glyph glyph-name="backslash" unicode="\" horiz-adv-x="1085" 
d="M1034 -219h-70l-483 1802h70z" />
    <glyph glyph-name="bracketright" unicode="]" horiz-adv-x="544" 
d="M953 1542l-639 -1708h-410l12 35h232l614 1640h-233l14 33h410z" />
    <glyph glyph-name="asciicircum" unicode="^" horiz-adv-x="454" 
d="M903 989l-35 0.000976562c-50.667 28.667 -101.667 73.667 -153 135c-105.333 -66.667 -195 -111.667 -269 -135c-2.66699 -1.33301 -21 -1.33301 -55 0c58.667 27.333 116.667 61 174 101c70 48.667 114.333 91.667 133 129h68c4 -42.667 49.667 -119.334 137 -230.001z
" />
    <glyph glyph-name="underscore" unicode="_" horiz-adv-x="1456" 
d="M1456 -98h-1456v35h1456v-35z" />
    <glyph glyph-name="grave" unicode="`" horiz-adv-x="196" 
d="M569 1008h-43l-199 227h125z" />
    <glyph glyph-name="a" unicode="a" horiz-adv-x="966" 
d="M976 389c0 -2.66699 -1.33301 -7.33301 -4 -14c-50.667 -112 -91.667 -191.333 -123 -238c-69.333 -102 -140.333 -153 -213 -153c-39.333 0 -69.666 14.667 -90.999 44s-30.333 68.333 -27 117c2.66699 40 14 88 34 144l-63 -111
c-80.667 -129.333 -167.334 -194 -260.001 -194c-60 0 -109.167 27.167 -147.5 81.5s-55.5 122.5 -51.5 204.5c11.333 188.667 100 365.667 266 531c82 80.667 160 121 234 121c46 0 82 -19.833 108 -59.5s37.667 -91.5 35 -155.5c-1.33301 -19.333 -4 -39.333 -8 -60
l104 258h164l-291 -715c-14.667 -40.667 -22 -74.667 -22 -102c0 -40.667 13 -61 39 -61c82 0 174.667 120.667 278 362c6 12.667 13.667 19 23 19c12 0 17.333 -6.33301 16 -19zM638 700.001c2.66699 54.667 -5.16699 99.166 -23.5 133.499s-43.833 51.5 -76.5 51.5
c-60 0 -127.667 -74.333 -203 -223c-106 -209.333 -162.667 -381.666 -170 -516.999c-4 -81.333 22.667 -122 80 -122c76.667 0 152.667 66 228 198c102 182 157 341.667 165 479z" />
    <glyph glyph-name="b" unicode="b" horiz-adv-x="839" 
d="M809 637c0 -200.667 -79 -378.334 -237 -533.001c-83.333 -80 -164.666 -120 -243.999 -120c-54.667 0 -100.834 21.167 -138.501 63.5s-59.167 99.5 -64.5 171.5c-40.667 -56 -83.667 -129 -129 -219h-49l422 1221c10.667 32.667 16 55 16 67
c0 27.333 -19.667 41 -59 41h-72c-13.333 0 -20 6.33301 -20 19c0 12 5.33301 18 16 18h287c27.333 0 34 -18.333 20 -55l-223 -617c18 38.667 33 67.334 45 86.001c62.667 94.667 135 142 217 142c60 0 110.5 -27 151.5 -81s61.5 -122 61.5 -204zM668 760
c0 82 -28.668 123 -86.001 123c-78 0 -150.333 -66.333 -217 -199c-98.667 -195.333 -148 -362 -148 -500c0 -109.333 37 -164 111 -164c50.667 0 97 35.667 139 107c54.667 91.333 101.834 199.5 141.501 324.5s59.5 227.833 59.5 308.5z" />
    <glyph glyph-name="c" unicode="c" horiz-adv-x="733" 
d="M743 743c0 -42 -11 -78 -33 -108c-24.667 -34 -56 -51 -94 -51c-26 0 -47.5 9.16699 -64.5 27.5s-25.5 40.5 -25.5 66.5c0 39.333 20.833 71.666 62.5 96.999s62.5 45 62.5 59c0 36.667 -26.667 55 -80 55c-98.667 0 -190.334 -86.667 -275.001 -260
c-76 -154.667 -114 -294.667 -114 -420c0 -126 45.667 -189 137 -189c129.333 0 251.333 127.667 366 383c4.66699 8.66699 11.667 13 21 13c10.667 0 16 -5.66699 16 -17c0 -4 -0.666992 -8 -2 -12c-44.667 -105.333 -98 -192.666 -160 -261.999
c-81.333 -94 -168.666 -141 -261.999 -141c-76 0 -139.667 28.333 -191 85s-77 125.667 -77 207c0 145.333 57.667 289.333 173 432s238 214 368 214c48.667 0 89.5 -17.167 122.5 -51.5s49.5 -76.833 49.5 -127.5z" />
    <glyph glyph-name="d" unicode="d" horiz-adv-x="968" 
d="M1019 1296l-373.001 -1106c-12 -36.667 -18 -70.667 -18 -102c0 -40.667 14.333 -61 43 -61c68 0 154 120.667 258 362c5.33301 12.667 13 19 23 19c10.667 0 16 -6.33301 16 -19c-1.33301 -5.33301 -2.66602 -10 -3.99902 -14
c-110.667 -260.667 -213.667 -391 -309 -391c-40 0 -72.333 17.667 -97 53c-22.667 31.333 -34 67.333 -34 108c0 42.667 8.66699 90.667 26 144c-98 -203.333 -200.333 -305 -307 -305c-68 0 -122 32 -162 96c-34 54.667 -51 118 -51 190c0 188.667 79.333 365.667 238 531
c77.333 80.667 153 121 227 121c53.333 0 93 -24 119 -72c22.667 -38 34 -86.333 34 -145c0 -20.667 -1.33301 -40 -4 -58l199 596c6.66699 19.333 10 34.333 10 45c0 27.333 -19 41 -57 41h-78c-10.667 0 -16 6.33301 -16 19c0 12 5.33301 18 16 18h285
c26 0 31.333 -23.333 16 -70zM613.999 700c0 44 -7.66699 83.001 -23 117.001c-19.333 45.333 -48 68 -86 68c-78 0 -155.667 -104.667 -233 -314c-67.333 -180 -101 -322 -101 -426c0 -81.333 28.667 -122 86 -122c94.667 0 180.667 91.333 258 274
c66 155.333 99 289.666 99 402.999z" />
    <glyph glyph-name="e" unicode="e" horiz-adv-x="724" 
d="M724 741c0 -169.333 -170.666 -286.665 -511.999 -351.998c-26 -73.333 -39 -143 -39 -209c0 -44.667 11.333 -82 34 -112s55.667 -45 99 -45c110.667 0 217.334 93.333 320.001 280c10.667 22 27 54 49 96c4 8.66699 10.333 13 19 13c10.667 0 16 -5.66699 16 -17
c0 -4 -0.666992 -8 -2 -12c-45.333 -105.333 -99.333 -193.333 -162 -264c-82 -92.667 -168.667 -139 -260 -139c-76.667 0 -139.334 33.333 -188.001 100c-45.333 61.333 -68 131.666 -68 210.999c0 135.333 53.333 271.666 160 408.999c112 148 234 222 366 222
c49.333 0 89.666 -17.5 120.999 -52.5s47 -77.833 47 -128.5zM616.001 788.001c0 67.333 -28.667 101 -86 101c-98.667 0 -201 -153.667 -307 -461c98 8 186 45.667 264 113c86 70.667 129 153 129 247z" />
    <glyph glyph-name="f" unicode="f" horiz-adv-x="411" 
d="M904 1176c0 -40 -9.99805 -73.333 -29.998 -100s-46.333 -40 -79 -40c-24.667 0 -45.834 9.33301 -63.501 28s-25.834 40 -24.501 64c1.33301 40 22 69.667 62 89c25.333 13.333 38 33 38 59c2 14.667 -6.33301 27.834 -25 39.501s-39 17.5 -61 17.5
c-95.333 0 -166.333 -66.667 -213 -200l-79 -228h196c11.333 0 17 -6 17 -18c0 -11.333 -7 -17 -21 -17h-203l-446 -1235h-166l444 1235h-192c-8 0 -12 5.66699 -12 17c0 12 8.66699 18 26 18h191l45 119c40.667 105.333 97.167 188.666 169.5 249.999s152.833 92 241.5 92
c52 0 95.833 -18.5 131.5 -55.5s53.5 -81.833 53.5 -134.5z" />
    <glyph glyph-name="g" unicode="g" horiz-adv-x="897" 
d="M908 905l-334.002 -932.002c-26 -73.333 -51.333 -130.666 -76 -171.999c-39.333 -69.333 -95.166 -126.166 -167.499 -170.499s-148.166 -66.5 -227.499 -66.5c-64 0 -120 17.667 -168 53c-52 38 -78 88.667 -78 152c0 34 11 65 33 93s50 42 84 42
c23.333 0 42.833 -8.16699 58.5 -24.5s23.5 -36.166 23.5 -59.499c0 -30 -15 -57 -45 -81s-45 -42 -45 -54c0 -58.667 46.333 -88 139 -88c68 0 124.667 20.333 170 61c34 31.333 64.667 79 92 143l63 176l111 299c-84.667 -194.667 -183.667 -292 -297 -292
c-69.333 0 -123.333 32 -162 96c-31.333 53.333 -47 116.666 -47 189.999c0 187.333 82.667 364.333 248 531c79.333 80.667 155 121 227 121c52 0 91.667 -24 119 -72c22 -38 33 -85.667 33 -143c0 -10 -2 -30 -6 -60l88 258h164zM626.998 699.998
c0 45.333 -6.66602 84.333 -19.999 117c-19.333 45.333 -48 68 -86 68c-78 0 -158 -104 -240 -312c-72.667 -184 -109 -326.667 -109 -428c0 -81.333 28 -122 84 -122c93.333 0 181.666 91.333 264.999 274c70.667 158.667 106 293 106 403z" />
    <glyph glyph-name="h" unicode="h" horiz-adv-x="880" 
d="M881 389c0 -4 -1.33496 -8.66699 -4.00195 -14c-112 -260.667 -220 -391 -324 -391c-43.333 0 -77.333 21.667 -102 65c-20.667 35.333 -31 77.666 -31 126.999c0 75.333 37.333 186.333 112 333s112 249.334 112 308.001c0 46.667 -17.333 70 -52 70
c-76 0 -172 -127 -288 -381c-37.333 -82 -103.666 -250.667 -198.999 -506h-166l444 1249c6 16.667 9 31 9 43c0 24.667 -16.667 37 -50 37h-90c-14.667 0 -22 5.66699 -22 17c0 13.333 5.33301 20 16 20h297c26 0 33.667 -15.667 23 -47
c-149.333 -408 -244.333 -664 -285 -768c57.333 113.333 99 188.333 125 225c66.667 97.333 132.334 146 197.001 146c47.333 0 85.333 -26 114 -78c23.333 -44 35 -92 35 -144c0 -73.333 -36.5 -183.833 -109.5 -331.5s-109.5 -244.5 -109.5 -290.5
c0 -35.333 14.333 -53 43 -53c65.333 0 154 121.333 266 364c5.33301 12.667 13 19 23 19c10.667 0 16 -6.33301 16 -19z" />
    <glyph glyph-name="i" unicode="i" horiz-adv-x="481" 
d="M509 1157c-2.66699 -36.667 -14.834 -67.667 -36.501 -93s-47.5 -38 -77.5 -38c-26 0 -47.167 11 -63.5 33s-23.166 48 -20.499 78c2.66699 35.333 15.167 65 37.5 89s48.833 36 79.5 36c27.333 0 48.5 -10 63.5 -30s20.833 -45 17.5 -75zM481 389
c0 -4 -1.33203 -8.66602 -3.99902 -13.999c-112 -260.667 -220 -391 -324 -391c-43.333 0 -77.333 22.333 -102 67c-20.667 36.667 -31 78.334 -31 125.001c0 57.333 14.333 123.666 43 198.999l166 432c2.66699 9.33301 4 17.333 4 24c0 26 -13 39 -39 39h-78
c-13.333 0 -20 5.66699 -20 17c0 12 6 18 18 18h266c23.333 0 35 -11.667 35 -35c0 -5.33301 -1.33301 -12 -4 -20l-244 -635c-24 -66.667 -36 -112.334 -36 -137.001c0 -35.333 15 -53 45 -53c65.333 0 154 121.333 266 364c5.33301 12.667 12.666 19 21.999 19
c11.333 0 17 -6.33301 17 -19z" />
    <glyph glyph-name="j" unicode="j" horiz-adv-x="393" 
d="M525 1157c-2.66699 -36.667 -15.002 -67.667 -37.002 -93s-48 -38 -78 -38c-26 0 -47.167 11 -63.5 33s-23.166 48 -20.499 78c2.66699 35.333 15.334 65 38.001 89s49 36 79 36c27.333 0 48.5 -10 63.5 -30s21.167 -45 18.5 -75zM421.998 850
c-96.667 -269.333 -220.667 -595.668 -372 -979.001c-84.667 -211.333 -207 -317 -367 -317c-53.333 1.33301 -96 17.666 -128 48.999s-47.333 72.333 -46 123c1.33301 38 13.333 70.333 36 97s49.667 40 81 40c56 -1.33301 83.333 -30.666 82 -87.999
c-1.33301 -38.667 -22 -68 -62 -88c-28.667 -14 -43 -27.667 -43 -41c-1.33301 -37.333 24 -56.666 76 -57.999c39.333 0 74 15.667 104 47c26 27.333 53.333 80 82 158l375 1014c2.66699 8 4 16 4 24c0 26 -13 39 -39 39h-116c-14 0 -21 5.66699 -21 17
c0 12 5.66699 18 17 18h307c23.333 0 35 -11.667 35 -35c0 -5.33301 -1.66699 -12 -5 -20z" />
    <glyph glyph-name="k" unicode="k" horiz-adv-x="880" 
d="M922 776c0 -38 -8.49805 -70.3301 -25.498 -96.9971s-40.5 -40 -70.5 -40c-49.333 0 -74 24 -74 72c0 30 13.333 58 40 84s40 43.667 40 53c0 20.667 -13 31 -39 31c-31.333 0 -65.666 -28 -102.999 -84c-64 -100 -99.333 -154 -106 -162
c-50.667 -60 -108.667 -95 -174 -105c124 -10.667 186 -73.334 186 -188.001c0 -32.667 -11.5 -80.834 -34.5 -144.501s-34.5 -106.834 -34.5 -129.501c0 -27.333 11.333 -41 34 -41c64.667 0 153 121.333 265 364c5.33301 12.667 12.666 19 21.999 19
c10.667 0 16 -6.33301 16 -19c0 -4 -1.33301 -8.66699 -4 -14c-118.667 -260.667 -226.334 -391 -323.001 -391c-41.333 0 -76 13.667 -104 41s-42 61.333 -42 102c0 34 11.333 83.5 34 148.5s34 114.5 34 148.5c0 39.333 -13.667 65.333 -41 78
c-16.667 6.66699 -48.667 10 -96 10h-35l-178 -512h-160l455 1280c2.66699 6.66699 4 12.667 4 18c0 20.667 -16.333 31 -49 31h-95c-13.333 0 -20 5.66699 -20 17c0 13.333 7.33301 20 22 20h283c28.667 0 37 -17 25 -51l-277 -770h17c92.667 0 169 32.667 229 98
c5.33301 6.66699 45.666 66.667 120.999 180c42 66 88.333 99 139 99c36.667 0 65.667 -13.667 87 -41s32 -62.333 32 -105z" />
    <glyph glyph-name="l" unicode="l" horiz-adv-x="489" 
d="M577 1317l-380.999 -1036c-36.667 -102.667 -55 -170.334 -55 -203.001c0 -35.333 13 -53 39 -53c68 0 160.667 121.333 278 364c5.33301 12.667 13 19 23 19c10.667 0 16 -6.33301 16 -19c0 -4 -1.33301 -8.66699 -4 -14c-54.667 -110.667 -99 -190.667 -133 -240
c-70 -100.667 -137 -151 -201 -151c-44 0 -77.333 22.333 -100 67c-19.333 35.333 -29 77 -29 125c0 87.333 24.667 194 74 320l162 389c69.333 169.333 113.666 299 132.999 389c1.33301 6.66699 2 12.667 2 18c0 26 -14.333 39 -43 39h-99c-12 0 -18 5 -18 15
c0 13.333 6.66699 20 20 20h287c22 0 33 -8.33301 33 -25c0 -6.66699 -1.33301 -14.667 -4 -24z" />
    <glyph glyph-name="m" unicode="m" horiz-adv-x="1325" 
d="M1325 389c0 -4 -1.33008 -8.66797 -3.99707 -14.001c-120 -260.667 -227.667 -391 -323 -391c-44 0 -78.333 22.333 -103 67c-20.667 36.667 -31 78.334 -31 125.001c0 75.333 37.333 186.333 112 333s112 249.334 112 308.001c0 46.667 -18 70 -54 70
c-80 0 -176.667 -127 -290 -381c-26 -57.333 -91 -226 -195 -506h-168l164 410c72.667 193.333 109 329 109 407c0 46.667 -18 70 -54 70c-80.667 0 -177.667 -127 -291 -381c-25.333 -57.333 -90 -226 -194 -506h-166l268 750c12.667 35.333 19 59.666 19 72.999
c0 31.333 -20 47 -60 47h-69c-12.667 0 -19 5.66699 -19 17c0 12 6.33301 18 19 18h268c24.667 0 33.667 -13 27 -39c-24.667 -88.667 -61.667 -193.667 -111 -315c114.667 247.333 222 371 322 371c48.667 0 84.667 -26.667 108 -80c19.333 -41.333 29 -89.333 29 -144
c0 -30 -8.33301 -81 -25 -153c117.333 251.333 224.666 377 321.999 377c47.333 0 84.666 -25.333 111.999 -76c24.667 -44 37 -92.667 37 -146c0 -73.333 -36.5 -183.833 -109.5 -331.5s-109.5 -244.5 -109.5 -290.5c0 -35.333 14.333 -53 43 -53
c46.667 0 100 50.333 160 151c23.333 38 58.666 109 105.999 213c6 12.667 13.667 19 23 19c10.667 0 16 -6.33301 16 -19z" />
    <glyph glyph-name="n" unicode="n" horiz-adv-x="890" 
d="M891 389c0 -4 -1.33594 -8.66895 -4.00293 -14.002c-118.667 -260.667 -226.667 -391 -324 -391c-43.333 0 -77.333 22.333 -102 67c-20.667 36.667 -31 78.334 -31 125.001c0 75.333 37.333 186.333 112 333s112 249.334 112 308.001c0 46.667 -17.333 70 -52 70
c-76 0 -172 -127 -288 -381c-37.333 -82 -103.666 -250.667 -198.999 -506h-166l268 743c15.333 41.333 23 69.333 23 84c0 28.667 -17.667 43 -53 43h-80c-12.667 0 -19 5.66699 -19 17c0 12 7 18 21 18h270c24.667 0 32.334 -15 23.001 -45
c-42.667 -128 -79.667 -231 -111 -309c57.333 113.333 99 188.333 125 225c66.667 97.333 132.334 146 197.001 146c47.333 0 85.333 -26 114 -78c23.333 -44 35 -92 35 -144c0 -73.333 -36.5 -183.833 -109.5 -331.5s-109.5 -244.5 -109.5 -290.5
c0 -35.333 14.333 -53 43 -53c65.333 0 154 121.333 266 364c5.33301 12.667 13 19 23 19c10.667 0 16 -6.33301 16 -19z" />
    <glyph glyph-name="o" unicode="o" horiz-adv-x="811" 
d="M780 578c0 -156 -50.167 -294 -150.5 -414s-213.5 -180 -339.5 -180c-70.667 0 -131.667 34 -183 102s-77 150 -77 246c0 152.667 50.167 289.167 150.5 409.5s212.5 180.5 336.5 180.5c74 0 136.333 -33.167 187 -99.5s76 -147.833 76 -244.5zM630 719
c0 113.333 -38.333 170 -115 170c-62.667 0 -122 -52 -178 -156c-46 -86 -84.5 -180.5 -115.5 -283.5s-46.5 -192.167 -46.5 -267.5c0 -110.667 40.333 -166 121 -166c67.333 0 128.333 50.667 183 152c100.667 187.333 151 371 151 551z" />
    <glyph glyph-name="p" unicode="p" horiz-adv-x="870" 
d="M840 627c0 -198 -79.667 -373.668 -239 -527.001c-82 -77.333 -160 -116 -234 -116c-53.333 0 -94.333 25 -123 75c-22.667 41.333 -34 92 -34 152c0 16.667 1.33301 32.334 4 47.001l-236 -676h176c12.667 0 19 -4.66699 19 -14c0 -14 -7.66699 -21 -23 -21h-504
c-9.33301 0 -14 4.33301 -14 13c0 14.667 8.33301 22 25 22h149l416 1176c12 34 18 57.667 18 71c0 27.333 -15 41 -45 41h-92c-19.333 0 -29 5.66699 -29 17c0 12 8.33301 18 25 18h291c12 0 18 -5.33301 18 -16c0 -26 -39.667 -138.667 -119 -338
c105.333 247.333 218 371 338 371c70 0 124.667 -33 164 -99c32.667 -54.667 49 -120 49 -196zM699 759.999c0 82 -28.668 122.999 -86.001 122.999c-78 0 -151.667 -66.333 -221 -199c-97.333 -185.333 -146 -345.666 -146 -480.999c0 -44 7.66699 -83 23 -117
c22 -44 52 -66 90 -66c76.667 0 155.334 104.667 236.001 314c69.333 182.667 104 324.667 104 426z" />
    <glyph glyph-name="q" unicode="q" horiz-adv-x="858" 
d="M909 922l-462.998 -1311h203l-13 -35h-559l12 35h199l217 600c-16 -35.333 -31.667 -64 -47 -86c-65.333 -94 -138.333 -141 -219 -141c-61.333 0 -111.833 26.833 -151.5 80.5s-58.834 121.5 -57.501 203.5c4 200.667 86.667 378.334 248 533.001
c83.333 80.667 166 121 248 121c51.333 0 95.166 -20.167 131.499 -60.5s59.166 -94.166 68.499 -161.499c20.667 30 62.334 99 125.001 207l11 15h47zM630.002 720.998c1.33301 109.333 -34.668 164 -108.001 164c-50.667 0 -98 -35.667 -142 -107
c-54.667 -92.667 -103.167 -201.167 -145.5 -325.5s-64.166 -226.833 -65.499 -307.5c-1.33301 -81.333 26.667 -122 84 -122c78 0 151.667 66 221 198c101.333 195.333 153.333 362 156 500z" />
    <glyph glyph-name="r" unicode="r" horiz-adv-x="655" 
d="M717 793c0 -48 -13.334 -90.833 -40.001 -128.5s-57.667 -56.5 -93 -56.5c-22 0 -40.5 7.83301 -55.5 23.5s-22.5 35.167 -22.5 58.5c0 49.333 30.667 92.333 92 129c16.667 11.333 25 22.333 25 33c0 19.333 -11 29 -33 29c-76.667 0 -171 -126.333 -283 -379
c-21.333 -48 -85.333 -215.333 -192 -502h-166l268 743c14 40 21 68 21 84c0 28.667 -17 43 -51 43h-80c-12.667 0 -19 5.66699 -19 17c0 12 7 18 21 18h270c24.667 0 32.334 -15 23.001 -45c-44 -129.333 -81 -232.333 -111 -309c53.333 109.333 95 185 125 227
c65.333 96 131 144 197 144c30 0 54.833 -12 74.5 -36s29.5 -55 29.5 -93z" />
    <glyph glyph-name="s" unicode="s" horiz-adv-x="724" 
d="M725 721c0 -35.333 -10.8311 -65.335 -32.498 -90.002s-47.5 -37 -77.5 -37c-26 0 -47.833 8.5 -65.5 25.5s-26.5 37.167 -26.5 60.5c0 42 25 70.667 75 86c26 6.66699 39 18.334 39 35.001c0 23.333 -16.333 43.833 -49 61.5s-69.334 26.5 -110.001 26.5
c-63.333 0 -117.5 -16.833 -162.5 -50.5s-67.5 -74.834 -67.5 -123.501c0 -28.667 11.333 -55 34 -79s77.667 -58.667 165 -104c69.333 -35.333 118 -70.333 146 -105s42 -76.667 42 -126c0 -86 -36.5 -160.333 -109.5 -223s-159.833 -94 -260.5 -94
c-80.667 0 -148.334 21.833 -203.001 65.5s-82 96.834 -82 159.501c0 39.333 12.333 73 37 101s54 42 88 42c62.667 0 94 -31.333 94 -94c0 -52 -28 -84.667 -84 -98c-31.333 -8.66699 -47 -21 -47 -37c0 -26 19.833 -49.167 59.5 -69.5s84.167 -30.5 133.5 -30.5
c68 0 125.5 18.667 172.5 56s70.5 84 70.5 140c0 60 -36.667 110 -110 150l-117 63c-95.333 52 -143 119.667 -143 203c0 80.667 32.667 148.667 98 204s144.333 83 237 83c72.667 0 133.5 -19.167 182.5 -57.5s73.5 -86.166 73.5 -143.499z" />
    <glyph glyph-name="t" unicode="t" horiz-adv-x="524" 
d="M591 905c10 0 15.001 -5.33398 15.001 -16.001c0 -12.667 -6.33301 -19 -19 -19h-159l-228 -581l-41 -105c-14.667 -42 -22.667 -78.667 -24 -110c-1.33301 -32.667 13.667 -49 45 -49c83.333 0 176.666 121.333 279.999 364c6 12.667 13.667 19 23 19
c12 0 17.333 -6.33301 16 -19c0 -4 -1.33301 -8.66699 -4 -14c-54.667 -117.333 -95.667 -196 -123 -236c-69.333 -103.333 -142.333 -155 -219 -155c-46 0 -81.333 22.333 -106 67c-19.333 38.667 -28.333 82.334 -27 131.001c2.66699 66 23 148 61 246l175 442h-166
c-12.667 0 -19 5.66699 -19 17c0 12 7.66699 18 23 18h174l86 225c8 -2.66699 17.667 -4 29 -4c65.333 0 125.333 61.667 180 185c4 9.33301 10.667 13.333 20 12c10 -1.33301 12.667 -7.33301 8 -18l-151 -400h151z" />
    <glyph glyph-name="u" unicode="u" horiz-adv-x="880" 
d="M890 389c0 -4 -1.33105 -8.66406 -3.99805 -13.9971c-48.667 -109.333 -90.334 -189.333 -125.001 -240c-66.667 -100.667 -132.667 -151 -198 -151c-76.667 0 -115 49.667 -115 149c0 64 11 122.667 33 176c-40 -86 -85 -158.333 -135 -217
c-62 -72 -120.667 -108 -176 -108c-44 0 -80 21.833 -108 65.5s-42 91.5 -42 143.5c0 46 14.333 106.667 43 182l166 432c2.66699 8 4 16 4 24c0 26 -13 39 -39 39h-63c-14 0 -21 5.66699 -21 17c0 12 6.33301 18 19 18h251c23.333 0 35 -11.667 35 -35
c0 -5.33301 -1.33301 -12 -4 -20c-48 -140.667 -115 -313.334 -201 -518.001c-50 -120 -75 -198.667 -75 -236c0 -47.333 18.333 -71 55 -71c49.333 0 104.666 43.667 165.999 131c44.667 65.333 82.334 134 113.001 206c39.333 97.333 95.666 245.666 168.999 444.999
c3.33301 8 5 16 5 24c0 26 -13 39 -39 39h-58c-13.333 0 -20 5.66699 -20 17c0 12 6 18 18 18h246c23.333 0 35 -11.667 35 -35c0 -5.33301 -1.33301 -12 -4 -20l-244 -635c-24.667 -66.667 -37 -112.334 -37 -137.001c0 -35.333 15 -53 45 -53
c71.333 0 160 121.333 266 364c6 12.667 13.667 19 23 19c10.667 0 16 -6.33301 16 -19z" />
    <glyph glyph-name="v" unicode="v" horiz-adv-x="815" 
d="M816 741c0 -169.333 -64.334 -347.999 -193.001 -535.999c-98 -144.667 -196.333 -217 -295 -217c-60 0 -111 30.667 -153 92c-37.333 56 -56 115.333 -56 178c0 71.333 34.167 172.5 102.5 303.5s102.5 220.833 102.5 269.5c0 37.333 -15.667 56 -47 56
c-24.667 0 -48.667 -11 -72 -33c-48.667 -45.333 -99.667 -121 -153 -227c-7.33301 -16.667 -19 -41.334 -35 -74.001c-5.33301 -9.33301 -12.333 -14 -21 -14c-10.667 0 -16 5.33301 -16 16c0 45.333 37 116.333 111 213c78.667 102.667 145.334 154 200.001 154
c45.333 0 81 -21.333 107 -64c22 -36.667 33 -79 33 -127c0 -72 -30.5 -172.5 -91.5 -301.5s-91.5 -227.833 -91.5 -296.5c0 -75.333 31.333 -113 94 -113c50.667 0 108.334 35 173.001 105c69.333 76.667 128.666 167.334 177.999 272.001
c53.333 113.333 80 217.333 80 312c0 46 -9 69 -27 69c-4 0 -11.833 -17 -23.5 -51s-35.167 -51 -70.5 -51c-57.333 0 -86 37.333 -86 112c0 37.333 11.5 70.666 34.5 99.999s52.5 44 88.5 44c44.667 0 78 -22 100 -66c18 -34 27 -75.667 27 -125z" />
    <glyph glyph-name="w" unicode="w" horiz-adv-x="1187" 
d="M1181 737c0 -129.333 -49.001 -282 -147.001 -458c-110.667 -196.667 -225.334 -295 -344.001 -295c-61.333 0 -110 23 -146 69c-34 42.667 -51 95.334 -51 158.001c0 31.333 6.33301 67.333 19 108c-33.333 -78.667 -72.333 -148 -117 -208
c-62.667 -84.667 -124.334 -127 -185.001 -127c-54 0 -99.167 21.167 -135.5 63.5s-54.5 89.166 -54.5 140.499c0 56 13 118.333 39 187l166 432c2.66699 8 4 16 4 24c0 26 -13 39 -39 39h-84c-13.333 0 -20 5.66699 -20 17c0 12 6 18 18 18h272c23.333 0 35 -11.667 35 -35
c0 -5.33301 -1.33301 -12 -4 -20l-203 -524c-39.333 -106.667 -59 -175 -59 -205c0 -67.333 24 -101 72 -101c62.667 0 129.334 63 200.001 189c48 83.333 105.333 211.666 172 384.999l121 311h168l-225 -583c-28.667 -74 -43 -140.333 -43 -199c0 -66.667 32 -100 96 -100
c92.667 0 189 90.667 289 272c91.333 166.667 137 302.334 137 407.001c0 49.333 -7.33301 74 -22 74c-4.66699 0 -12.667 -17 -24 -51s-35.666 -51 -72.999 -51c-27.333 0 -48.166 11.5 -62.499 34.5s-21.5 48.833 -21.5 77.5c0 38.667 11.333 72 34 100s53 42 91 42
c84.667 0 127 -63.667 127 -191z" />
    <glyph glyph-name="x" unicode="x" horiz-adv-x="968" 
d="M990 735c0 -39.333 -10.334 -76.6689 -31.001 -112.002c-24.667 -41.333 -55.334 -62 -92.001 -62c-23.333 0 -42.833 8.83301 -58.5 26.5s-23.5 38.167 -23.5 61.5c0 37.333 21.167 72 63.5 104s63.5 57.333 63.5 76c0 40 -21.667 60 -65 60
c-78 0 -157.333 -106.667 -238 -320c-71.333 -185.333 -107 -328 -107 -428c0 -78.667 26.667 -118 80 -118c88.667 0 181.667 96 279 288c9.33301 22 24.333 53.667 45 95c5.33301 10.667 12 16 20 16c11.333 0 17 -5.33301 17 -16c0 -4.66699 -0.666992 -9 -2 -13
c-116 -272.667 -239 -409 -369 -409c-52 0 -91.667 21 -119 63c-21.333 35.333 -32 81 -32 137c0 27.333 3.33301 61 10 101c-74 -200.667 -175.667 -301 -305 -301c-50.667 0 -89.667 19 -117 57c-26 34 -39 77 -39 129c0 39.333 10.333 77 31 113
c24.667 40.667 55.334 61 92.001 61c53.333 0 80 -29.333 80 -88c0 -35.333 -21.167 -69.833 -63.5 -103.5s-63.5 -59.167 -63.5 -76.5c0 -41.333 25.333 -62 76 -62c62.667 0 116.334 46 161.001 138c36 72 75 173 117 303c45.333 143.333 68 246.333 68 309
c0 79.333 -27.333 119 -82 119c-104 0 -204.333 -112 -301 -336c-10 -20.667 -18.333 -31 -25 -31c-12 0 -18 6.33301 -18 19c0 58.667 41.667 136.334 125 233.001c87.333 102.667 164.333 154 231 154c101.333 0 152 -70.333 152 -211
c0 -31.333 -2.33301 -60.666 -7 -87.999c92 199.333 192.333 299 301 299c46.667 0 83.667 -20.667 111 -62c23.333 -35.333 35 -77 35 -125z" />
    <glyph glyph-name="y" unicode="y" horiz-adv-x="784" 
d="M822 905l-313 -931.998c-24.667 -72 -48.667 -129.333 -72 -172c-38 -70.667 -92.833 -127.834 -164.5 -171.501s-147.167 -65.5 -226.5 -65.5c-62.667 0 -118.667 17.667 -168 53c-54.667 39.333 -82 90 -82 152c0 35.333 10.5 66.666 31.5 93.999s48.833 41 83.5 41
c21.333 0 40.333 -8.5 57 -25.5s25 -36.5 25 -58.5c0 -32.667 -14.667 -60 -44 -82s-44 -39.667 -44 -53c0 -58.667 47 -88 141 -88c74.667 0 132 19.667 172 59c35.333 35.333 83 142.333 143 321l129 383c-116 -250.667 -223.667 -376 -323 -376
c-98.667 0 -148 73.667 -148 221c0 40.667 13.667 97.334 41 170.001c38.667 94 94 238 166 432c2.66699 8 4 16 4 24c0 26 -13 39 -39 39h-84c-13.333 0 -20 5.66699 -20 17c0 12 6 18 18 18h273c22.667 0 34 -11.667 34 -35c0 -5.33301 -1.33301 -12 -4 -20l-243 -635
c-24.667 -66.667 -37 -112.334 -37 -137.001c0 -40 16.333 -60 49 -60c62.667 0 137 75.333 223 226c58.667 104.667 105.667 207 141 307l125 354h156z" />
    <glyph glyph-name="z" unicode="z" horiz-adv-x="749" 
d="M750 848c0 -160 -123 -300.665 -369 -421.998l-190 -94c-94 -46.667 -146.667 -110.334 -158 -191.001c18 56 53 84 105 84c31.333 0 79.333 -15.667 144 -47s115.667 -47 153 -47c107.333 0 185.666 82.667 234.999 248c5.33301 20.667 12.333 31 21 31
c10.667 0 16 -6.33301 16 -19c0 -2.66699 -1.33301 -9.33398 -4 -20.001c-75.333 -258 -180.333 -387 -315 -387c-49.333 0 -91.666 16.333 -126.999 49c-6 5.33301 -30.667 35.333 -74 90c-24.667 32.667 -50 49 -76 49c-30 0 -45 -14.333 -45 -43
c0 -12 5.16699 -27 15.5 -45s15.5 -35 15.5 -51c0 -32.667 -16.333 -49 -49 -49c-45.333 0 -68 36 -68 108c0 82 43 167.333 129 256c69.333 71.333 193 150.666 371 237.999c73.333 35.333 121.666 62 144.999 80c50.667 38 76 82.333 76 133c-8 -62.667 -49 -94 -123 -94
c-30 0 -70.333 13.167 -121 39.5s-89 39.5 -115 39.5c-77.333 0 -140.666 -58 -189.999 -174l-29 -73c-5.33301 -11.333 -12 -17 -20 -17c-9.33301 0 -14 5.66699 -14 17c0 2.66699 2.66699 11.334 8 26.001c80.667 239.333 177 359 289 359
c43.333 0 86.5 -27.333 129.5 -82s78.167 -82 105.5 -82c32.667 0 49 14.333 49 43c0 8 -3.33301 20.167 -10 36.5s-10 28.5 -10 36.5c0 33.333 15.667 50 47 50c35.333 0 53 -25.333 53 -76z" />
    <glyph glyph-name="braceleft" unicode="{" horiz-adv-x="555" 
d="M991 1536c9.33301 0 14.002 -4.66699 14.002 -14c0 -14 -7.33301 -21 -22 -21h-82c-84.667 0 -152.334 -67.667 -203.001 -203l-129 -350c-31.333 -83.333 -63.333 -144 -96 -182c-42.667 -52 -101.334 -85.333 -176.001 -100c72 -20.667 108 -61.667 108 -123
c0 -34 -10.667 -82 -32 -144l-140 -379c-21.333 -60 -32 -107.667 -32 -143c0 -48 19.667 -72 59 -72h149c12.667 0 19 -5.33301 19 -16c0 -13.333 -7 -20 -21 -20h-186c-58.667 0 -106.334 20.333 -143.001 61c-18 19.333 -27 45.333 -27 78c0 35.333 11.667 85 35 149
l139 377c19.333 52 29 88.333 29 109c0 62.667 -34.333 103.667 -103 123c70 16 122 41 156 75c30 30 58 80.667 84 152l119 334c74.667 206 182.334 309 323.001 309h158z" />
    <glyph glyph-name="bar" unicode="|" horiz-adv-x="948" 
d="M538 0h-129v1366h129v-1366z" />
    <glyph glyph-name="braceright" unicode="}" horiz-adv-x="739" 
d="M662 1475c17.333 -19.333 25.999 -45.334 25.999 -78.001c0 -34 -12.333 -83.333 -37 -148l-137 -379c-18.667 -51.333 -28 -87.333 -28 -108c0 -62.667 33.333 -103 100 -121c-70 -16.667 -122 -42 -156 -76c-28.667 -30 -56 -80.333 -82 -151l-120 -334
c-75.333 -207.333 -183.333 -311 -324 -311h-197c-9.33301 0 -14 5.33301 -14 16c0 12 6.66699 18 20 18h125c84.667 0 152.334 68.333 203.001 205l129 348c30 84.667 61.333 146.334 94 185.001c44 50 103.667 83.333 179 100c-72.667 19.333 -109 60.333 -109 123
c0 34 11 81.667 33 143l139 377c22 61.333 33 110 33 146c0 46 -20 69 -60 69h-88c-12 0 -18 5.66699 -18 17c0 13.333 6.66699 20 20 20h123c60 0 108.667 -20.333 146 -61z" />
    <glyph glyph-name="asciitilde" unicode="~" horiz-adv-x="499" 
d="M821 1159c-23.333 -50.667 -42.668 -84 -58.001 -100c-24.667 -30 -54.667 -45 -90 -45c-34 0 -80 14.667 -138 44s-96 44 -114 44c-40.667 0 -76 -26 -106 -78c-5.33301 -8 -11 -12 -17 -12c-10.667 0 -12.667 6.66699 -6 20c42.667 100 103.667 150 183 150
c28.667 0 71.334 -13 128.001 -39s92.334 -39 107.001 -39c36.667 0 66.667 21 90 63c5.33301 10 11.666 13.667 18.999 11c5.33301 -2.66699 6 -9 2 -19z" />
    <glyph glyph-name="dieresis" unicode="&#xa8;" horiz-adv-x="1024" 
 />
    <glyph glyph-name="copyright" unicode="&#xa9;" horiz-adv-x="1683" 
 />
    <glyph glyph-name="registered" unicode="&#xae;" horiz-adv-x="1683" 
 />
    <glyph glyph-name="acute" unicode="&#xb4;" horiz-adv-x="1024" 
 />
    <glyph glyph-name="paragraph" unicode="&#xb6;" horiz-adv-x="1024" 
d="M929 1435l-0.000976562 -70h-127v-1365h-82v1365h-166v-1365h-84v738c-116 5.33301 -207.833 39.5 -275.5 102.5s-101.5 144.833 -101.5 245.5c0 104.667 35.833 189 107.5 253s166.834 96 285.501 96h443z" />
    <glyph glyph-name="onequarter" unicode="&#xbc;" horiz-adv-x="1323" 
d="M698 1401l-289 -771.999h102c14 0 21 -5.66699 21 -17c0 -9.33301 -7 -14 -21 -14h-338c-13.333 0 -20 5.33301 -20 16c0 10 7.66699 15 23 15h106l219 588c-52 -28.667 -112.667 -43 -182 -43c-10.667 0 -16 6 -16 18c0 13.333 7.33301 20.666 22 21.999
c61.333 2 114.666 15.667 159.999 41c58.667 33.333 104.334 82 137.001 146h76zM1044 1366l-596 -1366h-53l594 1366h55zM1322 575.001c-4 -42 -17.6689 -80.0029 -41.002 -114.003c-30 -44 -92 -91.333 -186 -142l-111 -61c-81.333 -45.333 -142.666 -93 -183.999 -143
c22 1.33301 56.333 2 103 2h44.5h65.5h41c34 0 55.833 3 65.5 9s19.834 22 30.501 48l41 107h52c-4.66699 -6 -8.33398 -11.667 -11.001 -17s-14.334 -36.666 -35.001 -93.999l-38 -102l-29 -86l-23 8c-20 8 -85.333 12 -196 12c-101.333 0 -170.333 -3.33301 -207 -10
l-43 -15c24.667 72.667 71 140.334 139 203.001c34 32.667 95.333 77 184 133c37.333 23.333 66.333 43.333 87 60c74.667 62.667 116 144.334 124 245.001c8.66699 98.667 -30.666 148 -117.999 148c-44 0 -80.667 -13.667 -110 -41s-45.333 -58 -48 -92
c-1.33301 -15.333 3.33398 -23 14.001 -23h2l21 2h6c45.333 0 68 -21 68 -63c0 -22 -8.33301 -41.167 -25 -57.5s-38.667 -24.5 -66 -24.5c-61.333 0 -92 36 -92 108c0 54.667 20.667 104 62 148c47.333 50.667 109.333 76 186 76c70 0 126.5 -21.167 169.5 -63.5
s62.167 -95.833 57.5 -160.5z" />
    <glyph glyph-name="onehalf" unicode="&#xbd;" horiz-adv-x="1300" 
d="M698 1401l-289 -771.999h102c14 0 21 -5.66699 21 -17c0 -9.33301 -7 -14 -21 -14h-338c-13.333 0 -20 5.33301 -20 16c0 10 7.66699 15 23 15h106l219 588c-52 -28.667 -112.667 -43 -182 -43c-10.667 0 -16 6 -16 18c0 13.333 7.33301 20.666 22 21.999
c61.333 2 114.666 15.667 159.999 41c58.667 33.333 104.334 82 137.001 146h76zM1044 1366l-596 -1366h-53l594 1366h55zM1300 793.001l-199 -531h135l-24 -63h-133l-64 -168h109c14.667 0 22 -5.66699 22 -17c0 -9.33301 -6.66699 -14 -20 -14h-355
c-12 0 -18 5.33301 -18 16c0 10 7 15 21 15h116l66 168h-291l16 39c33.333 17.333 87.333 63 162 137c86 86 157 161 213 225l111 129l47 64h86zM1099 586.001l-18 -21c-106.667 -118.667 -205.667 -219.667 -297 -303h194z" />
    <glyph glyph-name="threequarters" unicode="&#xbe;" horiz-adv-x="1357" 
d="M1101 1366l-596 -1366h-53l594 1366h55zM768 1202c-10 -103.333 -77.0029 -167.332 -201.003 -191.999c32.667 -15.333 59.5 -39.666 80.5 -72.999s30.167 -67.666 27.5 -102.999c-5.33301 -67.333 -39.666 -126.5 -102.999 -177.5s-134 -76.5 -212 -76.5
c-62.667 0 -113.834 16 -153.501 48s-57.5 72.667 -53.5 122c2.66699 34 14.667 62.167 36 84.5s46.333 33.5 75 33.5c50.667 0 73.667 -23.667 69 -71c-4 -50.667 -30.667 -76 -80 -76h-16c-10.667 0 -16.667 -5.33301 -18 -16
c-1.33301 -20.667 10.834 -41.334 36.501 -62.001s55.834 -31 90.501 -31c47.333 0 86.666 15.667 117.999 47c52 54.667 82.333 128 91 220c5.33301 78.667 -35.667 118 -123 118c-18 0 -38 -2 -60 -6c-9.33301 -1.33301 -18 -2 -26 -2c-27.333 0 -41 9 -41 27
c0 20.667 15.667 31 47 31c6.66699 0 15.334 -1.66699 26.001 -5c36 -8 64 -12 84 -12c42.667 0 81 15 115 45c42.667 40 66.667 94 72 162c6.66699 87.333 -28.333 131 -105 131c-32.667 0 -60.167 -8.83301 -82.5 -26.5s-34.166 -35.5 -35.499 -53.5
c0 -4 8 -8.66699 24 -14c30 -9.33301 45 -28.333 45 -57c0 -19.333 -7.5 -36.833 -22.5 -52.5s-34.167 -23.5 -57.5 -23.5c-26 0 -46.833 9.16699 -62.5 27.5s-22.834 40.5 -21.501 66.5c4 45.333 28.333 83.666 73 114.999s95 47 151 47
c62.667 0 114.834 -18.833 156.501 -56.5s60.5 -83.834 56.5 -138.501zM1357 793.001l-198.001 -531h135l-25 -63h-133l-63 -168h108c15.333 0 23 -5.66699 23 -17c0 -9.33301 -7 -14 -21 -14h-354c-12 0 -18 5.33301 -18 16c0 10 6.66699 15 20 15h117l65 168h-291l17 39
c32.667 17.333 86.667 63 162 137c86 86 157 161 213 225c24.667 27.333 61.334 70.333 110.001 129c10 12.667 25.667 34 47 64h86zM1157 586.001l-19 -21c-106.667 -118.667 -205.667 -219.667 -297 -303h195z" />
    <glyph glyph-name="Agrave" unicode="&#xc0;" 
d="M2222 1395c-280 -234 -464.333 -686.668 -553 -1358h160c16 0 24 -6.33301 24 -19c0 -12 -7.33301 -18 -22 -18h-537c-12 0 -18 5.33301 -18 16c0 14 8.66699 21 26 21h168c40 220 92.667 420 158 600h-277c-214 -483.333 -492.333 -725 -835 -725
c-134 0 -245 43 -333 129s-132 196.667 -132 332c0 152.667 61.5 289.834 184.5 411.501s261.5 182.5 415.5 182.5c110.667 0 199.167 -31.833 265.5 -95.5s99.5 -147.167 99.5 -250.5c0 -136.667 -50.667 -257.667 -152 -363c-95.333 -98 -197.666 -147 -306.999 -147
c-78 0 -143.333 22.5 -196 67.5s-79 102.167 -79 171.5c0 31.333 9.66699 69 29 113c23.333 52 48.666 78 75.999 78c17.333 0 26 -7.66699 26 -23c0 -8 -4 -14 -12 -18c-53.333 -34 -80 -84 -80 -150c0 -58.667 23 -107.5 69 -146.5s101 -58.5 165 -58.5
c103.333 0 199.166 47.833 287.499 143.5s132.5 205.5 132.5 329.5c0 100 -33 178.667 -99 236c-60 50.667 -134.333 76 -223 76c-138 0 -264.333 -56 -379 -168c-118.667 -113.333 -178 -243 -178 -389c0 -127.333 42.333 -231.333 127 -312
c79.333 -74.667 176.333 -112 291 -112c319.333 0 579.333 224 780 672c95.333 212.667 178 368 248 466c128 187.333 261 281 399 281c80.667 0 123.667 -15 129.001 -45c42.667 31.333 85.667 58 129 80c12.667 5.33301 21 6 25 2c2.66699 -2.66699 2 -6 -2 -10z
M2042 1298c-6 3.33301 -20.334 10.332 -43.001 20.999c-16.667 6.66699 -36 10 -58 10c-189.333 0 -379.666 -217 -570.999 -651h274c108 282.667 240.667 489.334 398 620.001zM1931 1430h-43l-199 227h125z" />
    <glyph glyph-name="Aacute" unicode="&#xc1;" 
d="M2222 1395c-280 -234 -464.333 -686.668 -553 -1358h160c16 0 24 -6.33301 24 -19c0 -12 -7.33301 -18 -22 -18h-537c-12 0 -18 5.33301 -18 16c0 14 8.66699 21 26 21h168c40 220 92.667 420 158 600h-277c-214 -483.333 -492.333 -725 -835 -725
c-134 0 -245 43 -333 129s-132 196.667 -132 332c0 152.667 61.5 289.834 184.5 411.501s261.5 182.5 415.5 182.5c110.667 0 199.167 -31.833 265.5 -95.5s99.5 -147.167 99.5 -250.5c0 -136.667 -50.667 -257.667 -152 -363c-95.333 -98 -197.666 -147 -306.999 -147
c-78 0 -143.333 22.5 -196 67.5s-79 102.167 -79 171.5c0 31.333 9.66699 69 29 113c23.333 52 48.666 78 75.999 78c17.333 0 26 -7.66699 26 -23c0 -8 -4 -14 -12 -18c-53.333 -34 -80 -84 -80 -150c0 -58.667 23 -107.5 69 -146.5s101 -58.5 165 -58.5
c103.333 0 199.166 47.833 287.499 143.5s132.5 205.5 132.5 329.5c0 100 -33 178.667 -99 236c-60 50.667 -134.333 76 -223 76c-138 0 -264.333 -56 -379 -168c-118.667 -113.333 -178 -243 -178 -389c0 -127.333 42.333 -231.333 127 -312
c79.333 -74.667 176.333 -112 291 -112c319.333 0 579.333 224 780 672c95.333 212.667 178 368 248 466c128 187.333 261 281 399 281c80.667 0 123.667 -15 129.001 -45c42.667 31.333 85.667 58 129 80c12.667 5.33301 21 6 25 2c2.66699 -2.66699 2 -6 -2 -10z
M2042 1298c-6 3.33301 -20.334 10.332 -43.001 20.999c-16.667 6.66699 -36 10 -58 10c-189.333 0 -379.666 -217 -570.999 -651h274c108 282.667 240.667 489.334 398 620.001zM2154 1675l-190 -227h-43l117 227h116z" />
    <glyph glyph-name="Acircumflex" unicode="&#xc2;" 
d="M2222 1395c-280 -234 -464.333 -686.668 -553 -1358h160c16 0 24 -6.33301 24 -19c0 -12 -7.33301 -18 -22 -18h-537c-12 0 -18 5.33301 -18 16c0 14 8.66699 21 26 21h168c40 220 92.667 420 158 600h-277c-214 -483.333 -492.333 -725 -835 -725
c-134 0 -245 43 -333 129s-132 196.667 -132 332c0 152.667 61.5 289.834 184.5 411.501s261.5 182.5 415.5 182.5c110.667 0 199.167 -31.833 265.5 -95.5s99.5 -147.167 99.5 -250.5c0 -136.667 -50.667 -257.667 -152 -363c-95.333 -98 -197.666 -147 -306.999 -147
c-78 0 -143.333 22.5 -196 67.5s-79 102.167 -79 171.5c0 31.333 9.66699 69 29 113c23.333 52 48.666 78 75.999 78c17.333 0 26 -7.66699 26 -23c0 -8 -4 -14 -12 -18c-53.333 -34 -80 -84 -80 -150c0 -58.667 23 -107.5 69 -146.5s101 -58.5 165 -58.5
c103.333 0 199.166 47.833 287.499 143.5s132.5 205.5 132.5 329.5c0 100 -33 178.667 -99 236c-60 50.667 -134.333 76 -223 76c-138 0 -264.333 -56 -379 -168c-118.667 -113.333 -178 -243 -178 -389c0 -127.333 42.333 -231.333 127 -312
c79.333 -74.667 176.333 -112 291 -112c319.333 0 579.333 224 780 672c95.333 212.667 178 368 248 466c128 187.333 261 281 399 281c80.667 0 123.667 -15 129.001 -45c42.667 31.333 85.667 58 129 80c12.667 5.33301 21 6 25 2c2.66699 -2.66699 2 -6 -2 -10z
M2042 1298c-6 3.33301 -20.334 10.332 -43.001 20.999c-16.667 6.66699 -36 10 -58 10c-189.333 0 -379.666 -217 -570.999 -651h274c108 282.667 240.667 489.334 398 620.001zM2132 1438l-34.999 0.000976562c-50.667 28.667 -102 73.667 -154 135
c-104.667 -66.667 -194 -111.667 -268 -135c-2.66699 -1.33301 -21 -1.33301 -55 0c58.667 27.333 116.667 60.666 174 99.999c69.333 49.333 113.666 92.333 132.999 129h68c4 -42 49.667 -118.333 137 -229z" />
    <glyph glyph-name="Atilde" unicode="&#xc3;" 
d="M2222 1395c-280 -234 -464.333 -686.668 -553 -1358h160c16 0 24 -6.33301 24 -19c0 -12 -7.33301 -18 -22 -18h-537c-12 0 -18 5.33301 -18 16c0 14 8.66699 21 26 21h168c40 220 92.667 420 158 600h-277c-214 -483.333 -492.333 -725 -835 -725
c-134 0 -245 43 -333 129s-132 196.667 -132 332c0 152.667 61.5 289.834 184.5 411.501s261.5 182.5 415.5 182.5c110.667 0 199.167 -31.833 265.5 -95.5s99.5 -147.167 99.5 -250.5c0 -136.667 -50.667 -257.667 -152 -363c-95.333 -98 -197.666 -147 -306.999 -147
c-78 0 -143.333 22.5 -196 67.5s-79 102.167 -79 171.5c0 31.333 9.66699 69 29 113c23.333 52 48.666 78 75.999 78c17.333 0 26 -7.66699 26 -23c0 -8 -4 -14 -12 -18c-53.333 -34 -80 -84 -80 -150c0 -58.667 23 -107.5 69 -146.5s101 -58.5 165 -58.5
c103.333 0 199.166 47.833 287.499 143.5s132.5 205.5 132.5 329.5c0 100 -33 178.667 -99 236c-60 50.667 -134.333 76 -223 76c-138 0 -264.333 -56 -379 -168c-118.667 -113.333 -178 -243 -178 -389c0 -127.333 42.333 -231.333 127 -312
c79.333 -74.667 176.333 -112 291 -112c319.333 0 579.333 224 780 672c95.333 212.667 178 368 248 466c128 187.333 261 281 399 281c80.667 0 123.667 -15 129.001 -45c42.667 31.333 85.667 58 129 80c12.667 5.33301 21 6 25 2c2.66699 -2.66699 2 -6 -2 -10z
M2042 1298c-6 3.33301 -20.334 10.332 -43.001 20.999c-16.667 6.66699 -36 10 -58 10c-189.333 0 -379.666 -217 -570.999 -651h274c108 282.667 240.667 489.334 398 620.001zM2212 1612c-23.333 -50.667 -42.667 -84.332 -58 -100.999c-24.667 -30 -54.667 -45 -90 -45
c-34 0 -80 14.667 -138 44s-96 44 -114 44c-40.667 0 -76 -25.667 -106 -77c-5.33301 -8.66699 -11 -13 -17 -13c-10.667 0 -12.667 7 -6 21c42.667 99.333 103.667 149 183 149c28.667 0 71.334 -13 128.001 -39s92.334 -39 107 -39c36.667 0 66.667 21.333 90 64
c5.33301 9.33301 11.666 12.666 18.999 9.99902c5.33301 -2.66699 6 -8.66699 2 -18z" />
    <glyph glyph-name="Egrave" unicode="&#xc8;" horiz-adv-x="1271" 
d="M1312 1413c-32.667 -70.667 -86.3311 -204.332 -160.998 -400.999c-4.66699 -10 -11 -15 -19 -15c-12 0 -16 7.66699 -12 23c14.667 49.333 22 95 22 137c0 80.667 -23.833 143.5 -71.5 188.5s-109.167 67.5 -184.5 67.5c-102 0 -182.333 -43 -241 -129
c-53.333 -79.333 -80 -178.333 -80 -297c0 -72 19 -119 57 -141c50.667 12 100.667 18 150 18c70.667 0 106 -13.667 106 -41c0 -28.667 -34.667 -43 -104 -43c-40 0 -90.667 8.33301 -152 25c-84.667 -27.333 -157.667 -77.333 -219 -150
c-69.333 -83.333 -106.333 -177.333 -111 -282c-5.33301 -118.667 24.5 -213.167 89.5 -283.5s159.5 -105.5 283.5 -105.5c143.333 0 271.666 52.333 384.999 157c109.333 101.333 164 211.333 164 330c0 71.333 -21 128.666 -63 171.999
c-46.667 45.333 -111.667 68 -195 68c-109.333 0 -205.666 -43.667 -288.999 -131c-73.333 -78 -110 -154 -110 -228c0 -66.667 20.333 -118.334 61 -155.001c35.333 -31.333 81.666 -47 138.999 -47c100 0 186.667 52.333 260 157c4.66699 6.66699 10.334 10 17.001 10
c13.333 0 20 -6 20 -18c0 -4 -0.666992 -7.33301 -2 -10c-76 -114.667 -175 -172 -297 -172c-70.667 0 -127.5 20.833 -170.5 62.5s-64.5 97.167 -64.5 166.5c0 100 45.667 191.167 137 273.5s192.333 123.5 303 123.5c84.667 0 154.334 -24.167 209.001 -72.5
s82 -112.833 82 -193.5c0 -128 -54 -246 -162 -354c-117.333 -117.333 -258.666 -176 -423.999 -176c-166.667 0 -300.334 35.333 -401.001 106c-108 78 -156.667 183.333 -146 316c10 125.333 71.667 234.333 185 327c86 70 177.333 116 274 138
c-34 18.667 -63.333 48.667 -88 90c-28.667 44.667 -43 94.334 -43 149.001c0 104 42 191.833 126 263.5s190 107.5 318 107.5c59.333 0 119.666 -15.667 180.999 -47s100.666 -47 117.999 -47c34.667 0 65 25.667 91 77c5.33301 11.333 12.666 17 21.999 17
c16.667 0 20 -10.333 10 -31zM835.003 821.002c0 11.333 -21.668 17 -65.001 17c-36 0 -68.333 -4.33301 -97 -13c20.667 -8 54.334 -12.667 101.001 -14c40.667 -1.33301 61 2 61 10zM890.002 1509h-43l-198 228h125z" />
    <glyph glyph-name="Eacute" unicode="&#xc9;" horiz-adv-x="1271" 
d="M1312 1413c-32.667 -70.667 -86.3311 -204.332 -160.998 -400.999c-4.66699 -10 -11 -15 -19 -15c-12 0 -16 7.66699 -12 23c14.667 49.333 22 95 22 137c0 80.667 -23.833 143.5 -71.5 188.5s-109.167 67.5 -184.5 67.5c-102 0 -182.333 -43 -241 -129
c-53.333 -79.333 -80 -178.333 -80 -297c0 -72 19 -119 57 -141c50.667 12 100.667 18 150 18c70.667 0 106 -13.667 106 -41c0 -28.667 -34.667 -43 -104 -43c-40 0 -90.667 8.33301 -152 25c-84.667 -27.333 -157.667 -77.333 -219 -150
c-69.333 -83.333 -106.333 -177.333 -111 -282c-5.33301 -118.667 24.5 -213.167 89.5 -283.5s159.5 -105.5 283.5 -105.5c143.333 0 271.666 52.333 384.999 157c109.333 101.333 164 211.333 164 330c0 71.333 -21 128.666 -63 171.999
c-46.667 45.333 -111.667 68 -195 68c-109.333 0 -205.666 -43.667 -288.999 -131c-73.333 -78 -110 -154 -110 -228c0 -66.667 20.333 -118.334 61 -155.001c35.333 -31.333 81.666 -47 138.999 -47c100 0 186.667 52.333 260 157c4.66699 6.66699 10.334 10 17.001 10
c13.333 0 20 -6 20 -18c0 -4 -0.666992 -7.33301 -2 -10c-76 -114.667 -175 -172 -297 -172c-70.667 0 -127.5 20.833 -170.5 62.5s-64.5 97.167 -64.5 166.5c0 100 45.667 191.167 137 273.5s192.333 123.5 303 123.5c84.667 0 154.334 -24.167 209.001 -72.5
s82 -112.833 82 -193.5c0 -128 -54 -246 -162 -354c-117.333 -117.333 -258.666 -176 -423.999 -176c-166.667 0 -300.334 35.333 -401.001 106c-108 78 -156.667 183.333 -146 316c10 125.333 71.667 234.333 185 327c86 70 177.333 116 274 138
c-34 18.667 -63.333 48.667 -88 90c-28.667 44.667 -43 94.334 -43 149.001c0 104 42 191.833 126 263.5s190 107.5 318 107.5c59.333 0 119.666 -15.667 180.999 -47s100.666 -47 117.999 -47c34.667 0 65 25.667 91 77c5.33301 11.333 12.666 17 21.999 17
c16.667 0 20 -10.333 10 -31zM835.003 821.002c0 11.333 -21.668 17 -65.001 17c-36 0 -68.333 -4.33301 -97 -13c20.667 -8 54.334 -12.667 101.001 -14c40.667 -1.33301 61 2 61 10zM1089 1716l-190 -227h-43l116 227h117z" />
    <glyph glyph-name="Ecircumflex" unicode="&#xca;" horiz-adv-x="1271" 
d="M1312 1413c-32.667 -70.667 -86.3311 -204.332 -160.998 -400.999c-4.66699 -10 -11 -15 -19 -15c-12 0 -16 7.66699 -12 23c14.667 49.333 22 95 22 137c0 80.667 -23.833 143.5 -71.5 188.5s-109.167 67.5 -184.5 67.5c-102 0 -182.333 -43 -241 -129
c-53.333 -79.333 -80 -178.333 -80 -297c0 -72 19 -119 57 -141c50.667 12 100.667 18 150 18c70.667 0 106 -13.667 106 -41c0 -28.667 -34.667 -43 -104 -43c-40 0 -90.667 8.33301 -152 25c-84.667 -27.333 -157.667 -77.333 -219 -150
c-69.333 -83.333 -106.333 -177.333 -111 -282c-5.33301 -118.667 24.5 -213.167 89.5 -283.5s159.5 -105.5 283.5 -105.5c143.333 0 271.666 52.333 384.999 157c109.333 101.333 164 211.333 164 330c0 71.333 -21 128.666 -63 171.999
c-46.667 45.333 -111.667 68 -195 68c-109.333 0 -205.666 -43.667 -288.999 -131c-73.333 -78 -110 -154 -110 -228c0 -66.667 20.333 -118.334 61 -155.001c35.333 -31.333 81.666 -47 138.999 -47c100 0 186.667 52.333 260 157c4.66699 6.66699 10.334 10 17.001 10
c13.333 0 20 -6 20 -18c0 -4 -0.666992 -7.33301 -2 -10c-76 -114.667 -175 -172 -297 -172c-70.667 0 -127.5 20.833 -170.5 62.5s-64.5 97.167 -64.5 166.5c0 100 45.667 191.167 137 273.5s192.333 123.5 303 123.5c84.667 0 154.334 -24.167 209.001 -72.5
s82 -112.833 82 -193.5c0 -128 -54 -246 -162 -354c-117.333 -117.333 -258.666 -176 -423.999 -176c-166.667 0 -300.334 35.333 -401.001 106c-108 78 -156.667 183.333 -146 316c10 125.333 71.667 234.333 185 327c86 70 177.333 116 274 138
c-34 18.667 -63.333 48.667 -88 90c-28.667 44.667 -43 94.334 -43 149.001c0 104 42 191.833 126 263.5s190 107.5 318 107.5c59.333 0 119.666 -15.667 180.999 -47s100.666 -47 117.999 -47c34.667 0 65 25.667 91 77c5.33301 11.333 12.666 17 21.999 17
c16.667 0 20 -10.333 10 -31zM835.003 821.002c0 11.333 -21.668 17 -65.001 17c-36 0 -68.333 -4.33301 -97 -13c20.667 -8 54.334 -12.667 101.001 -14c40.667 -1.33301 61 2 61 10zM1146 1491l-33.998 0.000976562c-50.667 28.667 -102 73.667 -154 135
c-105.333 -66.667 -194.666 -111.667 -267.999 -135c-2.66699 -1.33301 -21.334 -1.33301 -56.001 0c59.333 27.333 117.666 60.666 174.999 99.999c69.333 49.333 113.666 92.333 132.999 129h67c4 -42 49.667 -118.333 137 -229z" />
    <glyph glyph-name="Igrave" unicode="&#xcc;" horiz-adv-x="1411" 
d="M1706 1452c-76.667 -49.333 -139.664 -121.005 -188.997 -215.005c-36.667 -72.667 -72 -173.667 -106 -303l-92 -371c-58.667 -222.667 -162.667 -390 -312 -502c-132 -99.333 -289.667 -149 -473 -149c-136 0 -250.5 40.667 -343.5 122s-139.5 188 -139.5 320
c0 150.667 47.833 277.167 143.5 379.5s215.834 153.5 360.501 153.5c106.667 0 196.167 -32.5 268.5 -97.5s108.5 -147.833 108.5 -248.5c0 -122 -35.833 -221.167 -107.5 -297.5s-160.834 -114.5 -267.501 -114.5c-76.667 0 -139.834 24.5 -189.501 73.5
s-74.5 107.167 -74.5 174.5c0 64 22.5 122 67.5 174s95.5 78 151.5 78c14.667 0 22 -6.33301 22 -19c0 -12 -5.33301 -18 -16 -18c-45.333 0 -86.333 -20 -123 -60c-40.667 -43.333 -61 -95.666 -61 -156.999c0 -57.333 21.5 -106.5 64.5 -147.5s95.833 -61.5 158.5 -61.5
c96.667 0 176.5 35.167 239.5 105.5s94.5 158.833 94.5 265.5c0 96.667 -33.167 173.667 -99.5 231s-146.5 86 -240.5 86c-124.667 0 -232.334 -48.167 -323.001 -144.5s-136 -214.166 -136 -353.499c0 -128 46.333 -229.667 139 -305c84.667 -68 187 -102 307 -102
c145.333 0 266.333 51.667 363 155c72 78 132.667 188.667 182 332l84 312c35.333 126.667 72.333 227.667 111 303c64 122.667 148.667 221 254 295c-46.667 -23.333 -168.334 -66.166 -365.001 -128.499s-295 -145.166 -295 -248.499c0 -82 40.333 -123 121 -123
c34 0 60.667 10.167 80 30.5s31 30.5 35 30.5c12 0 18 -6 18 -18c0 -20.667 -18.333 -40 -55 -58c-30 -14.667 -57.333 -22 -82 -22c-45.333 0 -82.333 14.333 -111 43s-43 67.667 -43 117c0 74.667 37.667 137.334 113 188.001c56 38 146.667 75.667 272 113
c229.333 68 384.333 137 465 207c5.33301 4 11 6 17 6c10.667 0 16 -5 16 -15c0 -6.66699 -4 -12 -12 -16zM1409 1436h-43l-199 227h125z" />
    <glyph glyph-name="Iacute" unicode="&#xcd;" horiz-adv-x="1411" 
d="M1706 1452c-76.667 -49.333 -139.664 -121.005 -188.997 -215.005c-36.667 -72.667 -72 -173.667 -106 -303l-92 -371c-58.667 -222.667 -162.667 -390 -312 -502c-132 -99.333 -289.667 -149 -473 -149c-136 0 -250.5 40.667 -343.5 122s-139.5 188 -139.5 320
c0 150.667 47.833 277.167 143.5 379.5s215.834 153.5 360.501 153.5c106.667 0 196.167 -32.5 268.5 -97.5s108.5 -147.833 108.5 -248.5c0 -122 -35.833 -221.167 -107.5 -297.5s-160.834 -114.5 -267.501 -114.5c-76.667 0 -139.834 24.5 -189.501 73.5
s-74.5 107.167 -74.5 174.5c0 64 22.5 122 67.5 174s95.5 78 151.5 78c14.667 0 22 -6.33301 22 -19c0 -12 -5.33301 -18 -16 -18c-45.333 0 -86.333 -20 -123 -60c-40.667 -43.333 -61 -95.666 -61 -156.999c0 -57.333 21.5 -106.5 64.5 -147.5s95.833 -61.5 158.5 -61.5
c96.667 0 176.5 35.167 239.5 105.5s94.5 158.833 94.5 265.5c0 96.667 -33.167 173.667 -99.5 231s-146.5 86 -240.5 86c-124.667 0 -232.334 -48.167 -323.001 -144.5s-136 -214.166 -136 -353.499c0 -128 46.333 -229.667 139 -305c84.667 -68 187 -102 307 -102
c145.333 0 266.333 51.667 363 155c72 78 132.667 188.667 182 332l84 312c35.333 126.667 72.333 227.667 111 303c64 122.667 148.667 221 254 295c-46.667 -23.333 -168.334 -66.166 -365.001 -128.499s-295 -145.166 -295 -248.499c0 -82 40.333 -123 121 -123
c34 0 60.667 10.167 80 30.5s31 30.5 35 30.5c12 0 18 -6 18 -18c0 -20.667 -18.333 -40 -55 -58c-30 -14.667 -57.333 -22 -82 -22c-45.333 0 -82.333 14.333 -111 43s-43 67.667 -43 117c0 74.667 37.667 137.334 113 188.001c56 38 146.667 75.667 272 113
c229.333 68 384.333 137 465 207c5.33301 4 11 6 17 6c10.667 0 16 -5 16 -15c0 -6.66699 -4 -12 -12 -16zM1593 1686l-190 -228h-43l116 228h117z" />
    <glyph glyph-name="Ograve" unicode="&#xd2;" horiz-adv-x="1169" 
d="M450 -35c-100.667 0 -183.835 37.5 -249.502 112.5s-98.5 179.5 -98.5 313.5c0 110.667 40 248.334 120 413.001s176.667 303.667 290 417c126.667 128 247.334 192 362.001 192c50.667 0 75.334 -9.66699 74.001 -29c-1.33301 -10.667 -7 -16 -17 -16l-11 8
c-7.33301 5.33301 -18.666 8 -33.999 8c-62.667 0 -137.667 -42.333 -225 -127c-95.333 -94 -178 -214.667 -248 -362c-80.667 -173.333 -129.667 -361.666 -147 -564.999c-2.66699 -20.667 -4 -41.334 -4 -62.001c0 -88.667 19 -157 57 -205c34 -43.333 79.667 -65 137 -65
c173.333 0 339.333 120 498 360c140.667 213.333 219 419.666 235 618.999c3.33301 24.667 5 48.667 5 72c0 184 -59 276 -177 276c-118.667 0 -247.167 -104.833 -385.5 -314.5s-216.5 -412.167 -234.5 -607.5c-6.66699 -81.333 5 -144.666 35 -189.999
c24.667 -36.667 56 -55 94 -55c52 0 97 21.667 135 65c4 5.33301 9.33301 8 16 8c11.333 0 17 -5.33301 17 -16c0 -23.333 -23.333 -45 -70 -65c-38 -16.667 -70.667 -25 -98 -25c-112 0 -168 81.333 -168 244c0 103.333 30.667 233 92 389c67.333 164 148 300.333 242 409
c109.333 127.333 218.666 191 327.999 191c68 0 121.833 -27.333 161.5 -82s59.5 -135.334 59.5 -242.001c0 -129.333 -36.333 -277.333 -109 -444c-74.667 -174.667 -169.667 -318 -285 -430c-128 -130 -260.333 -195 -397 -195zM1030 1458h-43l-199 228h125z" />
    <glyph glyph-name="Oacute" unicode="&#xd3;" horiz-adv-x="1169" 
d="M450 -35c-100.667 0 -183.835 37.5 -249.502 112.5s-98.5 179.5 -98.5 313.5c0 110.667 40 248.334 120 413.001s176.667 303.667 290 417c126.667 128 247.334 192 362.001 192c50.667 0 75.334 -9.66699 74.001 -29c-1.33301 -10.667 -7 -16 -17 -16l-11 8
c-7.33301 5.33301 -18.666 8 -33.999 8c-62.667 0 -137.667 -42.333 -225 -127c-95.333 -94 -178 -214.667 -248 -362c-80.667 -173.333 -129.667 -361.666 -147 -564.999c-2.66699 -20.667 -4 -41.334 -4 -62.001c0 -88.667 19 -157 57 -205c34 -43.333 79.667 -65 137 -65
c173.333 0 339.333 120 498 360c140.667 213.333 219 419.666 235 618.999c3.33301 24.667 5 48.667 5 72c0 184 -59 276 -177 276c-118.667 0 -247.167 -104.833 -385.5 -314.5s-216.5 -412.167 -234.5 -607.5c-6.66699 -81.333 5 -144.666 35 -189.999
c24.667 -36.667 56 -55 94 -55c52 0 97 21.667 135 65c4 5.33301 9.33301 8 16 8c11.333 0 17 -5.33301 17 -16c0 -23.333 -23.333 -45 -70 -65c-38 -16.667 -70.667 -25 -98 -25c-112 0 -168 81.333 -168 244c0 103.333 30.667 233 92 389c67.333 164 148 300.333 242 409
c109.333 127.333 218.666 191 327.999 191c68 0 121.833 -27.333 161.5 -82s59.5 -135.334 59.5 -242.001c0 -129.333 -36.333 -277.333 -109 -444c-74.667 -174.667 -169.667 -318 -285 -430c-128 -130 -260.333 -195 -397 -195zM1187 1702l-190 -227h-43l117 227h116z" />
    <glyph glyph-name="Ocircumflex" unicode="&#xd4;" horiz-adv-x="1169" 
d="M450 -35c-100.667 0 -183.835 37.5 -249.502 112.5s-98.5 179.5 -98.5 313.5c0 110.667 40 248.334 120 413.001s176.667 303.667 290 417c126.667 128 247.334 192 362.001 192c50.667 0 75.334 -9.66699 74.001 -29c-1.33301 -10.667 -7 -16 -17 -16l-11 8
c-7.33301 5.33301 -18.666 8 -33.999 8c-62.667 0 -137.667 -42.333 -225 -127c-95.333 -94 -178 -214.667 -248 -362c-80.667 -173.333 -129.667 -361.666 -147 -564.999c-2.66699 -20.667 -4 -41.334 -4 -62.001c0 -88.667 19 -157 57 -205c34 -43.333 79.667 -65 137 -65
c173.333 0 339.333 120 498 360c140.667 213.333 219 419.666 235 618.999c3.33301 24.667 5 48.667 5 72c0 184 -59 276 -177 276c-118.667 0 -247.167 -104.833 -385.5 -314.5s-216.5 -412.167 -234.5 -607.5c-6.66699 -81.333 5 -144.666 35 -189.999
c24.667 -36.667 56 -55 94 -55c52 0 97 21.667 135 65c4 5.33301 9.33301 8 16 8c11.333 0 17 -5.33301 17 -16c0 -23.333 -23.333 -45 -70 -65c-38 -16.667 -70.667 -25 -98 -25c-112 0 -168 81.333 -168 244c0 103.333 30.667 233 92 389c67.333 164 148 300.333 242 409
c109.333 127.333 218.666 191 327.999 191c68 0 121.833 -27.333 161.5 -82s59.5 -135.334 59.5 -242.001c0 -129.333 -36.333 -277.333 -109 -444c-74.667 -174.667 -169.667 -318 -285 -430c-128 -130 -260.333 -195 -397 -195zM1200 1452l-34.999 0.000976562
c-50.667 28.667 -102 73.667 -154 135c-104.667 -66.667 -194 -111.667 -268 -135c-2.66699 -1.33301 -21 -1.33301 -55 0c58.667 27.333 116.667 60.666 174 99.999c69.333 49.333 113.666 92.333 132.999 129h68c4 -42 49.667 -118.333 137 -229z" />
    <glyph glyph-name="Otilde" unicode="&#xd5;" horiz-adv-x="1169" 
d="M450 -35c-100.667 0 -183.835 37.5 -249.502 112.5s-98.5 179.5 -98.5 313.5c0 110.667 40 248.334 120 413.001s176.667 303.667 290 417c126.667 128 247.334 192 362.001 192c50.667 0 75.334 -9.66699 74.001 -29c-1.33301 -10.667 -7 -16 -17 -16l-11 8
c-7.33301 5.33301 -18.666 8 -33.999 8c-62.667 0 -137.667 -42.333 -225 -127c-95.333 -94 -178 -214.667 -248 -362c-80.667 -173.333 -129.667 -361.666 -147 -564.999c-2.66699 -20.667 -4 -41.334 -4 -62.001c0 -88.667 19 -157 57 -205c34 -43.333 79.667 -65 137 -65
c173.333 0 339.333 120 498 360c140.667 213.333 219 419.666 235 618.999c3.33301 24.667 5 48.667 5 72c0 184 -59 276 -177 276c-118.667 0 -247.167 -104.833 -385.5 -314.5s-216.5 -412.167 -234.5 -607.5c-6.66699 -81.333 5 -144.666 35 -189.999
c24.667 -36.667 56 -55 94 -55c52 0 97 21.667 135 65c4 5.33301 9.33301 8 16 8c11.333 0 17 -5.33301 17 -16c0 -23.333 -23.333 -45 -70 -65c-38 -16.667 -70.667 -25 -98 -25c-112 0 -168 81.333 -168 244c0 103.333 30.667 233 92 389c67.333 164 148 300.333 242 409
c109.333 127.333 218.666 191 327.999 191c68 0 121.833 -27.333 161.5 -82s59.5 -135.334 59.5 -242.001c0 -129.333 -36.333 -277.333 -109 -444c-74.667 -174.667 -169.667 -318 -285 -430c-128 -130 -260.333 -195 -397 -195zM1259 1616
c-23.333 -50.667 -42.335 -83.999 -57.002 -99.999c-24.667 -30.667 -54.667 -46 -90 -46c-34.667 0 -81 14.833 -139 44.5s-95.667 44.5 -113 44.5c-41.333 0 -77 -26 -107 -78c-5.33301 -8.66699 -10.666 -13 -15.999 -13c-11.333 0 -13.333 7 -6 21
c42 99.333 102.667 149 182 149c28.667 0 71.334 -12.833 128.001 -38.5s92.667 -38.5 108 -38.5c36.667 0 66.667 21 90 63c5.33301 9.33301 11.333 12.666 18 9.99902c5.33301 -2.66699 6 -8.66699 2 -18z" />
    <glyph glyph-name="Ugrave" unicode="&#xd9;" horiz-adv-x="2181" 
d="M2527 1366c13.333 0 20 -4.66797 20 -14.001c0 -14 -6.66699 -21 -20 -21c-76.667 0 -135.334 -16.333 -176 -49c-45.333 -35.333 -85.666 -101.666 -121 -198.999l-281 -774c-38 -103.333 -82.333 -180.333 -133 -231c-79.333 -75.333 -188.666 -113 -327.999 -113
c-118.667 0 -209.334 24.667 -272.001 74c-58.667 44.667 -88 106.667 -88 186c0 44 9 90.667 27 140l352 966h-485c-196.667 0 -357.334 -54 -482.001 -162c-117.333 -102 -169.666 -222.667 -156.999 -362c8 -94 43.667 -171.167 107 -231.5s142.333 -90.5 237 -90.5
c138.667 0 253.334 48.667 344.001 146c86 91.333 123.333 195.666 112 312.999c-5.33301 61.333 -28.166 112.833 -68.499 154.5s-91.833 62.5 -154.5 62.5c-122.667 0 -217 -47 -283 -141c-56 -79.333 -79.667 -166 -71 -260c1.33301 -16.667 6.66602 -35.5 15.999 -56.5
s14 -33.5 14 -37.5c0 -12.667 -6 -19 -18 -19s-21.667 7 -29 21c-14.667 27.333 -23.334 58 -26.001 92c-10 113.333 23.667 215 101 305s175.333 135 294 135c74 0 135.833 -23.833 185.5 -71.5s77.834 -109.167 84.501 -184.5c11.333 -125.333 -29.667 -238 -123 -338
c-98 -108 -224 -162 -378 -162c-108 0 -197.833 34.833 -269.5 104.5s-111.834 155.834 -120.501 258.501c-13.333 156.667 45.167 289 175.5 397s296.5 162 498.5 162h858c10 0 15 -5.33301 15 -16c0 -12.667 -7 -19 -21 -19h-172l-375 -1022
c-18.667 -52 -28 -97.667 -28 -137c0 -109.333 74.333 -164 223 -164c120 0 214.333 33.667 283 101c47.333 46 88 118.333 122 217l277 770c19.333 53.333 29 95 29 125c0 73.333 -64.333 110 -193 110c-12 0 -18 5.66699 -18 17c0 12 8.66699 18 26 18h490zM1998 1477h-43
l-198 227h125z" />
    <glyph glyph-name="Uacute" unicode="&#xda;" horiz-adv-x="2181" 
d="M2527 1366c13.333 0 20 -4.66797 20 -14.001c0 -14 -6.66699 -21 -20 -21c-76.667 0 -135.334 -16.333 -176 -49c-45.333 -35.333 -85.666 -101.666 -121 -198.999l-281 -774c-38 -103.333 -82.333 -180.333 -133 -231c-79.333 -75.333 -188.666 -113 -327.999 -113
c-118.667 0 -209.334 24.667 -272.001 74c-58.667 44.667 -88 106.667 -88 186c0 44 9 90.667 27 140l352 966h-485c-196.667 0 -357.334 -54 -482.001 -162c-117.333 -102 -169.666 -222.667 -156.999 -362c8 -94 43.667 -171.167 107 -231.5s142.333 -90.5 237 -90.5
c138.667 0 253.334 48.667 344.001 146c86 91.333 123.333 195.666 112 312.999c-5.33301 61.333 -28.166 112.833 -68.499 154.5s-91.833 62.5 -154.5 62.5c-122.667 0 -217 -47 -283 -141c-56 -79.333 -79.667 -166 -71 -260c1.33301 -16.667 6.66602 -35.5 15.999 -56.5
s14 -33.5 14 -37.5c0 -12.667 -6 -19 -18 -19s-21.667 7 -29 21c-14.667 27.333 -23.334 58 -26.001 92c-10 113.333 23.667 215 101 305s175.333 135 294 135c74 0 135.833 -23.833 185.5 -71.5s77.834 -109.167 84.501 -184.5c11.333 -125.333 -29.667 -238 -123 -338
c-98 -108 -224 -162 -378 -162c-108 0 -197.833 34.833 -269.5 104.5s-111.834 155.834 -120.501 258.501c-13.333 156.667 45.167 289 175.5 397s296.5 162 498.5 162h858c10 0 15 -5.33301 15 -16c0 -12.667 -7 -19 -21 -19h-172l-375 -1022
c-18.667 -52 -28 -97.667 -28 -137c0 -109.333 74.333 -164 223 -164c120 0 214.333 33.667 283 101c47.333 46 88 118.333 122 217l277 770c19.333 53.333 29 95 29 125c0 73.333 -64.333 110 -193 110c-12 0 -18 5.66699 -18 17c0 12 8.66699 18 26 18h490zM2197 1692
l-190 -228h-43l116 228h117z" />
    <glyph glyph-name="Yacute" unicode="&#xdd;" horiz-adv-x="1792" 
d="M2304 1366c13.333 0 20.002 -5.33203 20.002 -15.999c0 -12.667 -10 -19 -30 -19c-84.667 0 -149.334 -13.667 -194 -41c-44.667 -27.333 -102.334 -88 -173.001 -182l-375 -496l-209 -577h248c10.667 0 16 -5.66699 16 -17c0 -12 -7.33301 -18 -22 -18h-612
c-10 0 -15 5.33301 -15 16c0 12.667 7 19 21 19h190l135 362c71.333 203.333 107 367.333 107 492c0 364.667 -128.333 547 -385 547c-194 0 -358 -67.667 -492 -203c-124 -127.333 -186 -269.333 -186 -426c0 -113.333 38.333 -204 115 -272
c66.667 -59.333 145 -89 235 -89c126 0 234 43.5 324 130.5s135 195.167 135 324.5c0 84.667 -28 153 -84 205c-50.667 48 -112 72 -184 72c-112 0 -204.333 -45.333 -277 -136c-64 -80 -96 -171.333 -96 -274c0 -45.333 11.667 -78.666 35 -99.999
c2.66699 -2.66699 4 -6.33398 4 -11.001c0 -9.33301 -5.66699 -14 -17 -14c-17.333 0 -32.333 18.333 -45 55c-8 27.333 -12 52.666 -12 75.999c-1.33301 112 36.5 211.667 113.5 299s173.833 131 290.5 131c91.333 0 165.666 -28.333 222.999 -85s86 -129.334 86 -218.001
c0 -132.667 -45.667 -246 -137 -340c-96 -99.333 -216.333 -149 -361 -149c-99.333 0 -186.666 32.667 -261.999 98c-84.667 74 -127 172.333 -127 295c0 182.667 71.333 339.167 214 469.5s311.667 195.5 507 195.5c177.333 0 313.666 -61.333 408.999 -184
c86.667 -113.333 130 -265 130 -455c0 -43.333 -3.66699 -93 -11 -149l316 416c36.667 48.667 55 88.334 55 119.001c0 76 -63.333 114 -190 114c-11.333 0 -17 5.66699 -17 17c0 12 8.33301 18 25 18h559zM1863 1702l-190 -227h-43l117 227h116z" />
    <glyph glyph-name="agrave" unicode="&#xe0;" horiz-adv-x="966" 
d="M982 389c0 -2.66699 -1.33301 -7.33301 -4 -14c-50.667 -112 -91.667 -191.333 -123 -238c-69.333 -102 -140.333 -153 -213 -153c-39.333 0 -69.666 14.667 -90.999 44s-30.333 68.333 -27 117c2.66699 40 14 88 34 144l-63 -111
c-80.667 -129.333 -167.334 -194 -260.001 -194c-60 0 -109.167 27.167 -147.5 81.5s-55.5 122.5 -51.5 204.5c11.333 188.667 100 365.667 266 531c82 80.667 160 121 234 121c46 0 82 -19.833 108 -59.5s37.667 -91.5 35 -155.5c-1.33301 -19.333 -4 -39.333 -8 -60
l104 258h164l-291 -715c-14.667 -40.667 -22 -74.667 -22 -102c0 -40.667 13 -61 39 -61c82 0 174.667 120.667 278 362c6 12.667 13.667 19 23 19c12 0 17.333 -6.33301 16 -19zM644 700.001c2.66699 54.667 -5.16699 99.166 -23.5 133.499s-43.833 51.5 -76.5 51.5
c-60 0 -127.667 -74.333 -203 -223c-106 -209.333 -162.667 -381.666 -170 -516.999c-4 -81.333 22.667 -122 80 -122c76.667 0 152.667 66 228 198c102 182 157 341.667 165 479zM685.999 1008h-43l-199 227h125z" />
    <glyph glyph-name="aacute" unicode="&#xe1;" horiz-adv-x="966" 
d="M982 389c0 -2.66699 -1.33301 -7.33301 -4 -14c-50.667 -112 -91.667 -191.333 -123 -238c-69.333 -102 -140.333 -153 -213 -153c-39.333 0 -69.666 14.667 -90.999 44s-30.333 68.333 -27 117c2.66699 40 14 88 34 144l-63 -111
c-80.667 -129.333 -167.334 -194 -260.001 -194c-60 0 -109.167 27.167 -147.5 81.5s-55.5 122.5 -51.5 204.5c11.333 188.667 100 365.667 266 531c82 80.667 160 121 234 121c46 0 82 -19.833 108 -59.5s37.667 -91.5 35 -155.5c-1.33301 -19.333 -4 -39.333 -8 -60
l104 258h164l-291 -715c-14.667 -40.667 -22 -74.667 -22 -102c0 -40.667 13 -61 39 -61c82 0 174.667 120.667 278 362c6 12.667 13.667 19 23 19c12 0 17.333 -6.33301 16 -19zM644 700.001c2.66699 54.667 -5.16699 99.166 -23.5 133.499s-43.833 51.5 -76.5 51.5
c-60 0 -127.667 -74.333 -203 -223c-106 -209.333 -162.667 -381.666 -170 -516.999c-4 -81.333 22.667 -122 80 -122c76.667 0 152.667 66 228 198c102 182 157 341.667 165 479zM791.999 1235l-191 -227h-43l117 227h117z" />
    <glyph glyph-name="acircumflex" unicode="&#xe2;" horiz-adv-x="966" 
d="M982 389c0 -2.66699 -1.33301 -7.33301 -4 -14c-50.667 -112 -91.667 -191.333 -123 -238c-69.333 -102 -140.333 -153 -213 -153c-39.333 0 -69.666 14.667 -90.999 44s-30.333 68.333 -27 117c2.66699 40 14 88 34 144l-63 -111
c-80.667 -129.333 -167.334 -194 -260.001 -194c-60 0 -109.167 27.167 -147.5 81.5s-55.5 122.5 -51.5 204.5c11.333 188.667 100 365.667 266 531c82 80.667 160 121 234 121c46 0 82 -19.833 108 -59.5s37.667 -91.5 35 -155.5c-1.33301 -19.333 -4 -39.333 -8 -60
l104 258h164l-291 -715c-14.667 -40.667 -22 -74.667 -22 -102c0 -40.667 13 -61 39 -61c82 0 174.667 120.667 278 362c6 12.667 13.667 19 23 19c12 0 17.333 -6.33301 16 -19zM644 700.001c2.66699 54.667 -5.16699 99.166 -23.5 133.499s-43.833 51.5 -76.5 51.5
c-60 0 -127.667 -74.333 -203 -223c-106 -209.333 -162.667 -381.666 -170 -516.999c-4 -81.333 22.667 -122 80 -122c76.667 0 152.667 66 228 198c102 182 157 341.667 165 479zM908.999 989l-35 0.000976562c-50.667 28.667 -102 73.667 -154 135
c-105.333 -66.667 -194.666 -111.667 -267.999 -135c-2.66699 -1.33301 -21 -1.33301 -55 0c58.667 27.333 116.667 61 174 101c69.333 48.667 113.666 91.667 132.999 129h67c4.66699 -42.667 50.667 -119.334 138 -230.001z" />
    <glyph glyph-name="atilde" unicode="&#xe3;" horiz-adv-x="966" 
d="M982 389c0 -2.66699 -1.33301 -7.33301 -4 -14c-50.667 -112 -91.667 -191.333 -123 -238c-69.333 -102 -140.333 -153 -213 -153c-39.333 0 -69.666 14.667 -90.999 44s-30.333 68.333 -27 117c2.66699 40 14 88 34 144l-63 -111
c-80.667 -129.333 -167.334 -194 -260.001 -194c-60 0 -109.167 27.167 -147.5 81.5s-55.5 122.5 -51.5 204.5c11.333 188.667 100 365.667 266 531c82 80.667 160 121 234 121c46 0 82 -19.833 108 -59.5s37.667 -91.5 35 -155.5c-1.33301 -19.333 -4 -39.333 -8 -60
l104 258h164l-291 -715c-14.667 -40.667 -22 -74.667 -22 -102c0 -40.667 13 -61 39 -61c82 0 174.667 120.667 278 362c6 12.667 13.667 19 23 19c12 0 17.333 -6.33301 16 -19zM644 700.001c2.66699 54.667 -5.16699 99.166 -23.5 133.499s-43.833 51.5 -76.5 51.5
c-60 0 -127.667 -74.333 -203 -223c-106 -209.333 -162.667 -381.666 -170 -516.999c-4 -81.333 22.667 -122 80 -122c76.667 0 152.667 66 228 198c102 182 157 341.667 165 479zM916.999 1178c-23.333 -50.667 -42.6699 -84.332 -58.0029 -100.999
c-24 -30 -54 -45 -90 -45c-34 0 -80 14.667 -138 44s-96 44 -114 44c-40.667 0 -76 -26 -106 -78c-5.33301 -8 -10.666 -12 -15.999 -12c-11.333 0 -13.666 7 -6.99902 21c42.667 99.333 103.667 149 183 149c28.667 0 71.334 -13 128.001 -39s92.334 -39 107.001 -39
c36.667 0 66.667 21.333 90 64c5.33301 9.33301 11.666 12.666 18.999 9.99902c5.33301 -2.66699 6 -8.66699 2 -18z" />
    <glyph glyph-name="egrave" unicode="&#xe8;" horiz-adv-x="724" 
d="M724 741c0 -169.333 -170.666 -286.665 -511.999 -351.998c-26 -73.333 -39 -143 -39 -209c0 -44.667 11.333 -82 34 -112s55.667 -45 99 -45c110.667 0 217.334 93.333 320.001 280c10.667 22 27 54 49 96c4 8.66699 10.333 13 19 13c10.667 0 16 -5.66699 16 -17
c0 -4 -0.666992 -8 -2 -12c-45.333 -105.333 -99.333 -193.333 -162 -264c-82 -92.667 -168.667 -139 -260 -139c-76.667 0 -139.334 33.333 -188.001 100c-45.333 61.333 -68 131.666 -68 210.999c0 135.333 53.333 271.666 160 408.999c112 148 234 222 366 222
c49.333 0 89.666 -17.5 120.999 -52.5s47 -77.833 47 -128.5zM616.001 788.001c0 67.333 -28.667 101 -86 101c-98.667 0 -201 -153.667 -307 -461c98 8 186 45.667 264 113c86 70.667 129 153 129 247zM569.001 1008h-43l-199 227h125z" />
    <glyph glyph-name="eacute" unicode="&#xe9;" horiz-adv-x="724" 
d="M724 741c0 -169.333 -170.666 -286.665 -511.999 -351.998c-26 -73.333 -39 -143 -39 -209c0 -44.667 11.333 -82 34 -112s55.667 -45 99 -45c110.667 0 217.334 93.333 320.001 280c10.667 22 27 54 49 96c4 8.66699 10.333 13 19 13c10.667 0 16 -5.66699 16 -17
c0 -4 -0.666992 -8 -2 -12c-45.333 -105.333 -99.333 -193.333 -162 -264c-82 -92.667 -168.667 -139 -260 -139c-76.667 0 -139.334 33.333 -188.001 100c-45.333 61.333 -68 131.666 -68 210.999c0 135.333 53.333 271.666 160 408.999c112 148 234 222 366 222
c49.333 0 89.666 -17.5 120.999 -52.5s47 -77.833 47 -128.5zM616.001 788.001c0 67.333 -28.667 101 -86 101c-98.667 0 -201 -153.667 -307 -461c98 8 186 45.667 264 113c86 70.667 129 153 129 247zM755.001 1235l-190 -227h-43l116 227h117z" />
    <glyph glyph-name="ecircumflex" unicode="&#xea;" horiz-adv-x="724" 
d="M724 741c0 -169.333 -170.666 -286.665 -511.999 -351.998c-26 -73.333 -39 -143 -39 -209c0 -44.667 11.333 -82 34 -112s55.667 -45 99 -45c110.667 0 217.334 93.333 320.001 280c10.667 22 27 54 49 96c4 8.66699 10.333 13 19 13c10.667 0 16 -5.66699 16 -17
c0 -4 -0.666992 -8 -2 -12c-45.333 -105.333 -99.333 -193.333 -162 -264c-82 -92.667 -168.667 -139 -260 -139c-76.667 0 -139.334 33.333 -188.001 100c-45.333 61.333 -68 131.666 -68 210.999c0 135.333 53.333 271.666 160 408.999c112 148 234 222 366 222
c49.333 0 89.666 -17.5 120.999 -52.5s47 -77.833 47 -128.5zM616.001 788.001c0 67.333 -28.667 101 -86 101c-98.667 0 -201 -153.667 -307 -461c98 8 186 45.667 264 113c86 70.667 129 153 129 247zM823.001 989.001l-34.999 0.000976562
c-50.667 28.667 -102 73.667 -154 135c-104.667 -66.667 -194 -111.667 -268 -135c-2.66699 -1.33301 -21 -1.33301 -55 0c58.667 27.333 116.667 61 174 101c69.333 48.667 113.666 91.667 132.999 129h68c4 -42.667 49.667 -119.334 137 -230.001z" />
    <glyph glyph-name="igrave" unicode="&#xec;" horiz-adv-x="464" 
d="M481 389c0 -4 -1.33203 -8.66504 -3.99902 -13.998c-112 -260.667 -220 -391 -324 -391c-43.333 0 -77.333 21.667 -102 65c-20.667 36.667 -31 79 -31 127c0 57.333 14.333 123.666 43 198.999l166 432c2.66699 8 4 16 4 24c0 26 -13 39 -39 39h-78
c-13.333 0 -20 5.66699 -20 17c0 12 6 18 18 18h266c23.333 0 35 -11.667 35 -35c0 -5.33301 -1.33301 -12 -4 -20l-244 -635c-24 -66.667 -36 -112.334 -36 -137.001c0 -35.333 15 -53 45 -53c65.333 0 154 121.333 266 364c5.33301 12.667 12.666 19 21.999 19
c11.333 0 17 -6.33301 17 -19zM331.001 1008h-43l-198 227h125z" />
    <glyph glyph-name="iacute" unicode="&#xed;" horiz-adv-x="464" 
d="M481 389c0 -4 -1.33203 -8.66504 -3.99902 -13.998c-112 -260.667 -220 -391 -324 -391c-43.333 0 -77.333 21.667 -102 65c-20.667 36.667 -31 79 -31 127c0 57.333 14.333 123.666 43 198.999l166 432c2.66699 8 4 16 4 24c0 26 -13 39 -39 39h-78
c-13.333 0 -20 5.66699 -20 17c0 12 6 18 18 18h266c23.333 0 35 -11.667 35 -35c0 -5.33301 -1.33301 -12 -4 -20l-244 -635c-24 -66.667 -36 -112.334 -36 -137.001c0 -35.333 15 -53 45 -53c65.333 0 154 121.333 266 364c5.33301 12.667 12.666 19 21.999 19
c11.333 0 17 -6.33301 17 -19zM507.001 1235l-190 -227h-43l117 227h116z" />
    <glyph glyph-name="ograve" unicode="&#xf2;" horiz-adv-x="811" 
d="M780 578c0 -156 -50.167 -294 -150.5 -414s-213.5 -180 -339.5 -180c-70.667 0 -131.667 34 -183 102s-77 150 -77 246c0 152.667 50.167 289.167 150.5 409.5s212.5 180.5 336.5 180.5c74 0 136.333 -33.167 187 -99.5s76 -147.833 76 -244.5zM630 719
c0 113.333 -38.333 170 -115 170c-62.667 0 -122 -52 -178 -156c-46 -86 -84.5 -180.5 -115.5 -283.5s-46.5 -192.167 -46.5 -267.5c0 -110.667 40.333 -166 121 -166c67.333 0 128.333 50.667 183 152c100.667 187.333 151 371 151 551zM569 1008h-43l-199 227h125z" />
    <glyph glyph-name="oacute" unicode="&#xf3;" horiz-adv-x="811" 
d="M780 578c0 -156 -50.167 -294 -150.5 -414s-213.5 -180 -339.5 -180c-70.667 0 -131.667 34 -183 102s-77 150 -77 246c0 152.667 50.167 289.167 150.5 409.5s212.5 180.5 336.5 180.5c74 0 136.333 -33.167 187 -99.5s76 -147.833 76 -244.5zM630 719
c0 113.333 -38.333 170 -115 170c-62.667 0 -122 -52 -178 -156c-46 -86 -84.5 -180.5 -115.5 -283.5s-46.5 -192.167 -46.5 -267.5c0 -110.667 40.333 -166 121 -166c67.333 0 128.333 50.667 183 152c100.667 187.333 151 371 151 551zM788 1235l-191 -227h-43l117 227
h117z" />
    <glyph glyph-name="ocircumflex" unicode="&#xf4;" horiz-adv-x="811" 
d="M780 578c0 -156 -50.167 -294 -150.5 -414s-213.5 -180 -339.5 -180c-70.667 0 -131.667 34 -183 102s-77 150 -77 246c0 152.667 50.167 289.167 150.5 409.5s212.5 180.5 336.5 180.5c74 0 136.333 -33.167 187 -99.5s76 -147.833 76 -244.5zM630 719
c0 113.333 -38.333 170 -115 170c-62.667 0 -122 -52 -178 -156c-46 -86 -84.5 -180.5 -115.5 -283.5s-46.5 -192.167 -46.5 -267.5c0 -110.667 40.333 -166 121 -166c67.333 0 128.333 50.667 183 152c100.667 187.333 151 371 151 551zM795 989l-34.999 0.000976562
c-50.667 28.667 -102 73.667 -154 135c-104.667 -66.667 -194 -111.667 -268 -135c-2.66699 -1.33301 -21 -1.33301 -55 0c58.667 27.333 116.667 61 174 101c69.333 48.667 113.666 91.667 132.999 129h68c4 -42.667 49.667 -119.334 137 -230.001z" />
    <glyph glyph-name="otilde" unicode="&#xf5;" horiz-adv-x="811" 
d="M780 578c0 -156 -50.167 -294 -150.5 -414s-213.5 -180 -339.5 -180c-70.667 0 -131.667 34 -183 102s-77 150 -77 246c0 152.667 50.167 289.167 150.5 409.5s212.5 180.5 336.5 180.5c74 0 136.333 -33.167 187 -99.5s76 -147.833 76 -244.5zM630 719
c0 113.333 -38.333 170 -115 170c-62.667 0 -122 -52 -178 -156c-46 -86 -84.5 -180.5 -115.5 -283.5s-46.5 -192.167 -46.5 -267.5c0 -110.667 40.333 -166 121 -166c67.333 0 128.333 50.667 183 152c100.667 187.333 151 371 151 551zM827 1167
c-23.333 -50 -42.668 -83.332 -58.001 -99.999c-24.667 -30 -54.667 -45 -90 -45c-34 0 -80 14.667 -138 44s-96 44 -114 44c-40.667 0 -76 -26 -106 -78c-5.33301 -8 -11 -12 -17 -12c-10.667 0 -12.667 6.66699 -6 20c42.667 100 103.667 150 183 150
c28.667 0 71.334 -13 128.001 -39s92.334 -39 107.001 -39c36.667 0 66.667 21.333 90 64c5.33301 9.33301 11.666 12.666 18.999 9.99902c5.33301 -2.66699 6 -9 2 -19z" />
    <glyph glyph-name="divide" unicode="&#xf7;" horiz-adv-x="1706" 
 />
    <glyph glyph-name="glyph216" unicode="&#xf9;" horiz-adv-x="880" 
d="M890 389c0 -4 -1.33105 -8.66406 -3.99805 -13.9971c-48.667 -109.333 -90.334 -189.333 -125.001 -240c-66.667 -100.667 -132.667 -151 -198 -151c-76.667 0 -115 49.667 -115 149c0 64 11 122.667 33 176c-40 -86 -85 -158.333 -135 -217
c-62 -72 -120.667 -108 -176 -108c-44 0 -80 21.833 -108 65.5s-42 91.5 -42 143.5c0 46 14.333 106.667 43 182l166 432c2.66699 8 4 16 4 24c0 26 -13 39 -39 39h-63c-14 0 -21 5.66699 -21 17c0 12 6.33301 18 19 18h251c23.333 0 35 -11.667 35 -35
c0 -5.33301 -1.33301 -12 -4 -20c-48 -140.667 -115 -313.334 -201 -518.001c-50 -120 -75 -198.667 -75 -236c0 -47.333 18.333 -71 55 -71c49.333 0 104.666 43.667 165.999 131c44.667 65.333 82.334 134 113.001 206c39.333 97.333 95.666 245.666 168.999 444.999
c3.33301 8 5 16 5 24c0 26 -13 39 -39 39h-58c-13.333 0 -20 5.66699 -20 17c0 12 6 18 18 18h246c23.333 0 35 -11.667 35 -35c0 -5.33301 -1.33301 -12 -4 -20l-244 -635c-24.667 -66.667 -37 -112.334 -37 -137.001c0 -35.333 15 -53 45 -53
c71.333 0 160 121.333 266 364c6 12.667 13.667 19 23 19c10.667 0 16 -6.33301 16 -19zM532.002 1008h-43l-199 227h125z" />
    <glyph glyph-name="glyph217" unicode="&#xfa;" horiz-adv-x="880" 
d="M890 389c0 -4 -1.33105 -8.66406 -3.99805 -13.9971c-48.667 -109.333 -90.334 -189.333 -125.001 -240c-66.667 -100.667 -132.667 -151 -198 -151c-76.667 0 -115 49.667 -115 149c0 64 11 122.667 33 176c-40 -86 -85 -158.333 -135 -217
c-62 -72 -120.667 -108 -176 -108c-44 0 -80 21.833 -108 65.5s-42 91.5 -42 143.5c0 46 14.333 106.667 43 182l166 432c2.66699 8 4 16 4 24c0 26 -13 39 -39 39h-63c-14 0 -21 5.66699 -21 17c0 12 6.33301 18 19 18h251c23.333 0 35 -11.667 35 -35
c0 -5.33301 -1.33301 -12 -4 -20c-48 -140.667 -115 -313.334 -201 -518.001c-50 -120 -75 -198.667 -75 -236c0 -47.333 18.333 -71 55 -71c49.333 0 104.666 43.667 165.999 131c44.667 65.333 82.334 134 113.001 206c39.333 97.333 95.666 245.666 168.999 444.999
c3.33301 8 5 16 5 24c0 26 -13 39 -39 39h-58c-13.333 0 -20 5.66699 -20 17c0 12 6 18 18 18h246c23.333 0 35 -11.667 35 -35c0 -5.33301 -1.33301 -12 -4 -20l-244 -635c-24.667 -66.667 -37 -112.334 -37 -137.001c0 -35.333 15 -53 45 -53
c71.333 0 160 121.333 266 364c6 12.667 13.667 19 23 19c10.667 0 16 -6.33301 16 -19zM714.002 1235l-190 -227h-43l117 227h116z" />
    <glyph glyph-name="glyph234" unicode="&#xfd;" horiz-adv-x="784" 
d="M822 905l-313 -931.998c-24.667 -72 -48.667 -129.333 -72 -172c-38 -70.667 -92.833 -127.834 -164.5 -171.501s-147.167 -65.5 -226.5 -65.5c-62.667 0 -118.667 17.667 -168 53c-54.667 39.333 -82 90 -82 152c0 35.333 10.5 66.666 31.5 93.999s48.833 41 83.5 41
c21.333 0 40.333 -8.5 57 -25.5s25 -36.5 25 -58.5c0 -32.667 -14.667 -60 -44 -82s-44 -39.667 -44 -53c0 -58.667 47 -88 141 -88c74.667 0 132 19.667 172 59c35.333 35.333 83 142.333 143 321l129 383c-116 -250.667 -223.667 -376 -323 -376
c-98.667 0 -148 73.667 -148 221c0 40.667 13.667 97.334 41 170.001c38.667 94 94 238 166 432c2.66699 8 4 16 4 24c0 26 -13 39 -39 39h-84c-13.333 0 -20 5.66699 -20 17c0 12 6 18 18 18h273c22.667 0 34 -11.667 34 -35c0 -5.33301 -1.33301 -12 -4 -20l-243 -635
c-24.667 -66.667 -37 -112.334 -37 -137.001c0 -40 16.333 -60 49 -60c62.667 0 137 75.333 223 226c58.667 104.667 105.667 207 141 307l125 354h156zM761 1227l-191 -228h-43l117 228h117z" />
    <glyph glyph-name="Abreve" unicode="&#x102;" 
d="M2222 1395c-280 -234 -464.333 -686.668 -553 -1358h160c16 0 24 -6.33301 24 -19c0 -12 -7.33301 -18 -22 -18h-537c-12 0 -18 5.33301 -18 16c0 14 8.66699 21 26 21h168c40 220 92.667 420 158 600h-277c-214 -483.333 -492.333 -725 -835 -725
c-134 0 -245 43 -333 129s-132 196.667 -132 332c0 152.667 61.5 289.834 184.5 411.501s261.5 182.5 415.5 182.5c110.667 0 199.167 -31.833 265.5 -95.5s99.5 -147.167 99.5 -250.5c0 -136.667 -50.667 -257.667 -152 -363c-95.333 -98 -197.666 -147 -306.999 -147
c-78 0 -143.333 22.5 -196 67.5s-79 102.167 -79 171.5c0 31.333 9.66699 69 29 113c23.333 52 48.666 78 75.999 78c17.333 0 26 -7.66699 26 -23c0 -8 -4 -14 -12 -18c-53.333 -34 -80 -84 -80 -150c0 -58.667 23 -107.5 69 -146.5s101 -58.5 165 -58.5
c103.333 0 199.166 47.833 287.499 143.5s132.5 205.5 132.5 329.5c0 100 -33 178.667 -99 236c-60 50.667 -134.333 76 -223 76c-138 0 -264.333 -56 -379 -168c-118.667 -113.333 -178 -243 -178 -389c0 -127.333 42.333 -231.333 127 -312
c79.333 -74.667 176.333 -112 291 -112c319.333 0 579.333 224 780 672c95.333 212.667 178 368 248 466c128 187.333 261 281 399 281c80.667 0 123.667 -15 129.001 -45c42.667 31.333 85.667 58 129 80c12.667 5.33301 21 6 25 2c2.66699 -2.66699 2 -6 -2 -10z
M2042 1298c-6 3.33301 -20.334 10.332 -43.001 20.999c-16.667 6.66699 -36 10 -58 10c-189.333 0 -379.666 -217 -570.999 -651h274c108 282.667 240.667 489.334 398 620.001zM2300 1640c-31.333 -57.333 -71.665 -104.332 -120.999 -140.999
c-54.667 -39.333 -111.334 -59 -170.001 -59c-57.333 0 -102.333 20.5 -135 61.5s-48.334 91.5 -47.001 151.5c0 17.333 6 26 18 26s18 -8.66699 18 -26c0 -79.333 54.667 -119 164 -119c80.667 0 162.667 39.667 246 119c8 9.33301 16.333 12.666 25 9.99902
c6.66699 -4 7.33398 -11.667 2.00098 -23z" />
    <glyph glyph-name="abreve" unicode="&#x103;" horiz-adv-x="966" 
d="M976 389c0 -2.66699 -1.33301 -7.33301 -4 -14c-50.667 -112 -91.667 -191.333 -123 -238c-69.333 -102 -140.333 -153 -213 -153c-39.333 0 -69.666 14.667 -90.999 44s-30.333 68.333 -27 117c2.66699 40 14 88 34 144l-63 -111
c-80.667 -129.333 -167.334 -194 -260.001 -194c-60 0 -109.167 27.167 -147.5 81.5s-55.5 122.5 -51.5 204.5c11.333 188.667 100 365.667 266 531c82 80.667 160 121 234 121c46 0 82 -19.833 108 -59.5s37.667 -91.5 35 -155.5c-1.33301 -19.333 -4 -39.333 -8 -60
l104 258h164l-291 -715c-14.667 -40.667 -22 -74.667 -22 -102c0 -40.667 13 -61 39 -61c82 0 174.667 120.667 278 362c6 12.667 13.667 19 23 19c12 0 17.333 -6.33301 16 -19zM638 700.001c2.66699 54.667 -5.16699 99.166 -23.5 133.499s-43.833 51.5 -76.5 51.5
c-60 0 -127.667 -74.333 -203 -223c-106 -209.333 -162.667 -381.666 -170 -516.999c-4 -81.333 22.667 -122 80 -122c76.667 0 152.667 66 228 198c102 182 157 341.667 165 479zM974.999 1175c-31.333 -57.333 -71.666 -104.332 -120.999 -140.999
c-54.667 -39.333 -111.334 -59 -170.001 -59c-57.333 0 -102.333 20.5 -135 61.5s-48.334 91.5 -47.001 151.5c0 17.333 6 26 18 26c12.667 0 19 -8.66699 19 -26c0 -79.333 54.667 -119 164 -119c80.667 0 162.667 39.667 246 119c8 9.33301 16 12.666 24 9.99902
c6.66699 -4 7.33398 -11.667 2.00098 -23z" />
    <glyph glyph-name="Ccaron" unicode="&#x10c;" horiz-adv-x="1274" 
 />
    <glyph glyph-name="ccaron" unicode="&#x10d;" horiz-adv-x="922" 
 />
    <glyph glyph-name="Dslash" unicode="&#x110;" horiz-adv-x="1744" 
d="M1724 795c-14.667 -244.667 -103.331 -440.002 -265.998 -586.002c-155.333 -139.333 -346.333 -209 -573 -209h-529c-12 0 -18 5.33301 -18 16c0 12.667 8 19 24 19h195l242 667h-267l13 37h266l209 580h186l-211 -580h297l-12 -37h-299l-242 -667h160
c191.333 0 349 66 473 198c138 144 213.667 347 227 609c12.667 194 -32.5 345.833 -135.5 455.5s-255.5 164.5 -457.5 164.5c-251.333 0 -465 -72.333 -641 -217c-169.333 -138 -258.333 -301.667 -267 -491c-4 -113.333 15.833 -207.666 59.5 -282.999
s110.5 -123.666 200.5 -144.999c11.333 -2.66699 17 -9.66699 17 -21c0 -16 -7.66699 -23.333 -23 -22c-92.667 13.333 -167.334 63.333 -224.001 150s-82.334 193.667 -77.001 321c10 195.333 101 366 273 512c186.667 156.667 416 235 688 235
c218 0 393.333 -63.333 526 -190c136.667 -131.333 198.667 -303.333 186 -516z" />
    <glyph glyph-name="dcroat" unicode="&#x111;" horiz-adv-x="968" 
d="M613 700c0 44 -7.33301 83.001 -22 117.001c-19.333 45.333 -48 68 -86 68c-78 0 -156 -104.667 -234 -314c-66.667 -180 -100 -322 -100 -426c0 -81.333 28.667 -122 86 -122c94 0 180 91.333 258 274c65.333 155.333 98 289.666 98 402.999zM822 1181l21.001 62
c6.66699 19.333 10 34.333 10 45c0 27.333 -19 41 -57 41h-78c-11.333 0 -17 6.33301 -17 19c0 12 5.66699 18 17 18h285c25.333 0 30.666 -23.333 15.999 -70l-39 -115h95l-20 -42h-89l-320 -949c-12 -36.667 -18 -70.667 -18 -102c0 -40.667 14.333 -61 43 -61
c68 0 154 120.667 258 362c5.33301 12.667 12.666 19 21.999 19c11.333 0 17 -6.33301 17 -19c-1.33301 -5.33301 -2.66602 -10 -3.99902 -14c-110.667 -260.667 -214 -391 -310 -391c-39.333 0 -71.333 17.667 -96 53c-23.333 31.333 -35 67.333 -35 108
c0 42.667 9 90.667 27 144c-98.667 -203.333 -201 -305 -307 -305c-68.667 0 -122.667 32 -162 96c-34 54.667 -51 118 -51 190c0 188.667 79 365.667 237 531c78 80.667 154 121 228 121c52.667 0 92 -24 118 -72c23.333 -38 35 -86.333 35 -145
c0 -20.667 -1.33301 -40 -4 -58l164 492h-301l19 42h296z" />
    <glyph glyph-name="Itilde" unicode="&#x128;" horiz-adv-x="1411" 
d="M1706 1452c-76.667 -49.333 -139.664 -121.005 -188.997 -215.005c-36.667 -72.667 -72 -173.667 -106 -303l-92 -371c-58.667 -222.667 -162.667 -390 -312 -502c-132 -99.333 -289.667 -149 -473 -149c-136 0 -250.5 40.667 -343.5 122s-139.5 188 -139.5 320
c0 150.667 47.833 277.167 143.5 379.5s215.834 153.5 360.501 153.5c106.667 0 196.167 -32.5 268.5 -97.5s108.5 -147.833 108.5 -248.5c0 -122 -35.833 -221.167 -107.5 -297.5s-160.834 -114.5 -267.501 -114.5c-76.667 0 -139.834 24.5 -189.501 73.5
s-74.5 107.167 -74.5 174.5c0 64 22.5 122 67.5 174s95.5 78 151.5 78c14.667 0 22 -6.33301 22 -19c0 -12 -5.33301 -18 -16 -18c-45.333 0 -86.333 -20 -123 -60c-40.667 -43.333 -61 -95.666 -61 -156.999c0 -57.333 21.5 -106.5 64.5 -147.5s95.833 -61.5 158.5 -61.5
c96.667 0 176.5 35.167 239.5 105.5s94.5 158.833 94.5 265.5c0 96.667 -33.167 173.667 -99.5 231s-146.5 86 -240.5 86c-124.667 0 -232.334 -48.167 -323.001 -144.5s-136 -214.166 -136 -353.499c0 -128 46.333 -229.667 139 -305c84.667 -68 187 -102 307 -102
c145.333 0 266.333 51.667 363 155c72 78 132.667 188.667 182 332l84 312c35.333 126.667 72.333 227.667 111 303c64 122.667 148.667 221 254 295c-46.667 -23.333 -168.334 -66.166 -365.001 -128.499s-295 -145.166 -295 -248.499c0 -82 40.333 -123 121 -123
c34 0 60.667 10.167 80 30.5s31 30.5 35 30.5c12 0 18 -6 18 -18c0 -20.667 -18.333 -40 -55 -58c-30 -14.667 -57.333 -22 -82 -22c-45.333 0 -82.333 14.333 -111 43s-43 67.667 -43 117c0 74.667 37.667 137.334 113 188.001c56 38 146.667 75.667 272 113
c229.333 68 384.333 137 465 207c5.33301 4 11 6 17 6c10.667 0 16 -5 16 -15c0 -6.66699 -4 -12 -12 -16zM1660 1616c-23.333 -50.667 -42.3359 -83.999 -57.0029 -99.999c-24.667 -30.667 -55 -46 -91 -46c-34 0 -80 14.833 -138 44.5s-95.667 44.5 -113 44.5
c-41.333 0 -77 -26 -107 -78c-5.33301 -8.66699 -10.666 -13 -15.999 -13c-11.333 0 -13.333 7 -6 21c42 99.333 102.667 149 182 149c28.667 0 71.334 -12.833 128.001 -38.5s92.334 -38.5 107.001 -38.5c37.333 0 67.333 21 90 63c6 9.33301 12.333 12.666 19 9.99902
c5.33301 -2.66699 6 -8.66699 2 -18z" />
    <glyph glyph-name="itilde" unicode="&#x129;" horiz-adv-x="481" 
d="M481 389c0 -4 -1.33203 -8.66602 -3.99902 -13.999c-112 -260.667 -220 -391 -324 -391c-43.333 0 -77.333 22.333 -102 67c-20.667 36.667 -31 78.334 -31 125.001c0 57.333 14.333 123.666 43 198.999l166 432c2.66699 9.33301 4 17.333 4 24c0 26 -13 39 -39 39h-78
c-13.333 0 -20 5.66699 -20 17c0 12 6 18 18 18h266c23.333 0 35 -11.667 35 -35c0 -5.33301 -1.33301 -12 -4 -20l-244 -635c-24 -66.667 -36 -112.334 -36 -137.001c0 -35.333 15 -53 45 -53c65.333 0 154 121.333 266 364c5.33301 12.667 12.666 19 21.999 19
c11.333 0 17 -6.33301 17 -19zM690.001 1178c-23.333 -50.667 -42.334 -84.332 -57.001 -100.999c-24.667 -30 -54.667 -45 -90 -45c-34 0 -80 14.667 -138 44s-96 44 -114 44c-40.667 0 -76.334 -26 -107.001 -78c-5.33301 -8 -10.666 -12 -15.999 -12
c-10.667 0 -12.667 7 -6 21c42 99.333 102.667 149 182 149c28.667 0 71.334 -13 128.001 -39s92.667 -39 108 -39c36.667 0 66.667 21.333 90 64c5.33301 9.33301 11.333 12.666 18 9.99902c5.33301 -2.66699 6 -8.66699 2 -18z" />
    <glyph glyph-name="Utilde" unicode="&#x168;" horiz-adv-x="2181" 
d="M2509 1366c13.333 0 20 -4.66797 20 -14.001c0 -14 -6.66699 -21 -20 -21c-76.667 0 -135.334 -16.333 -176 -49c-45.333 -35.333 -85.666 -101.666 -121 -198.999l-281 -774c-38 -103.333 -82.333 -180.333 -133 -231c-79.333 -75.333 -188.666 -113 -327.999 -113
c-118.667 0 -209.334 24.667 -272.001 74c-58.667 44.667 -88 106.667 -88 186c0 44 9 90.667 27 140l352 966h-485c-196.667 0 -357.334 -54 -482.001 -162c-117.333 -102 -169.666 -222.667 -156.999 -362c8 -94 43.667 -171.167 107 -231.5s142.333 -90.5 237 -90.5
c138.667 0 253.334 48.667 344.001 146c86 91.333 123.333 195.666 112 312.999c-5.33301 61.333 -28.166 112.833 -68.499 154.5s-91.833 62.5 -154.5 62.5c-122.667 0 -217 -47 -283 -141c-56 -79.333 -79.667 -166 -71 -260c1.33301 -16.667 6.66602 -35.5 15.999 -56.5
s14 -33.5 14 -37.5c0 -12.667 -6 -19 -18 -19s-21.667 7 -29 21c-14.667 27.333 -23.334 58 -26.001 92c-10 113.333 23.667 215 101 305s175.333 135 294 135c74 0 135.833 -23.833 185.5 -71.5s77.834 -109.167 84.501 -184.5c11.333 -125.333 -29.667 -238 -123 -338
c-98 -108 -224 -162 -378 -162c-108 0 -197.833 34.833 -269.5 104.5s-111.834 155.834 -120.501 258.501c-13.333 156.667 45.167 289 175.5 397s296.5 162 498.5 162h858c10 0 15 -5.33301 15 -16c0 -12.667 -7 -19 -21 -19h-172l-375 -1022
c-18.667 -52 -28 -97.667 -28 -137c0 -109.333 74.333 -164 223 -164c120 0 214.333 33.667 283 101c47.333 46 88 118.333 122 217l277 770c19.333 53.333 29 95 29 125c0 73.333 -64.333 110 -193 110c-12 0 -18 5.66699 -18 17c0 12 8.66699 18 26 18h490zM2266 1616
c-23.333 -50.667 -42.335 -83.999 -57.002 -99.999c-24.667 -30.667 -54.667 -46 -90 -46c-34.667 0 -81 14.833 -139 44.5s-95.667 44.5 -113 44.5c-41.333 0 -77 -26 -107 -78c-5.33301 -8.66699 -10.666 -13 -15.999 -13c-11.333 0 -13.333 7 -6 21
c42 99.333 102.667 149 182 149c28.667 0 71.334 -12.833 128.001 -38.5s92.667 -38.5 108 -38.5c36.667 0 66.667 21 90 63c5.33301 9.33301 11.333 12.666 18 9.99902c5.33301 -2.66699 6 -8.66699 2 -18z" />
    <glyph glyph-name="utilde" unicode="&#x169;" horiz-adv-x="880" 
d="M890 389c0 -4 -1.33105 -8.66406 -3.99805 -13.9971c-48.667 -109.333 -90.334 -189.333 -125.001 -240c-66.667 -100.667 -132.667 -151 -198 -151c-76.667 0 -115 49.667 -115 149c0 64 11 122.667 33 176c-40 -86 -85 -158.333 -135 -217
c-62 -72 -120.667 -108 -176 -108c-44 0 -80 21.833 -108 65.5s-42 91.5 -42 143.5c0 46 14.333 106.667 43 182l166 432c2.66699 8 4 16 4 24c0 26 -13 39 -39 39h-63c-14 0 -21 5.66699 -21 17c0 12 6.33301 18 19 18h251c23.333 0 35 -11.667 35 -35
c0 -5.33301 -1.33301 -12 -4 -20c-48 -140.667 -115 -313.334 -201 -518.001c-50 -120 -75 -198.667 -75 -236c0 -47.333 18.333 -71 55 -71c49.333 0 104.666 43.667 165.999 131c44.667 65.333 82.334 134 113.001 206c39.333 97.333 95.666 245.666 168.999 444.999
c3.33301 8 5 16 5 24c0 26 -13 39 -39 39h-58c-13.333 0 -20 5.66699 -20 17c0 12 6 18 18 18h246c23.333 0 35 -11.667 35 -35c0 -5.33301 -1.33301 -12 -4 -20l-244 -635c-24.667 -66.667 -37 -112.334 -37 -137.001c0 -35.333 15 -53 45 -53
c71.333 0 160 121.333 266 364c6 12.667 13.667 19 23 19c10.667 0 16 -6.33301 16 -19zM876.002 1167c-23.333 -50 -42.3359 -83.332 -57.0029 -99.999c-24.667 -30 -55 -45 -91 -45c-34 0 -80 14.667 -138 44s-95.667 44 -113 44c-41.333 0 -77 -26 -107 -78
c-5.33301 -8 -10.666 -12 -15.999 -12c-11.333 0 -13.333 6.66699 -6 20c42 100 102.667 150 182 150c28.667 0 71.334 -13 128.001 -39s92.334 -39 107.001 -39c37.333 0 67.333 21.333 90 64c6 9.33301 12.333 12.666 19 9.99902c5.33301 -2.66699 6 -9 2 -19z" />
    <glyph glyph-name="Ohorn" unicode="&#x1a0;" horiz-adv-x="1169" 
d="M1209 1228c21.333 -50.667 31.999 -115.33 31.999 -193.997c0 -129.333 -36.333 -277.333 -109 -444c-74.667 -174.667 -169.667 -318 -285 -430c-128 -130 -260.333 -195 -397 -195c-100.667 0 -183.834 37.5 -249.501 112.5s-98.5 179.5 -98.5 313.5
c0 110.667 40 248.334 120 413.001s176.667 303.667 290 417c126.667 128 247.334 192 362.001 192c50.667 0 75.334 -9.66699 74.001 -29c-1.33301 -10.667 -7 -16 -17 -16l-11 8c-7.33301 5.33301 -18.666 8 -33.999 8c-62.667 0 -137.667 -42.333 -225 -127
c-95.333 -94 -178 -214.667 -248 -362c-80.667 -173.333 -129.667 -361.666 -147 -564.999c-2.66699 -20.667 -4 -41.334 -4 -62.001c0 -88.667 19 -157 57 -205c34 -43.333 79.667 -65 137 -65c173.333 0 339.333 120 498 360c140.667 213.333 219 419.666 235 618.999
c3.33301 24.667 5 48.667 5 72c0 184 -59 276 -177 276c-118.667 0 -247.167 -104.833 -385.5 -314.5s-216.5 -412.167 -234.5 -607.5c-6.66699 -81.333 5 -144.666 35 -189.999c24.667 -36.667 56 -55 94 -55c52 0 97 21.667 135 65c4 5.33301 9.33301 8 16 8
c11.333 0 17 -5.33301 17 -16c0 -23.333 -23.333 -45 -70 -65c-38 -16.667 -70.667 -25 -98 -25c-112 0 -168 81.333 -168 244c0 103.333 30.667 233 92 389c67.333 164 148 300.333 242 409c109.333 127.333 218.666 191 327.999 191c68 0 122 -27.333 162 -82
c4 -6.66699 8.33301 -13.334 13 -20.001c68 41.333 118.333 86.333 151 135c-20 -14.667 -41 -19 -63 -13c-20 6 -34.333 18 -43 36s-10 38 -4 60c8 28 24 50.167 48 66.5s48.667 21.166 74 14.499c24 -6.66699 40.833 -21 50.5 -43s10.5 -47.333 2.5 -76
c-12 -42.667 -46.333 -88.334 -103 -137.001c-30.667 -26.667 -63.667 -50.334 -99 -71.001z" />
    <glyph glyph-name="ohorn" unicode="&#x1a1;" horiz-adv-x="811" 
d="M630 719c0 113.333 -38.333 170 -115 170c-62.667 0 -122 -52 -178 -156c-46.667 -86 -85.334 -180.5 -116.001 -283.5s-46 -192.167 -46 -267.5c0 -110.667 40.333 -166 121 -166c66.667 0 127.334 50.667 182.001 152c101.333 187.333 152 371 152 551zM724 792
c36.667 -60 54.999 -131.331 54.999 -213.998c0 -156 -50.167 -294 -150.5 -414s-213.166 -180 -338.499 -180c-71.333 0 -132.5 34 -183.5 102s-76.5 150 -76.5 246c0 152.667 50.167 289.167 150.5 409.5s212.5 180.5 336.5 180.5c74 0 136.333 -33 187 -99
c0.666992 -2 1.66699 -3.66699 3 -5c58 38 101.667 79 131 123c-20 -14.667 -41 -19 -63 -13c-20 6 -34.333 18 -43 36s-10 38 -4 60c8 28 24 50.167 48 66.5s48.667 21.166 74 14.499c24 -6.66699 40.833 -21 50.5 -43s10.5 -47.333 2.5 -76
c-12 -42.667 -46.333 -88.334 -103 -137.001c-24 -20.667 -49.333 -39.667 -76 -57z" />
    <glyph glyph-name="Uhorn" unicode="&#x1af;" horiz-adv-x="2179" 
d="M2194 1042l-265.999 -732.999c-38 -103.333 -82.333 -180.333 -133 -231c-79.333 -75.333 -188.666 -113 -327.999 -113c-118.667 0 -209.334 24.667 -272.001 74c-58.667 44.667 -88 106.667 -88 186c0 44 9 90.667 27 140l352 966h-485
c-196.667 0 -357.334 -54 -482.001 -162c-117.333 -102 -169.666 -222.667 -156.999 -362c8 -94 43.667 -171.167 107 -231.5s142.333 -90.5 237 -90.5c139.333 0 254 48.667 344 146c86 91.333 123.333 195.666 112 312.999c-5.33301 61.333 -28.166 112.833 -68.499 154.5
s-91.833 62.5 -154.5 62.5c-122.667 0 -217 -47 -283 -141c-56 -79.333 -79.667 -166 -71 -260c1.33301 -16.667 6.66602 -35.5 15.999 -56.5s14 -33.5 14 -37.5c0 -12.667 -6 -19 -18 -19s-21.667 7 -29 21c-14.667 27.333 -23.334 58 -26.001 92
c-10 113.333 23.667 215 101 305s175.333 135 294 135c74 0 135.833 -23.833 185.5 -71.5s77.834 -109.167 84.501 -184.5c11.333 -125.333 -29.667 -238 -123 -338c-98 -108 -224 -162 -378 -162c-108 0 -197.833 34.833 -269.5 104.5s-111.834 155.834 -120.501 258.501
c-13.333 156.667 45.167 289 175.5 397s296.5 162 498.5 162h858c10 0 15 -5.33301 15 -16c0 -12.667 -7 -19 -21 -19h-172l-375 -1022c-18.667 -52 -28 -97.667 -28 -137c0 -109.333 74.333 -164 223 -164c120 0 214.333 33.667 283 101c47.333 46 88 118.333 122 217
l277 770c19.333 53.333 29 95 29 125c0 73.333 -64.333 110 -193 110c-12 0 -18 5.66699 -18 17c0 12 8.66699 18 26 18h268c21.333 -0.666992 29.666 -13.334 25 -38.001zM2249 1247c76 44 131.333 92.002 166 144.002c-20 -14.667 -41 -19 -63 -13
c-20 6 -34.333 18 -43 36s-10 38 -4 60c8 28 24 50.167 48 66.5s48.667 21.166 74 14.499c24 -6.66699 40.833 -21 50.5 -43s10.5 -47.333 2.5 -76c-12 -42.667 -46.333 -88.334 -103 -137.001c-37.333 -32 -78 -60 -122 -84z" />
    <glyph glyph-name="uhorn" unicode="&#x1b0;" horiz-adv-x="880" 
d="M795 783l-216.998 -567.995c-24.667 -66.667 -37 -112.334 -37 -137.001c0 -35.333 15 -53 45 -53c70.667 0 159.334 121.333 266.001 364c5.33301 12.667 12.666 19 21.999 19c11.333 0 17 -6.33301 17 -19c0 -4 -1.33301 -8.66699 -4 -14
c-49.333 -109.333 -91 -189.333 -125 -240c-66.667 -100.667 -133 -151 -199 -151c-76 0 -114 49.667 -114 149c0 64 10.667 122.667 32 176c-39.333 -86 -84.333 -158.333 -135 -217c-61.333 -72 -120 -108 -176 -108c-44 0 -80 21.833 -108 65.5s-42 91.5 -42 143.5
c0 46 14.333 106.667 43 182c38.667 94 94 238 166 432c2.66699 8 4 16 4 24c0 26 -12.667 39 -38 39h-64c-13.333 0 -20 5.66699 -20 17c0 12 6 18 18 18h252c23.333 0 35 -11.667 35 -35c0 -5.33301 -1.33301 -12 -4 -20c-48 -140.667 -115 -313.334 -201 -518.001
c-50.667 -120 -76 -198.667 -76 -236c0 -47.333 18.333 -71 55 -71c49.333 0 104.666 43.667 165.999 131c45.333 65.333 83 134 113 206c39.333 97.333 96 245.666 170 444.999c2.66699 8 4 16 4 24c0 26 -13 39 -39 39h-57c-14 0 -21 5.66699 -21 17
c0 12 6.33301 18 19 18h246c22.667 0 34 -11.667 34 -35c0 -5.33301 -1.33301 -12 -4 -20c-2 -5.33301 -4 -11 -6 -17c47.333 34 83.666 70 108.999 108c-20 -14.667 -41 -19 -63 -13c-20 6 -34.333 18 -43 36s-10 38 -4 60c8 28 24 50.167 48 66.5s48.667 21.166 74 14.499
c24 -6.66699 40.833 -21 50.5 -43s10.5 -47.333 2.5 -76c-12 -42.667 -46.333 -88.334 -103 -137.001c-28 -24 -58.333 -46 -91 -66z" />
    <glyph glyph-name="uni1EA0" unicode="&#x1ea0;" 
d="M2222 1395c-280 -234 -464.333 -686.668 -553 -1358h160c16 0 24 -6.33301 24 -19c0 -12 -7.33301 -18 -22 -18h-537c-12 0 -18 5.33301 -18 16c0 14 8.66699 21 26 21h168c40 220 92.667 420 158 600h-277c-214 -483.333 -492.333 -725 -835 -725
c-134 0 -245 43 -333 129s-132 196.667 -132 332c0 152.667 61.5 289.834 184.5 411.501s261.5 182.5 415.5 182.5c110.667 0 199.167 -31.833 265.5 -95.5s99.5 -147.167 99.5 -250.5c0 -136.667 -50.667 -257.667 -152 -363c-95.333 -98 -197.666 -147 -306.999 -147
c-78 0 -143.333 22.5 -196 67.5s-79 102.167 -79 171.5c0 31.333 9.66699 69 29 113c23.333 52 48.666 78 75.999 78c17.333 0 26 -7.66699 26 -23c0 -8 -4 -14 -12 -18c-53.333 -34 -80 -84 -80 -150c0 -58.667 23 -107.5 69 -146.5s101 -58.5 165 -58.5
c103.333 0 199.166 47.833 287.499 143.5s132.5 205.5 132.5 329.5c0 100 -33 178.667 -99 236c-60 50.667 -134.333 76 -223 76c-138 0 -264.333 -56 -379 -168c-118.667 -113.333 -178 -243 -178 -389c0 -127.333 42.333 -231.333 127 -312
c79.333 -74.667 176.333 -112 291 -112c319.333 0 579.333 224 780 672c95.333 212.667 178 368 248 466c128 187.333 261 281 399 281c80.667 0 123.667 -15 129.001 -45c42.667 31.333 85.667 58 129 80c12.667 5.33301 21 6 25 2c2.66699 -2.66699 2 -6 -2 -10z
M2042 1298c-6 3.33301 -20.334 10.332 -43.001 20.999c-16.667 6.66699 -36 10 -58 10c-189.333 0 -379.666 -217 -570.999 -651h274c108 282.667 240.667 489.334 398 620.001zM1198 -181.002c-4 -32.667 -16.499 -60.666 -37.499 -83.999s-44.5 -35 -70.5 -35
c-52 0 -74.667 29.333 -68 88c4 31.333 16.667 58.666 38 81.999s45 35 71 35c51.333 0 73.666 -28.667 66.999 -86z" />
    <glyph glyph-name="uni1EA1" unicode="&#x1ea1;" horiz-adv-x="966" 
d="M976 389c0 -2.66699 -1.33301 -7.33301 -4 -14c-50.667 -112 -91.667 -191.333 -123 -238c-69.333 -102 -140.333 -153 -213 -153c-39.333 0 -69.666 14.667 -90.999 44s-30.333 68.333 -27 117c2.66699 40 14 88 34 144l-63 -111
c-80.667 -129.333 -167.334 -194 -260.001 -194c-60 0 -109.167 27.167 -147.5 81.5s-55.5 122.5 -51.5 204.5c11.333 188.667 100 365.667 266 531c82 80.667 160 121 234 121c46 0 82 -19.833 108 -59.5s37.667 -91.5 35 -155.5c-1.33301 -19.333 -4 -39.333 -8 -60
l104 258h164l-291 -715c-14.667 -40.667 -22 -74.667 -22 -102c0 -40.667 13 -61 39 -61c82 0 174.667 120.667 278 362c6 12.667 13.667 19 23 19c12 0 17.333 -6.33301 16 -19zM638 700.001c2.66699 54.667 -5.16699 99.166 -23.5 133.499s-43.833 51.5 -76.5 51.5
c-60 0 -127.667 -74.333 -203 -223c-106 -209.333 -162.667 -381.666 -170 -516.999c-4 -81.333 22.667 -122 80 -122c76.667 0 152.667 66 228 198c102 182 157 341.667 165 479zM456.999 -195c-4 -32.667 -16.667 -60.666 -38 -83.999s-45 -35 -71 -35
c-52 0 -74.333 29.333 -67 88c4 31.333 16.5 58.666 37.5 81.999s44.5 35 70.5 35c52 0 74.667 -28.667 68 -86z" />
    <glyph glyph-name="uni1EA2" unicode="&#x1ea2;" 
d="M2222 1395c-280 -234 -464.333 -686.668 -553 -1358h160c16 0 24 -6.33301 24 -19c0 -12 -7.33301 -18 -22 -18h-537c-12 0 -18 5.33301 -18 16c0 14 8.66699 21 26 21h168c40 220 92.667 420 158 600h-277c-214 -483.333 -492.333 -725 -835 -725
c-134 0 -245 43 -333 129s-132 196.667 -132 332c0 152.667 61.5 289.834 184.5 411.501s261.5 182.5 415.5 182.5c110.667 0 199.167 -31.833 265.5 -95.5s99.5 -147.167 99.5 -250.5c0 -136.667 -50.667 -257.667 -152 -363c-95.333 -98 -197.666 -147 -306.999 -147
c-78 0 -143.333 22.5 -196 67.5s-79 102.167 -79 171.5c0 31.333 9.66699 69 29 113c23.333 52 48.666 78 75.999 78c17.333 0 26 -7.66699 26 -23c0 -8 -4 -14 -12 -18c-53.333 -34 -80 -84 -80 -150c0 -58.667 23 -107.5 69 -146.5s101 -58.5 165 -58.5
c103.333 0 199.166 47.833 287.499 143.5s132.5 205.5 132.5 329.5c0 100 -33 178.667 -99 236c-60 50.667 -134.333 76 -223 76c-138 0 -264.333 -56 -379 -168c-118.667 -113.333 -178 -243 -178 -389c0 -127.333 42.333 -231.333 127 -312
c79.333 -74.667 176.333 -112 291 -112c319.333 0 579.333 224 780 672c95.333 212.667 178 368 248 466c128 187.333 261 281 399 281c80.667 0 123.667 -15 129.001 -45c42.667 31.333 85.667 58 129 80c12.667 5.33301 21 6 25 2c2.66699 -2.66699 2 -6 -2 -10z
M2042 1298c-6 3.33301 -20.334 10.332 -43.001 20.999c-16.667 6.66699 -36 10 -58 10c-189.333 0 -379.666 -217 -570.999 -651h274c108 282.667 240.667 489.334 398 620.001zM2106 1554l-71.0029 -25.999c-42.667 -16.667 -66 -36 -70 -58
c-3.33301 -18 3.33398 -27 20.001 -27c13.333 0 28 6.5 44 19.5s28.667 30.167 38 51.5c2 5.33301 8.66699 8 20 8c14 0 20 -2.33301 18 -7c-9.33301 -24.667 -25.333 -45.334 -48 -62.001s-48 -25 -76 -25c-21.333 0 -37 4.16699 -47 12.5s-14 18.166 -12 29.499
c3.33301 18.667 22.666 39 57.999 61l33 20c74.667 46.667 116 90.334 124 131.001c5.33301 27.333 -5.33398 41 -32 41c-14 0 -28.667 -2.66699 -44 -8c-27.333 -9.33301 -50.666 -22.666 -69.999 -39.999s-30.666 -35.333 -33.999 -54s3 -28 19 -28
c18 0 36.833 8.66699 56.5 26s33.834 39.666 42.5 66.999c2 6 8.66699 9 20 9c13.333 0 19.333 -2.33301 18 -7c-10 -31.333 -27.833 -57.333 -53.5 -78s-54.834 -31 -87.501 -31c-44 0 -63 13.333 -57 40c6 31.333 32.667 60.333 80 87c38.667 22.667 80.667 34 126.001 34
c34.667 0 62.334 -7 83.001 -21s31 -30.667 31 -50c0 -44 -43 -82.333 -129 -115z" />
    <glyph glyph-name="uni1EA3" unicode="&#x1ea3;" horiz-adv-x="966" 
d="M976 389c0 -2.66699 -1.33301 -7.33301 -4 -14c-50.667 -112 -91.667 -191.333 -123 -238c-69.333 -102 -140.333 -153 -213 -153c-39.333 0 -69.666 14.667 -90.999 44s-30.333 68.333 -27 117c2.66699 40 14 88 34 144l-63 -111
c-80.667 -129.333 -167.334 -194 -260.001 -194c-60 0 -109.167 27.167 -147.5 81.5s-55.5 122.5 -51.5 204.5c11.333 188.667 100 365.667 266 531c82 80.667 160 121 234 121c46 0 82 -19.833 108 -59.5s37.667 -91.5 35 -155.5c-1.33301 -19.333 -4 -39.333 -8 -60
l104 258h164l-291 -715c-14.667 -40.667 -22 -74.667 -22 -102c0 -40.667 13 -61 39 -61c82 0 174.667 120.667 278 362c6 12.667 13.667 19 23 19c12 0 17.333 -6.33301 16 -19zM638 700.001c2.66699 54.667 -5.16699 99.166 -23.5 133.499s-43.833 51.5 -76.5 51.5
c-60 0 -127.667 -74.333 -203 -223c-106 -209.333 -162.667 -381.666 -170 -516.999c-4 -81.333 22.667 -122 80 -122c76.667 0 152.667 66 228 198c102 182 157 341.667 165 479zM810.999 1093l-71.002 -25.999c-42.667 -16.667 -66 -36 -70 -58
c-3.33301 -18 3.33398 -27 20.001 -27c13.333 0 28 6.5 44 19.5s28.667 30.167 38 51.5c2 5.33301 8.66699 8 20 8c14 0 20 -2.33301 18 -7c-9.33301 -24.667 -25.333 -45.334 -48 -62.001s-48 -25 -76 -25c-21.333 0 -37 4.16699 -47 12.5s-14 18.166 -12 29.499
c3.33301 18.667 22.666 39 57.999 61l33 20c74.667 46.667 116 90.334 124 131.001c5.33301 27.333 -5.33398 41 -32.001 41c-14 0 -28.667 -2.66699 -44 -8c-27.333 -9.33301 -50.666 -22.666 -69.999 -39.999s-30.666 -35.333 -33.999 -54s3 -28 19 -28
c18 0 36.833 8.66699 56.5 26s33.834 39.666 42.501 66.999c2 6 8.66699 9 20 9c13.333 0 19.333 -2.33301 18 -7c-10 -31.333 -27.833 -57.333 -53.5 -78s-54.834 -31 -87.501 -31c-44 0 -63 13.333 -57 40c6 31.333 32.667 60.333 80 87c38.667 22.667 80.667 34 126 34
c34.667 0 62.334 -7 83.001 -21s31 -30.667 31 -50c0 -44 -43 -82.333 -129 -115z" />
    <glyph glyph-name="uni1EA4" unicode="&#x1ea4;" 
d="M2222 1395c-280 -234 -464.333 -686.668 -553 -1358h160c16 0 24 -6.33301 24 -19c0 -12 -7.33301 -18 -22 -18h-537c-12 0 -18 5.33301 -18 16c0 14 8.66699 21 26 21h168c40 220 92.667 420 158 600h-277c-214 -483.333 -492.333 -725 -835 -725
c-134 0 -245 43 -333 129s-132 196.667 -132 332c0 152.667 61.5 289.834 184.5 411.501s261.5 182.5 415.5 182.5c110.667 0 199.167 -31.833 265.5 -95.5s99.5 -147.167 99.5 -250.5c0 -136.667 -50.667 -257.667 -152 -363c-95.333 -98 -197.666 -147 -306.999 -147
c-78 0 -143.333 22.5 -196 67.5s-79 102.167 -79 171.5c0 31.333 9.66699 69 29 113c23.333 52 48.666 78 75.999 78c17.333 0 26 -7.66699 26 -23c0 -8 -4 -14 -12 -18c-53.333 -34 -80 -84 -80 -150c0 -58.667 23 -107.5 69 -146.5s101 -58.5 165 -58.5
c103.333 0 199.166 47.833 287.499 143.5s132.5 205.5 132.5 329.5c0 100 -33 178.667 -99 236c-60 50.667 -134.333 76 -223 76c-138 0 -264.333 -56 -379 -168c-118.667 -113.333 -178 -243 -178 -389c0 -127.333 42.333 -231.333 127 -312
c79.333 -74.667 176.333 -112 291 -112c319.333 0 579.333 224 780 672c95.333 212.667 178 368 248 466c128 187.333 261 281 399 281c80.667 0 123.667 -15 129.001 -45c42.667 31.333 85.667 58 129 80c12.667 5.33301 21 6 25 2c2.66699 -2.66699 2 -6 -2 -10z
M2042 1298c-6 3.33301 -20.334 10.332 -43.001 20.999c-16.667 6.66699 -36 10 -58 10c-189.333 0 -379.666 -217 -570.999 -651h274c108 282.667 240.667 489.334 398 620.001zM2132 1438l-34.999 0.000976562c-50.667 28.667 -102 73.667 -154 135
c-104.667 -66.667 -194 -111.667 -268 -135c-2.66699 -1.33301 -21 -1.33301 -55 0c58.667 27.333 116.667 60.666 174 99.999c69.333 49.333 113.666 92.333 132.999 129h68c4 -42 49.667 -118.333 137 -229zM2301 1804l-190 -227h-43l117 227h116z" />
    <glyph glyph-name="uni1EA5" unicode="&#x1ea5;" horiz-adv-x="966" 
d="M982 389c0 -2.66699 -1.33301 -7.33301 -4 -14c-50.667 -112 -91.667 -191.333 -123 -238c-69.333 -102 -140.333 -153 -213 -153c-39.333 0 -69.666 14.667 -90.999 44s-30.333 68.333 -27 117c2.66699 40 14 88 34 144l-63 -111
c-80.667 -129.333 -167.334 -194 -260.001 -194c-60 0 -109.167 27.167 -147.5 81.5s-55.5 122.5 -51.5 204.5c11.333 188.667 100 365.667 266 531c82 80.667 160 121 234 121c46 0 82 -19.833 108 -59.5s37.667 -91.5 35 -155.5c-1.33301 -19.333 -4 -39.333 -8 -60
l104 258h164l-291 -715c-14.667 -40.667 -22 -74.667 -22 -102c0 -40.667 13 -61 39 -61c82 0 174.667 120.667 278 362c6 12.667 13.667 19 23 19c12 0 17.333 -6.33301 16 -19zM644 700.001c2.66699 54.667 -5.16699 99.166 -23.5 133.499s-43.833 51.5 -76.5 51.5
c-60 0 -127.667 -74.333 -203 -223c-106 -209.333 -162.667 -381.666 -170 -516.999c-4 -81.333 22.667 -122 80 -122c76.667 0 152.667 66 228 198c102 182 157 341.667 165 479zM1074 1360l-191 -227h-43l117 227h117zM908.999 989l-35 0.000976562
c-50.667 28.667 -102 73.667 -154 135c-105.333 -66.667 -194.666 -111.667 -267.999 -135c-2.66699 -1.33301 -21 -1.33301 -55 0c58.667 27.333 116.667 61 174 101c69.333 48.667 113.666 91.667 132.999 129h67c4.66699 -42.667 50.667 -119.334 138 -230.001z" />
    <glyph glyph-name="uni1EA6" unicode="&#x1ea6;" 
d="M2222 1395c-280 -234 -464.333 -686.668 -553 -1358h160c16 0 24 -6.33301 24 -19c0 -12 -7.33301 -18 -22 -18h-537c-12 0 -18 5.33301 -18 16c0 14 8.66699 21 26 21h168c40 220 92.667 420 158 600h-277c-214 -483.333 -492.333 -725 -835 -725
c-134 0 -245 43 -333 129s-132 196.667 -132 332c0 152.667 61.5 289.834 184.5 411.501s261.5 182.5 415.5 182.5c110.667 0 199.167 -31.833 265.5 -95.5s99.5 -147.167 99.5 -250.5c0 -136.667 -50.667 -257.667 -152 -363c-95.333 -98 -197.666 -147 -306.999 -147
c-78 0 -143.333 22.5 -196 67.5s-79 102.167 -79 171.5c0 31.333 9.66699 69 29 113c23.333 52 48.666 78 75.999 78c17.333 0 26 -7.66699 26 -23c0 -8 -4 -14 -12 -18c-53.333 -34 -80 -84 -80 -150c0 -58.667 23 -107.5 69 -146.5s101 -58.5 165 -58.5
c103.333 0 199.166 47.833 287.499 143.5s132.5 205.5 132.5 329.5c0 100 -33 178.667 -99 236c-60 50.667 -134.333 76 -223 76c-138 0 -264.333 -56 -379 -168c-118.667 -113.333 -178 -243 -178 -389c0 -127.333 42.333 -231.333 127 -312
c79.333 -74.667 176.333 -112 291 -112c319.333 0 579.333 224 780 672c95.333 212.667 178 368 248 466c128 187.333 261 281 399 281c80.667 0 123.667 -15 129.001 -45c42.667 31.333 85.667 58 129 80c12.667 5.33301 21 6 25 2c2.66699 -2.66699 2 -6 -2 -10z
M2042 1298c-6 3.33301 -20.334 10.332 -43.001 20.999c-16.667 6.66699 -36 10 -58 10c-189.333 0 -379.666 -217 -570.999 -651h274c108 282.667 240.667 489.334 398 620.001zM2132 1438l-34.999 0.000976562c-50.667 28.667 -102 73.667 -154 135
c-104.667 -66.667 -194 -111.667 -268 -135c-2.66699 -1.33301 -21 -1.33301 -55 0c58.667 27.333 116.667 60.666 174 99.999c69.333 49.333 113.666 92.333 132.999 129h68c4 -42 49.667 -118.333 137 -229zM2135 1606h-43l-199 227h125z" />
    <glyph glyph-name="uni1EA7" unicode="&#x1ea7;" horiz-adv-x="966" 
d="M982 389c0 -2.66699 -1.33301 -7.33301 -4 -14c-50.667 -112 -91.667 -191.333 -123 -238c-69.333 -102 -140.333 -153 -213 -153c-39.333 0 -69.666 14.667 -90.999 44s-30.333 68.333 -27 117c2.66699 40 14 88 34 144l-63 -111
c-80.667 -129.333 -167.334 -194 -260.001 -194c-60 0 -109.167 27.167 -147.5 81.5s-55.5 122.5 -51.5 204.5c11.333 188.667 100 365.667 266 531c82 80.667 160 121 234 121c46 0 82 -19.833 108 -59.5s37.667 -91.5 35 -155.5c-1.33301 -19.333 -4 -39.333 -8 -60
l104 258h164l-291 -715c-14.667 -40.667 -22 -74.667 -22 -102c0 -40.667 13 -61 39 -61c82 0 174.667 120.667 278 362c6 12.667 13.667 19 23 19c12 0 17.333 -6.33301 16 -19zM644 700.001c2.66699 54.667 -5.16699 99.166 -23.5 133.499s-43.833 51.5 -76.5 51.5
c-60 0 -127.667 -74.333 -203 -223c-106 -209.333 -162.667 -381.666 -170 -516.999c-4 -81.333 22.667 -122 80 -122c76.667 0 152.667 66 228 198c102 182 157 341.667 165 479zM917.999 1165h-43l-199 227h125zM908.999 989l-35 0.000976562
c-50.667 28.667 -102 73.667 -154 135c-105.333 -66.667 -194.666 -111.667 -267.999 -135c-2.66699 -1.33301 -21 -1.33301 -55 0c58.667 27.333 116.667 61 174 101c69.333 48.667 113.666 91.667 132.999 129h67c4.66699 -42.667 50.667 -119.334 138 -230.001z" />
    <glyph glyph-name="uni1EA8" unicode="&#x1ea8;" 
d="M2222 1395c-280 -234 -464.333 -686.668 -553 -1358h160c16 0 24 -6.33301 24 -19c0 -12 -7.33301 -18 -22 -18h-537c-12 0 -18 5.33301 -18 16c0 14 8.66699 21 26 21h168c40 220 92.667 420 158 600h-277c-214 -483.333 -492.333 -725 -835 -725
c-134 0 -245 43 -333 129s-132 196.667 -132 332c0 152.667 61.5 289.834 184.5 411.501s261.5 182.5 415.5 182.5c110.667 0 199.167 -31.833 265.5 -95.5s99.5 -147.167 99.5 -250.5c0 -136.667 -50.667 -257.667 -152 -363c-95.333 -98 -197.666 -147 -306.999 -147
c-78 0 -143.333 22.5 -196 67.5s-79 102.167 -79 171.5c0 31.333 9.66699 69 29 113c23.333 52 48.666 78 75.999 78c17.333 0 26 -7.66699 26 -23c0 -8 -4 -14 -12 -18c-53.333 -34 -80 -84 -80 -150c0 -58.667 23 -107.5 69 -146.5s101 -58.5 165 -58.5
c103.333 0 199.166 47.833 287.499 143.5s132.5 205.5 132.5 329.5c0 100 -33 178.667 -99 236c-60 50.667 -134.333 76 -223 76c-138 0 -264.333 -56 -379 -168c-118.667 -113.333 -178 -243 -178 -389c0 -127.333 42.333 -231.333 127 -312
c79.333 -74.667 176.333 -112 291 -112c319.333 0 579.333 224 780 672c95.333 212.667 178 368 248 466c128 187.333 261 281 399 281c80.667 0 123.667 -15 129.001 -45c42.667 31.333 85.667 58 129 80c12.667 5.33301 21 6 25 2c2.66699 -2.66699 2 -6 -2 -10z
M2042 1298c-6 3.33301 -20.334 10.332 -43.001 20.999c-16.667 6.66699 -36 10 -58 10c-189.333 0 -379.666 -217 -570.999 -651h274c108 282.667 240.667 489.334 398 620.001zM2132 1438l-34.999 0.000976562c-50.667 28.667 -102 73.667 -154 135
c-104.667 -66.667 -194 -111.667 -268 -135c-2.66699 -1.33301 -21 -1.33301 -55 0c58.667 27.333 116.667 60.666 174 99.999c69.333 49.333 113.666 92.333 132.999 129h68c4 -42 49.667 -118.333 137 -229zM2247 1695l-71 -25.999c-42.667 -16.667 -66 -36 -70 -58
c-3.33301 -18 3.33398 -27 20 -27c13.333 0 28 6.5 44 19.5s28.667 30.167 38 51.5c2 5.33301 8.66699 8 20 8c14 0 20 -2.33301 18 -7c-9.33301 -24.667 -25.333 -45.334 -48 -62.001s-48 -25 -76 -25c-21.333 0 -37 4.16699 -47 12.5s-14 18.166 -12 29.499
c3.33301 18.667 22.666 39 58 61l33 20c74.667 46.667 116 90.334 124 131.001c5.33301 27.333 -5.33398 41 -32 41c-14 0 -28.667 -2.66699 -44 -8c-27.333 -9.33301 -50.666 -22.666 -70 -39.999c-19.333 -17.333 -30.666 -35.333 -34 -54c-3.33301 -18.667 3 -28 19 -28
c18 0 36.833 8.66699 56.5 26s33.834 39.666 42.5 66.999c2 6 8.66699 9 20 9c13.333 0 19.333 -2.33301 18 -7c-10 -31.333 -27.833 -57.333 -53.5 -78s-54.834 -31 -87.5 -31c-44 0 -63 13.333 -57 40c6 31.333 32.667 60.333 80 87c38.667 22.667 80.667 34 126 34
c34.667 0 62.334 -7 83 -21c20.667 -14 31 -30.667 31 -50c0 -44 -43 -82.333 -129 -115z" />
    <glyph glyph-name="uni1EA9" unicode="&#x1ea9;" horiz-adv-x="966" 
d="M982 389c0 -2.66699 -1.33301 -7.33301 -4 -14c-50.667 -112 -91.667 -191.333 -123 -238c-69.333 -102 -140.333 -153 -213 -153c-39.333 0 -69.666 14.667 -90.999 44s-30.333 68.333 -27 117c2.66699 40 14 88 34 144l-63 -111
c-80.667 -129.333 -167.334 -194 -260.001 -194c-60 0 -109.167 27.167 -147.5 81.5s-55.5 122.5 -51.5 204.5c11.333 188.667 100 365.667 266 531c82 80.667 160 121 234 121c46 0 82 -19.833 108 -59.5s37.667 -91.5 35 -155.5c-1.33301 -19.333 -4 -39.333 -8 -60
l104 258h164l-291 -715c-14.667 -40.667 -22 -74.667 -22 -102c0 -40.667 13 -61 39 -61c82 0 174.667 120.667 278 362c6 12.667 13.667 19 23 19c12 0 17.333 -6.33301 16 -19zM644 700.001c2.66699 54.667 -5.16699 99.166 -23.5 133.499s-43.833 51.5 -76.5 51.5
c-60 0 -127.667 -74.333 -203 -223c-106 -209.333 -162.667 -381.666 -170 -516.999c-4 -81.333 22.667 -122 80 -122c76.667 0 152.667 66 228 198c102 182 157 341.667 165 479zM1026 1239l-71.002 -25.999c-42.667 -16.667 -66 -36 -70 -58
c-3.33301 -18 3.33398 -27 20.001 -27c13.333 0 28 6.5 44 19.5s28.667 30.167 38 51.5c2 5.33301 8.66699 8 20 8c14 0 20 -2.33301 18 -7c-9.33301 -24.667 -25.333 -45.334 -48 -62.001s-48 -25 -76 -25c-21.333 0 -37 4.16699 -47 12.5s-14 18.166 -12 29.499
c3.33301 18.667 22.666 39 57.999 61l32 20c75.333 46.667 117 90.334 125 131.001c5.33301 27.333 -5.33398 41 -32.001 41c-14 0 -28.667 -2.66699 -44 -8c-27.333 -9.33301 -50.666 -22.666 -69.999 -39.999s-30.666 -35.333 -33.999 -54s3 -28 19 -28
c18 0 36.833 8.66699 56.5 26s33.834 39.666 42.501 66.999c2 6 8.66699 9 20 9c13.333 0 19.333 -2.33301 18 -7c-10 -31.333 -27.833 -57.333 -53.5 -78s-54.834 -31 -87.501 -31c-44 0 -63 13.333 -57 40c6 31.333 32.667 60.333 80 87c38.667 22.667 80.667 34 126 34
c34.667 0 62.334 -7 83.001 -21s31 -30.667 31 -50c0 -44 -43 -82.333 -129 -115zM908.997 989.001l-35 0.000976562c-50.667 28.667 -102 73.667 -154 135c-105.333 -66.667 -194.666 -111.667 -267.999 -135c-2.66699 -1.33301 -21 -1.33301 -55 0
c58.667 27.333 116.667 61 174 101c69.333 48.667 113.666 91.667 132.999 129h67c4.66699 -42.667 50.667 -119.334 138 -230.001z" />
    <glyph glyph-name="uni1EAA" unicode="&#x1eaa;" 
d="M2222 1395c-280 -234 -464.333 -686.668 -553 -1358h160c16 0 24 -6.33301 24 -19c0 -12 -7.33301 -18 -22 -18h-537c-12 0 -18 5.33301 -18 16c0 14 8.66699 21 26 21h168c40 220 92.667 420 158 600h-277c-214 -483.333 -492.333 -725 -835 -725
c-134 0 -245 43 -333 129s-132 196.667 -132 332c0 152.667 61.5 289.834 184.5 411.501s261.5 182.5 415.5 182.5c110.667 0 199.167 -31.833 265.5 -95.5s99.5 -147.167 99.5 -250.5c0 -136.667 -50.667 -257.667 -152 -363c-95.333 -98 -197.666 -147 -306.999 -147
c-78 0 -143.333 22.5 -196 67.5s-79 102.167 -79 171.5c0 31.333 9.66699 69 29 113c23.333 52 48.666 78 75.999 78c17.333 0 26 -7.66699 26 -23c0 -8 -4 -14 -12 -18c-53.333 -34 -80 -84 -80 -150c0 -58.667 23 -107.5 69 -146.5s101 -58.5 165 -58.5
c103.333 0 199.166 47.833 287.499 143.5s132.5 205.5 132.5 329.5c0 100 -33 178.667 -99 236c-60 50.667 -134.333 76 -223 76c-138 0 -264.333 -56 -379 -168c-118.667 -113.333 -178 -243 -178 -389c0 -127.333 42.333 -231.333 127 -312
c79.333 -74.667 176.333 -112 291 -112c319.333 0 579.333 224 780 672c95.333 212.667 178 368 248 466c128 187.333 261 281 399 281c80.667 0 123.667 -15 129.001 -45c42.667 31.333 85.667 58 129 80c12.667 5.33301 21 6 25 2c2.66699 -2.66699 2 -6 -2 -10z
M2042 1298c-6 3.33301 -20.334 10.332 -43.001 20.999c-16.667 6.66699 -36 10 -58 10c-189.333 0 -379.666 -217 -570.999 -651h274c108 282.667 240.667 489.334 398 620.001zM2132 1438l-34.999 0.000976562c-50.667 28.667 -102 73.667 -154 135
c-104.667 -66.667 -194 -111.667 -268 -135c-2.66699 -1.33301 -21 -1.33301 -55 0c58.667 27.333 116.667 60.666 174 99.999c69.333 49.333 113.666 92.333 132.999 129h68c4 -42 49.667 -118.333 137 -229zM2310 1788c-23.333 -50.667 -42.668 -84.332 -58.001 -100.999
c-24.667 -30 -54.667 -45 -90 -45c-34 0 -80 14.667 -138 44s-96 44 -114 44c-40.667 0 -76 -25.667 -106 -77c-5.33301 -8.66699 -11 -13 -17 -13c-10.667 0 -12.667 7 -6 21c42.667 99.333 103.667 149 183 149c28.667 0 71.334 -13 128.001 -39s92.334 -39 107 -39
c36.667 0 66.667 21.333 90 64c5.33301 9.33301 11.666 12.666 19 9.99902c5.33301 -2.66699 6 -8.66699 2 -18z" />
    <glyph glyph-name="uni1EAB" unicode="&#x1eab;" horiz-adv-x="966" 
d="M982 389c0 -2.66699 -1.33301 -7.33301 -4 -14c-50.667 -112 -91.667 -191.333 -123 -238c-69.333 -102 -140.333 -153 -213 -153c-39.333 0 -69.666 14.667 -90.999 44s-30.333 68.333 -27 117c2.66699 40 14 88 34 144l-63 -111
c-80.667 -129.333 -167.334 -194 -260.001 -194c-60 0 -109.167 27.167 -147.5 81.5s-55.5 122.5 -51.5 204.5c11.333 188.667 100 365.667 266 531c82 80.667 160 121 234 121c46 0 82 -19.833 108 -59.5s37.667 -91.5 35 -155.5c-1.33301 -19.333 -4 -39.333 -8 -60
l104 258h164l-291 -715c-14.667 -40.667 -22 -74.667 -22 -102c0 -40.667 13 -61 39 -61c82 0 174.667 120.667 278 362c6 12.667 13.667 19 23 19c12 0 17.333 -6.33301 16 -19zM644 700.001c2.66699 54.667 -5.16699 99.166 -23.5 133.499s-43.833 51.5 -76.5 51.5
c-60 0 -127.667 -74.333 -203 -223c-106 -209.333 -162.667 -381.666 -170 -516.999c-4 -81.333 22.667 -122 80 -122c76.667 0 152.667 66 228 198c102 182 157 341.667 165 479zM1097 1342c-23.333 -50.667 -42.335 -84.332 -57.002 -100.999
c-24.667 -30 -54.667 -45 -90 -45c-34.667 0 -81 14.667 -139 44s-95.667 44 -113 44c-41.333 0 -77 -25.667 -107 -77c-5.33301 -8.66699 -10.666 -13 -15.999 -13c-11.333 0 -13.333 7 -6 21c42 99.333 102.667 149 182 149c28.667 0 71.334 -13 128.001 -39
s92.334 -39 107.001 -39c37.333 0 67.666 21.333 90.999 64c5.33301 9.33301 11.333 12.666 18 9.99902c5.33301 -2.66699 6 -8.66699 2 -18zM908.997 989.002l-35 0.000976562c-50.667 28.667 -102 73.667 -154 135c-105.333 -66.667 -194.666 -111.667 -267.999 -135
c-2.66699 -1.33301 -21 -1.33301 -55 0c58.667 27.333 116.667 61 174 101c69.333 48.667 113.666 91.667 132.999 129h67c4.66699 -42.667 50.667 -119.334 138 -230.001z" />
    <glyph glyph-name="uni1EAC" unicode="&#x1eac;" 
d="M2222 1395c-280 -234 -464.333 -686.668 -553 -1358h160c16 0 24 -6.33301 24 -19c0 -12 -7.33301 -18 -22 -18h-537c-12 0 -18 5.33301 -18 16c0 14 8.66699 21 26 21h168c40 220 92.667 420 158 600h-277c-214 -483.333 -492.333 -725 -835 -725
c-134 0 -245 43 -333 129s-132 196.667 -132 332c0 152.667 61.5 289.834 184.5 411.501s261.5 182.5 415.5 182.5c110.667 0 199.167 -31.833 265.5 -95.5s99.5 -147.167 99.5 -250.5c0 -136.667 -50.667 -257.667 -152 -363c-95.333 -98 -197.666 -147 -306.999 -147
c-78 0 -143.333 22.5 -196 67.5s-79 102.167 -79 171.5c0 31.333 9.66699 69 29 113c23.333 52 48.666 78 75.999 78c17.333 0 26 -7.66699 26 -23c0 -8 -4 -14 -12 -18c-53.333 -34 -80 -84 -80 -150c0 -58.667 23 -107.5 69 -146.5s101 -58.5 165 -58.5
c103.333 0 199.166 47.833 287.499 143.5s132.5 205.5 132.5 329.5c0 100 -33 178.667 -99 236c-60 50.667 -134.333 76 -223 76c-138 0 -264.333 -56 -379 -168c-118.667 -113.333 -178 -243 -178 -389c0 -127.333 42.333 -231.333 127 -312
c79.333 -74.667 176.333 -112 291 -112c319.333 0 579.333 224 780 672c95.333 212.667 178 368 248 466c128 187.333 261 281 399 281c80.667 0 123.667 -15 129.001 -45c42.667 31.333 85.667 58 129 80c12.667 5.33301 21 6 25 2c2.66699 -2.66699 2 -6 -2 -10z
M2042 1298c-6 3.33301 -20.334 10.332 -43.001 20.999c-16.667 6.66699 -36 10 -58 10c-189.333 0 -379.666 -217 -570.999 -651h274c108 282.667 240.667 489.334 398 620.001zM2132 1438l-34.999 0.000976562c-50.667 28.667 -102 73.667 -154 135
c-104.667 -66.667 -194 -111.667 -268 -135c-2.66699 -1.33301 -21 -1.33301 -55 0c58.667 27.333 116.667 60.666 174 99.999c69.333 49.333 113.666 92.333 132.999 129h68c4 -42 49.667 -118.333 137 -229zM1198 -181.001c-4 -32.667 -16.499 -60.666 -37.499 -83.999
s-44.5 -35 -70.5 -35c-52 0 -74.667 29.333 -68 88c4 31.333 16.667 58.666 38 81.999s45 35 71 35c51.333 0 73.666 -28.667 66.999 -86z" />
    <glyph glyph-name="uni1EAD" unicode="&#x1ead;" horiz-adv-x="966" 
d="M982 389c0 -2.66699 -1.33301 -7.33301 -4 -14c-50.667 -112 -91.667 -191.333 -123 -238c-69.333 -102 -140.333 -153 -213 -153c-39.333 0 -69.666 14.667 -90.999 44s-30.333 68.333 -27 117c2.66699 40 14 88 34 144l-63 -111
c-80.667 -129.333 -167.334 -194 -260.001 -194c-60 0 -109.167 27.167 -147.5 81.5s-55.5 122.5 -51.5 204.5c11.333 188.667 100 365.667 266 531c82 80.667 160 121 234 121c46 0 82 -19.833 108 -59.5s37.667 -91.5 35 -155.5c-1.33301 -19.333 -4 -39.333 -8 -60
l104 258h164l-291 -715c-14.667 -40.667 -22 -74.667 -22 -102c0 -40.667 13 -61 39 -61c82 0 174.667 120.667 278 362c6 12.667 13.667 19 23 19c12 0 17.333 -6.33301 16 -19zM644 700.001c2.66699 54.667 -5.16699 99.166 -23.5 133.499s-43.833 51.5 -76.5 51.5
c-60 0 -127.667 -74.333 -203 -223c-106 -209.333 -162.667 -381.666 -170 -516.999c-4 -81.333 22.667 -122 80 -122c76.667 0 152.667 66 228 198c102 182 157 341.667 165 479zM908.999 989l-35 0.000976562c-50.667 28.667 -102 73.667 -154 135
c-105.333 -66.667 -194.666 -111.667 -267.999 -135c-2.66699 -1.33301 -21 -1.33301 -55 0c58.667 27.333 116.667 61 174 101c69.333 48.667 113.666 91.667 132.999 129h67c4.66699 -42.667 50.667 -119.334 138 -230.001zM461.999 -194.999
c-4 -32.667 -16.5 -60.666 -37.5 -83.999s-44.5 -35 -70.5 -35c-52 0 -74.667 29.333 -68 88c4 31.333 16.667 58.666 38 81.999s45 35 71 35c52 0 74.333 -28.667 67 -86z" />
    <glyph glyph-name="uni1EAE" unicode="&#x1eae;" 
d="M2222 1395c-280 -234 -464.333 -686.668 -553 -1358h160c16 0 24 -6.33301 24 -19c0 -12 -7.33301 -18 -22 -18h-537c-12 0 -18 5.33301 -18 16c0 14 8.66699 21 26 21h168c40 220 92.667 420 158 600h-277c-214 -483.333 -492.333 -725 -835 -725
c-134 0 -245 43 -333 129s-132 196.667 -132 332c0 152.667 61.5 289.834 184.5 411.501s261.5 182.5 415.5 182.5c110.667 0 199.167 -31.833 265.5 -95.5s99.5 -147.167 99.5 -250.5c0 -136.667 -50.667 -257.667 -152 -363c-95.333 -98 -197.666 -147 -306.999 -147
c-78 0 -143.333 22.5 -196 67.5s-79 102.167 -79 171.5c0 31.333 9.66699 69 29 113c23.333 52 48.666 78 75.999 78c17.333 0 26 -7.66699 26 -23c0 -8 -4 -14 -12 -18c-53.333 -34 -80 -84 -80 -150c0 -58.667 23 -107.5 69 -146.5s101 -58.5 165 -58.5
c103.333 0 199.166 47.833 287.499 143.5s132.5 205.5 132.5 329.5c0 100 -33 178.667 -99 236c-60 50.667 -134.333 76 -223 76c-138 0 -264.333 -56 -379 -168c-118.667 -113.333 -178 -243 -178 -389c0 -127.333 42.333 -231.333 127 -312
c79.333 -74.667 176.333 -112 291 -112c319.333 0 579.333 224 780 672c95.333 212.667 178 368 248 466c128 187.333 261 281 399 281c80.667 0 123.667 -15 129.001 -45c42.667 31.333 85.667 58 129 80c12.667 5.33301 21 6 25 2c2.66699 -2.66699 2 -6 -2 -10z
M2042 1298c-6 3.33301 -20.334 10.332 -43.001 20.999c-16.667 6.66699 -36 10 -58 10c-189.333 0 -379.666 -217 -570.999 -651h274c108 282.667 240.667 489.334 398 620.001zM2300 1640c-31.333 -57.333 -71.665 -104.332 -120.999 -140.999
c-54.667 -39.333 -111.334 -59 -170.001 -59c-57.333 0 -102.333 20.5 -135 61.5s-48.334 91.5 -47.001 151.5c0 17.333 6 26 18 26s18 -8.66699 18 -26c0 -79.333 54.667 -119 164 -119c80.667 0 162.667 39.667 246 119c8 9.33301 16.333 12.666 25 9.99902
c6.66699 -4 7.33398 -11.667 2.00098 -23zM2259 1825l-190 -227h-43l116 227h117z" />
    <glyph glyph-name="uni1EAF" unicode="&#x1eaf;" horiz-adv-x="966" 
d="M976 389c0 -2.66699 -1.33301 -7.33301 -4 -14c-50.667 -112 -91.667 -191.333 -123 -238c-69.333 -102 -140.333 -153 -213 -153c-39.333 0 -69.666 14.667 -90.999 44s-30.333 68.333 -27 117c2.66699 40 14 88 34 144l-63 -111
c-80.667 -129.333 -167.334 -194 -260.001 -194c-60 0 -109.167 27.167 -147.5 81.5s-55.5 122.5 -51.5 204.5c11.333 188.667 100 365.667 266 531c82 80.667 160 121 234 121c46 0 82 -19.833 108 -59.5s37.667 -91.5 35 -155.5c-1.33301 -19.333 -4 -39.333 -8 -60
l104 258h164l-291 -715c-14.667 -40.667 -22 -74.667 -22 -102c0 -40.667 13 -61 39 -61c82 0 174.667 120.667 278 362c6 12.667 13.667 19 23 19c12 0 17.333 -6.33301 16 -19zM638 700.001c2.66699 54.667 -5.16699 99.166 -23.5 133.499s-43.833 51.5 -76.5 51.5
c-60 0 -127.667 -74.333 -203 -223c-106 -209.333 -162.667 -381.666 -170 -516.999c-4 -81.333 22.667 -122 80 -122c76.667 0 152.667 66 228 198c102 182 157 341.667 165 479zM974.999 1175c-31.333 -57.333 -71.666 -104.332 -120.999 -140.999
c-54.667 -39.333 -111.334 -59 -170.001 -59c-57.333 0 -102.333 20.5 -135 61.5s-48.334 91.5 -47.001 151.5c0 17.333 6 26 18 26c12.667 0 19 -8.66699 19 -26c0 -79.333 54.667 -119 164 -119c80.667 0 162.667 39.667 246 119c8 9.33301 16 12.666 24 9.99902
c6.66699 -4 7.33398 -11.667 2.00098 -23zM926.999 1402l-191 -227h-43l117 227h117z" />
    <glyph glyph-name="uni1EB0" unicode="&#x1eb0;" 
d="M2222 1395c-280 -234 -464.333 -686.668 -553 -1358h160c16 0 24 -6.33301 24 -19c0 -12 -7.33301 -18 -22 -18h-537c-12 0 -18 5.33301 -18 16c0 14 8.66699 21 26 21h168c40 220 92.667 420 158 600h-277c-214 -483.333 -492.333 -725 -835 -725
c-134 0 -245 43 -333 129s-132 196.667 -132 332c0 152.667 61.5 289.834 184.5 411.501s261.5 182.5 415.5 182.5c110.667 0 199.167 -31.833 265.5 -95.5s99.5 -147.167 99.5 -250.5c0 -136.667 -50.667 -257.667 -152 -363c-95.333 -98 -197.666 -147 -306.999 -147
c-78 0 -143.333 22.5 -196 67.5s-79 102.167 -79 171.5c0 31.333 9.66699 69 29 113c23.333 52 48.666 78 75.999 78c17.333 0 26 -7.66699 26 -23c0 -8 -4 -14 -12 -18c-53.333 -34 -80 -84 -80 -150c0 -58.667 23 -107.5 69 -146.5s101 -58.5 165 -58.5
c103.333 0 199.166 47.833 287.499 143.5s132.5 205.5 132.5 329.5c0 100 -33 178.667 -99 236c-60 50.667 -134.333 76 -223 76c-138 0 -264.333 -56 -379 -168c-118.667 -113.333 -178 -243 -178 -389c0 -127.333 42.333 -231.333 127 -312
c79.333 -74.667 176.333 -112 291 -112c319.333 0 579.333 224 780 672c95.333 212.667 178 368 248 466c128 187.333 261 281 399 281c80.667 0 123.667 -15 129.001 -45c42.667 31.333 85.667 58 129 80c12.667 5.33301 21 6 25 2c2.66699 -2.66699 2 -6 -2 -10z
M2042 1298c-6 3.33301 -20.334 10.332 -43.001 20.999c-16.667 6.66699 -36 10 -58 10c-189.333 0 -379.666 -217 -570.999 -651h274c108 282.667 240.667 489.334 398 620.001zM2300 1640c-31.333 -57.333 -71.665 -104.332 -120.999 -140.999
c-54.667 -39.333 -111.334 -59 -170.001 -59c-57.333 0 -102.333 20.5 -135 61.5s-48.334 91.5 -47.001 151.5c0 17.333 6 26 18 26s18 -8.66699 18 -26c0 -79.333 54.667 -119 164 -119c80.667 0 162.667 39.667 246 119c8 9.33301 16.333 12.666 25 9.99902
c6.66699 -4 7.33398 -11.667 2.00098 -23zM2086 1606h-43l-199 227h125z" />
    <glyph glyph-name="uni1EB1" unicode="&#x1eb1;" horiz-adv-x="966" 
d="M976 389c0 -2.66699 -1.33301 -7.33301 -4 -14c-50.667 -112 -91.667 -191.333 -123 -238c-69.333 -102 -140.333 -153 -213 -153c-39.333 0 -69.666 14.667 -90.999 44s-30.333 68.333 -27 117c2.66699 40 14 88 34 144l-63 -111
c-80.667 -129.333 -167.334 -194 -260.001 -194c-60 0 -109.167 27.167 -147.5 81.5s-55.5 122.5 -51.5 204.5c11.333 188.667 100 365.667 266 531c82 80.667 160 121 234 121c46 0 82 -19.833 108 -59.5s37.667 -91.5 35 -155.5c-1.33301 -19.333 -4 -39.333 -8 -60
l104 258h164l-291 -715c-14.667 -40.667 -22 -74.667 -22 -102c0 -40.667 13 -61 39 -61c82 0 174.667 120.667 278 362c6 12.667 13.667 19 23 19c12 0 17.333 -6.33301 16 -19zM638 700.001c2.66699 54.667 -5.16699 99.166 -23.5 133.499s-43.833 51.5 -76.5 51.5
c-60 0 -127.667 -74.333 -203 -223c-106 -209.333 -162.667 -381.666 -170 -516.999c-4 -81.333 22.667 -122 80 -122c76.667 0 152.667 66 228 198c102 182 157 341.667 165 479zM974.999 1175c-31.333 -57.333 -71.666 -104.332 -120.999 -140.999
c-54.667 -39.333 -111.334 -59 -170.001 -59c-57.333 0 -102.333 20.5 -135 61.5s-48.334 91.5 -47.001 151.5c0 17.333 6 26 18 26c12.667 0 19 -8.66699 19 -26c0 -79.333 54.667 -119 164 -119c80.667 0 162.667 39.667 246 119c8 9.33301 16 12.666 24 9.99902
c6.66699 -4 7.33398 -11.667 2.00098 -23zM770.999 1172h-43l-199 227h125z" />
    <glyph glyph-name="uni1EB2" unicode="&#x1eb2;" 
d="M2222 1395c-280 -234 -464.333 -686.668 -553 -1358h160c16 0 24 -6.33301 24 -19c0 -12 -7.33301 -18 -22 -18h-537c-12 0 -18 5.33301 -18 16c0 14 8.66699 21 26 21h168c40 220 92.667 420 158 600h-277c-214 -483.333 -492.333 -725 -835 -725
c-134 0 -245 43 -333 129s-132 196.667 -132 332c0 152.667 61.5 289.834 184.5 411.501s261.5 182.5 415.5 182.5c110.667 0 199.167 -31.833 265.5 -95.5s99.5 -147.167 99.5 -250.5c0 -136.667 -50.667 -257.667 -152 -363c-95.333 -98 -197.666 -147 -306.999 -147
c-78 0 -143.333 22.5 -196 67.5s-79 102.167 -79 171.5c0 31.333 9.66699 69 29 113c23.333 52 48.666 78 75.999 78c17.333 0 26 -7.66699 26 -23c0 -8 -4 -14 -12 -18c-53.333 -34 -80 -84 -80 -150c0 -58.667 23 -107.5 69 -146.5s101 -58.5 165 -58.5
c103.333 0 199.166 47.833 287.499 143.5s132.5 205.5 132.5 329.5c0 100 -33 178.667 -99 236c-60 50.667 -134.333 76 -223 76c-138 0 -264.333 -56 -379 -168c-118.667 -113.333 -178 -243 -178 -389c0 -127.333 42.333 -231.333 127 -312
c79.333 -74.667 176.333 -112 291 -112c319.333 0 579.333 224 780 672c95.333 212.667 178 368 248 466c128 187.333 261 281 399 281c80.667 0 123.667 -15 129.001 -45c42.667 31.333 85.667 58 129 80c12.667 5.33301 21 6 25 2c2.66699 -2.66699 2 -6 -2 -10z
M2042 1298c-6 3.33301 -20.334 10.332 -43.001 20.999c-16.667 6.66699 -36 10 -58 10c-189.333 0 -379.666 -217 -570.999 -651h274c108 282.667 240.667 489.334 398 620.001zM2300 1640c-31.333 -57.333 -71.665 -104.332 -120.999 -140.999
c-54.667 -39.333 -111.334 -59 -170.001 -59c-57.333 0 -102.333 20.5 -135 61.5s-48.334 91.5 -47.001 151.5c0 17.333 6 26 18 26s18 -8.66699 18 -26c0 -79.333 54.667 -119 164 -119c80.667 0 162.667 39.667 246 119c8 9.33301 16.333 12.666 25 9.99902
c6.66699 -4 7.33398 -11.667 2.00098 -23zM2177 1709l-71 -25.999c-42.667 -16.667 -66 -36 -70 -58c-3.33301 -18 3.33398 -27 20.001 -27c13.333 0 28 6.5 44 19.5s28.667 30.167 38 51.5c2 5.33301 8.66699 8 20 8c14 0 20 -2.33301 18 -7
c-9.33301 -24.667 -25.333 -45.334 -48 -62.001s-48 -25 -76 -25c-21.333 0 -37 4.16699 -47 12.5s-14 18.166 -12 29.499c3.33301 18.667 22.666 39 57.999 61l32 20c75.333 46.667 117 90.334 125 131.001c5.33301 27.333 -5.66699 41 -33 41
c-13.333 0 -27.666 -2.66699 -42.999 -8c-27.333 -9.33301 -50.833 -22.666 -70.5 -39.999s-30.834 -35.333 -33.501 -54c-3.33301 -18.667 3 -28 19 -28c18 0 36.833 8.66699 56.5 26s33.834 39.666 42.5 66.999c2 6 8.33301 9 19 9c14 0 20.333 -2.33301 19 -7
c-10 -31.333 -27.833 -57.333 -53.5 -78s-54.834 -31 -87.5 -31c-44 0 -63.333 13.333 -58 40c6 31.333 33 60.333 81 87c38.667 22.667 80.667 34 126 34c34.667 0 62.167 -7 82.5 -21s30.5 -30.667 30.5 -50c0 -44 -42.667 -82.333 -128 -115z" />
    </font>
</defs>
</svg>
